Tektur-CondBlack.ufo
<glyph name="exclam" format="2">
  <advance width="300"/>
  <unicode hex="0021"/>
  <outline>
    <contour>
      <point x="50" y="0" type="line"/>
      <point x="250" y="0" type="line"/>
      <point x="250" y="200" type="line"/>
      <point x="50" y="200" type="line"/>
    </contour>
    <contour>
      <point x="65" y="250" type="line"/>
      <point x="235" y="250" type="line"/>
      <point x="275" y="700" type="line"/>
      <point x="25" y="700" type="line"/>
    </contour>
  </outline>
</glyph>
<glyph name="numbersign" format="2">
  <advance width="660"/>
  <unicode hex="0023"/>
  <outline>
    <contour>
      <point x="110" y="0" type="line"/>
      <point x="290" y="0" type="line"/>
      <point x="290" y="700" type="line"/>
      <point x="110" y="700" type="line"/>
    </contour>
    <contour>
      <point x="370" y="0" type="line"/>
      <point x="550" y="0" type="line"/>
      <point x="550" y="700" type="line"/>
      <point x="370" y="700" type="line"/>
    </contour>
    <contour>
      <point x="630" y="100" type="line"/>
      <point x="630" y="270" type="line"/>
      <point x="30" y="270" type="line"/>
      <point x="30" y="100" type="line"/>
    </contour>
    <contour>
      <point x="630" y="430" type="line"/>
      <point x="630" y="600" type="line"/>
      <point x="30" y="600" type="line"/>
      <point x="30" y="430" type="line"/>
    </contour>
  </outline>
</glyph>
<glyph name="dollar" format="2">
  <advance width="550"/>
  <unicode hex="0024"/>
  <outline>
    <contour>
      <point x="35" y="30" type="line"/>
      <point x="145" y="30" type="line"/>
      <point x="145" y="-60" type="line"/>
      <point x="355" y="-60" type="line"/>
      <point x="355" y="30" type="line"/>
      <point x="395" y="30" type="line"/>
      <point x="525" y="160" type="line"/>
      <point x="525" y="407" type="line"/>
      <point x="245" y="440" type="line"/>
      <point x="245" y="500" type="line"/>
      <point x="515" y="500" type="line"/>
      <point x="515" y="670" type="line"/>
      <point x="405" y="670" type="line"/>
      <point x="405" y="760" type="line"/>
      <point x="195" y="760" type="line"/>
      <point x="195" y="670" type="line"/>
      <point x="155" y="670" type="line"/>
      <point x="25" y="540" type="line"/>
      <point x="25" y="303" type="line"/>
      <point x="305" y="270" type="line"/>
      <point x="305" y="200" type="line"/>
      <point x="35" y="200" type="line"/>
    </contour>
  </outline>
</glyph>
<glyph name="percent" format="2">
  <advance width="540"/>
  <unicode hex="0025"/>
  <outline>
    <contour>
      <point x="30" y="0" type="line"/>
      <point x="215" y="0" type="line"/>
      <point x="510" y="700" type="line"/>
      <point x="325" y="700" type="line"/>
    </contour>
    <contour>
      <point x="320" y="0" type="line"/>
      <point x="500" y="0" type="line"/>
      <point x="500" y="200" type="line"/>
      <point x="320" y="200" type="line"/>
    </contour>
    <contour>
      <point x="40" y="500" type="line"/>
      <point x="220" y="500" type="line"/>
      <point x="220" y="700" type="line"/>
      <point x="40" y="700" type="line"/>
    </contour>
  </outline>
</glyph>
<glyph name="quotesingle" format="2">
  <advance width="220"/>
  <unicode hex="0027"/>
  <outline>
    <contour>
      <point x="40" y="460" type="line"/>
      <point x="180" y="460" type="line"/>
      <point x="200" y="700" type="line"/>
      <point x="20" y="700" type="line"/>
    </contour>
  </outline>
</glyph>
<glyph name="parenleft" format="2">
  <advance width="340"/>
  <unicode hex="0028"/>
  <outline>
    <contour>
      <point x="30" y="10" type="line"/>
      <point x="180" y="-140" type="line"/>
      <point x="320" y="-140" type="line"/>
      <point x="320" y="35" type="line"/>
      <point x="250" y="35" type="line"/>
      <point x="250" y="575" type="line"/>
      <point x="320" y="575" type="line"/>
      <point x="320" y="750" type="line"/>
      <point x="180" y="750" type="line"/>
      <point x="30" y="600" type="line"/>
    </contour>
  </outline>
</glyph>
<glyph name="asterisk" format="2">
  <advance width="500"/>
  <unicode hex="002A"/>
  <outline>
    <contour>
      <point x="325" y="240" type="line"/>
      <point x="325" y="334" type="line"/>
      <point x="410" y="280" type="line"/>
      <point x="490" y="404" type="line"/>
      <point x="387" y="470" type="line"/>
      <point x="490" y="536" type="line"/>
      <point x="410" y="660" type="line"/>
      <point x="325" y="606" type="line"/>
      <point x="325" y="700" type="line"/>
      <point x="175" y="700" type="line"/>
      <point x="175" y="606" type="line"/>
      <point x="90" y="660" type="line"/>
      <point x="10" y="536" type="line"/>
      <point x="113" y="470" type="line"/>
      <point x="10" y="404" type="line"/>
      <point x="90" y="280" type="line"/>
      <point x="175" y="334" type="line"/>
      <point x="175" y="240" type="line"/>
    </contour>
  </outline>
</glyph>
<glyph name="plus" format="2">
  <advance width="600"/>
  <unicode hex="002B"/>
  <outline>
    <contour>
      <point x="40" y="225" type="line"/>
      <point x="560" y="225" type="line"/>
      <point x="560" y="415" type="line"/>
      <point x="40" y="415" type="line"/>
    </contour>
    <contour>
      <point x="400" y="60" type="line"/>
      <point x="400" y="580" type="line"/>
      <point x="200" y="580" type="line"/>
      <point x="200" y="60" type="line"/>
    </contour>
  </outline>
</glyph>
<glyph name="comma" format="2">
  <advance width="280"/>
  <unicode hex="002C"/>
  <outline>
    <contour>
      <point x="55" y="0" type="line"/>
      <point x="130" y="0" type="line"/>
      <point x="15" y="-140" type="line"/>
      <point x="140" y="-140" type="line"/>
      <point x="255" y="0" type="line"/>
      <point x="255" y="200" type="line"/>
      <point x="55" y="200" type="line"/>
    </contour>
  </outline>
</glyph>
<glyph name="hyphen" format="2">
  <advance width="300"/>
  <unicode hex="002D"/>
  <outline>
    <contour>
      <point x="40" y="220" type="line"/>
      <point x="260" y="220" type="line"/>
      <point x="260" y="420" type="line"/>
      <point x="40" y="420" type="line"/>
    </contour>
  </outline>
</glyph>
<glyph name="slash" format="2">
  <advance width="420"/>
  <unicode hex="002F"/>
  <outline>
    <contour>
      <point x="0" y="0" type="line"/>
      <point x="215" y="0" type="line"/>
      <point x="420" y="700" type="line"/>
      <point x="205" y="700" type="line"/>
    </contour>
  </outline>
</glyph>
<glyph name="one" format="2">
  <advance width="400"/>
  <unicode hex="0031"/>
  <outline>
    <contour>
      <point x="45" y="-4" type="line"/>
      <point x="215" y="4" type="line"/>
      <point x="385" y="-4" type="line"/>
      <point x="385" y="161" type="line"/>
      <point x="325" y="166" type="line"/>
      <point x="325" y="700" type="line"/>
      <point x="45" y="660" type="line"/>
      <point x="45" y="485" type="line"/>
      <point x="105" y="494" type="line"/>
      <point x="105" y="166" type="line"/>
      <point x="45" y="161" type="line"/>
    </contour>
  </outline>
</glyph>
<glyph name="two" format="2">
  <advance width="530"/>
  <unicode hex="0032"/>
  <outline>
    <contour>
      <point x="505" y="190" type="line"/>
      <point x="245" y="190" type="line"/>
      <point x="245" y="240" type="line"/>
      <point x="505" y="290" type="line"/>
      <point x="505" y="550" type="line"/>
      <point x="355" y="700" type="line"/>
      <point x="25" y="700" type="line"/>
      <point x="25" y="510" type="line"/>
      <point x="285" y="510" type="line"/>
      <point x="285" y="440" type="line"/>
      <point x="25" y="390" type="line"/>
      <point x="25" y="0" type="line"/>
      <point x="505" y="0" type="line"/>
    </contour>
  </outline>
</glyph>
<glyph name="three" format="2">
  <advance width="510"/>
  <unicode hex="0033"/>
  <outline>
    <contour>
      <point x="350" y="0" type="line"/>
      <point x="490" y="140" type="line"/>
      <point x="490" y="296" type="line"/>
      <point x="403" y="366" type="line"/>
      <point x="470" y="419" type="line"/>
      <point x="470" y="560" type="line"/>
      <point x="330" y="700" type="line"/>
      <point x="25" y="700" type="line"/>
      <point x="25" y="520" type="line"/>
      <point x="245" y="520" type="line"/>
      <point x="245" y="440" type="line"/>
      <point x="60" y="440" type="line"/>
      <point x="60" y="270" type="line"/>
      <point x="265" y="270" type="line"/>
      <point x="265" y="180" type="line"/>
      <point x="20" y="180" type="line"/>
      <point x="20" y="0" type="line"/>
    </contour>
  </outline>
</glyph>
<glyph name="four" format="2">
  <advance width="530"/>
  <unicode hex="0034"/>
  <outline>
    <contour>
      <point x="10" y="180" type="line"/>
      <point x="290" y="180" type="line"/>
      <point x="290" y="0" type="line"/>
      <point x="500" y="0" type="line"/>
      <point x="500" y="700" type="line"/>
      <point x="290" y="700" type="line"/>
      <point x="290" y="370" type="line"/>
      <point x="220" y="370" type="line"/>
      <point x="230" y="700" type="line"/>
      <point x="30" y="700" type="line"/>
    </contour>
  </outline>
</glyph>
<glyph name="five" format="2">
  <advance width="530"/>
  <unicode hex="0035"/>
  <outline>
    <contour>
      <point x="505" y="510" type="line"/>
      <point x="505" y="700" type="line"/>
      <point x="25" y="700" type="line"/>
      <point x="25" y="300" type="line"/>
      <point x="285" y="266" type="line"/>
      <point x="285" y="190" type="line"/>
      <point x="25" y="190" type="line"/>
      <point x="25" y="0" type="line"/>
      <point x="355" y="0" type="line"/>
      <point x="505" y="150" type="line"/>
      <point x="505" y="420" type="line"/>
      <point x="245" y="455" type="line"/>
      <point x="245" y="510" type="line"/>
    </contour>
  </outline>
</glyph>
<glyph name="six" format="2">
  <advance width="550"/>
  <unicode hex="0036"/>
  <outline>
    <contour>
      <point x="165" y="0" type="line"/>
      <point x="385" y="0" type="line"/>
      <point x="525" y="140" type="line"/>
      <point x="525" y="375" type="line"/>
      <point x="450" y="450" type="line"/>
      <point x="245" y="450" type="line"/>
      <point x="245" y="510" type="line"/>
      <point x="490" y="510" type="line"/>
      <point x="490" y="700" type="line"/>
      <point x="165" y="700" type="line"/>
      <point x="25" y="560" type="line"/>
      <point x="25" y="140" type="line"/>
    </contour>
    <contour>
      <point x="245" y="180" type="line"/>
      <point x="245" y="310" type="line"/>
      <point x="305" y="310" type="line"/>
      <point x="305" y="180" type="line"/>
    </contour>
  </outline>
</glyph>
<glyph name="seven" format="2">
  <advance width="510"/>
  <unicode hex="0037"/>
  <outline>
    <contour>
      <point x="25" y="0" type="line"/>
      <point x="279" y="0" type="line"/>
      <point x="495" y="430" type="line"/>
      <point x="495" y="700" type="line"/>
      <point x="15" y="700" type="line"/>
      <point x="15" y="440" type="line"/>
      <point x="225" y="440" type="line"/>
      <point x="225" y="520" type="line"/>
      <point x="275" y="520" type="line"/>
      <point x="275" y="460" type="line"/>
    </contour>
  </outline>
</glyph>
<glyph name="eight" format="2">
  <advance width="570"/>
  <unicode hex="0038"/>
  <outline>
    <contour>
      <point x="255" y="425" type="line"/>
      <point x="255" y="530" type="line"/>
      <point x="315" y="530" type="line"/>
      <point x="315" y="425" type="line"/>
    </contour>
    <contour>
      <point x="255" y="160" type="line"/>
      <point x="255" y="285" type="line"/>
      <point x="325" y="285" type="line"/>
      <point x="325" y="160" type="line"/>
    </contour>
    <contour>
      <point x="140" y="0" type="line"/>
      <point x="430" y="0" type="line"/>
      <point x="550" y="120" type="line"/>
      <point x="550" y="296" type="line"/>
      <point x="463" y="366" type="line"/>
      <point x="530" y="419" type="line"/>
      <point x="530" y="580" type="line"/>
      <point x="410" y="700" type="line"/>
      <point x="160" y="700" type="line"/>
      <point x="40" y="580" type="line"/>
      <point x="40" y="419" type="line"/>
      <point x="107" y="366" type="line"/>
      <point x="20" y="296" type="line"/>
      <point x="20" y="120" type="line"/>
    </contour>
  </outline>
</glyph>
<glyph name="less" format="2">
  <advance width="600"/>
  <unicode hex="003C"/>
  <outline>
    <contour>
      <point x="30" y="185" type="line"/>
      <point x="560" y="0" type="line"/>
      <point x="560" y="193" type="line"/>
      <point x="264" y="280" type="line"/>
      <point x="560" y="367" type="line"/>
      <point x="560" y="560" type="line"/>
      <point x="30" y="375" type="line"/>
    </contour>
  </outline>
</glyph>
<glyph name="equal" format="2">
  <advance width="600"/>
  <unicode hex="003D"/>
  <outline>
    <contour>
      <point x="40" y="350" type="line"/>
      <point x="560" y="350" type="line"/>
      <point x="560" y="520" type="line"/>
      <point x="40" y="520" type="line"/>
    </contour>
    <contour>
      <point x="40" y="120" type="line"/>
      <point x="560" y="120" type="line"/>
      <point x="560" y="290" type="line"/>
      <point x="40" y="290" type="line"/>
    </contour>
  </outline>
</glyph>
<glyph name="question" format="2">
  <advance width="460"/>
  <unicode hex="003F"/>
  <outline>
    <contour>
      <point x="70" y="0" type="line"/>
      <point x="270" y="0" type="line"/>
      <point x="270" y="200" type="line"/>
      <point x="70" y="200" type="line"/>
    </contour>
    <contour>
      <point x="270" y="230" type="line"/>
      <point x="270" y="277" type="line"/>
      <point x="435" y="343" type="line"/>
      <point x="435" y="560" type="line"/>
      <point x="295" y="700" type="line"/>
      <point x="25" y="700" type="line"/>
      <point x="25" y="510" type="line"/>
      <point x="235" y="510" type="line"/>
      <point x="235" y="470" type="line"/>
      <point x="70" y="417" type="line"/>
      <point x="70" y="230" type="line"/>
    </contour>
  </outline>
</glyph>
<glyph name="at" format="2">
  <advance width="750"/>
  <unicode hex="0040"/>
  <outline>
    <contour>
      <point x="30" y="-10" type="line"/>
      <point x="160" y="-140" type="line"/>
      <point x="720" y="-140" type="line"/>
      <point x="720" y="20" type="line"/>
      <point x="220" y="20" type="line"/>
      <point x="220" y="540" type="line"/>
      <point x="530" y="540" type="line"/>
      <point x="530" y="470" type="line"/>
      <point x="280" y="450" type="line"/>
      <point x="280" y="170" type="line"/>
      <point x="380" y="70" type="line"/>
      <point x="620" y="70" type="line"/>
      <point x="720" y="170" type="line"/>
      <point x="720" y="570" type="line"/>
      <point x="590" y="700" type="line"/>
      <point x="160" y="700" type="line"/>
      <point x="30" y="570" type="line"/>
    </contour>
    <contour>
      <point x="470" y="220" type="line"/>
      <point x="470" y="380" type="line"/>
      <point x="530" y="400" type="line"/>
      <point x="530" y="220" type="line"/>
    </contour>
  </outline>
</glyph>
<glyph name="A" format="2">
  <advance width="580"/>
  <unicode hex="0041"/>
  <anchor x="290" y="0" name="bottom"/>
  <anchor x="465" y="0" name="ogonek"/>
  <anchor x="290" y="700" name="top"/>
  <outline>
    <contour>
      <point x="5" y="0" type="line"/>
      <point x="225" y="0" type="line"/>
      <point x="237" y="110" type="line"/>
      <point x="343" y="110" type="line"/>
      <point x="355" y="0" type="line"/>
      <point x="575" y="0" type="line"/>
      <point x="468" y="700" type="line"/>
      <point x="112" y="700" type="line"/>
    </contour>
    <contour>
      <point x="255" y="270" type="line"/>
      <point x="283" y="530" type="line"/>
      <point x="297" y="530" type="line"/>
      <point x="325" y="270" type="line"/>
    </contour>
  </outline>
</glyph>
<glyph name="B" format="2">
  <advance width="570"/>
  <unicode hex="0042"/>
  <anchor x="270" y="0" name="bottom"/>
  <anchor x="270" y="700" name="top"/>
  <outline>
    <contour>
      <point x="250" y="425" type="line"/>
      <point x="250" y="530" type="line"/>
      <point x="315" y="530" type="line"/>
      <point x="315" y="425" type="line"/>
    </contour>
    <contour>
      <point x="250" y="170" type="line"/>
      <point x="250" y="285" type="line"/>
      <point x="330" y="285" type="line"/>
      <point x="330" y="170" type="line"/>
    </contour>
    <contour>
      <point x="530" y="570" type="line"/>
      <point x="400" y="700" type="line"/>
      <point x="30" y="700" type="line"/>
      <point x="30" y="0" type="line"/>
      <point x="420" y="0" type="line"/>
      <point x="550" y="130" type="line"/>
      <point x="550" y="296" type="line"/>
      <point x="463" y="364" type="line"/>
      <point x="530" y="430" type="line"/>
    </contour>
  </outline>
</glyph>
<glyph name="C" format="2">
  <advance width="465"/>
  <unicode hex="0043"/>
  <anchor x="255" y="0" name="bottom"/>
  <anchor x="255" y="700" name="top"/>
  <outline>
    <contour>
      <point x="25" y="140" type="line"/>
      <point x="165" y="0" type="line"/>
      <point x="445" y="0" type="line"/>
      <point x="445" y="205" type="line"/>
      <point x="265" y="205" type="line"/>
      <point x="265" y="495" type="line"/>
      <point x="445" y="495" type="line"/>
      <point x="445" y="700" type="line"/>
      <point x="165" y="700" type="line"/>
      <point x="25" y="560" type="line"/>
    </contour>
  </outline>
</glyph>
<glyph name="D" format="2">
  <advance width="555"/>
  <unicode hex="0044"/>
  <anchor x="250" y="0" name="bottom"/>
  <anchor x="250" y="700" name="top"/>
  <outline>
    <contour>
      <point x="250" y="190" type="line"/>
      <point x="250" y="510" type="line"/>
      <point x="310" y="510" type="line"/>
      <point x="310" y="190" type="line"/>
    </contour>
    <contour>
      <point x="30" y="0" type="line"/>
      <point x="390" y="0" type="line"/>
      <point x="530" y="140" type="line"/>
      <point x="530" y="560" type="line"/>
      <point x="390" y="700" type="line"/>
      <point x="30" y="700" type="line"/>
    </contour>
  </outline>
</glyph>
<glyph name="E" format="2">
  <advance width="440"/>
  <unicode hex="0045"/>
  <anchor x="220" y="700" name="top"/>
  <anchor x="220" y="0" name="bottom"/>
  <anchor x="310" y="0" name="ogonek"/>
  <outline>
    <contour>
      <point x="30" y="0" type="line"/>
      <point x="420" y="0" type="line"/>
      <point x="420" y="180" type="line"/>
      <point x="250" y="180" type="line"/>
      <point x="250" y="270" type="line"/>
      <point x="390" y="270" type="line"/>
      <point x="390" y="440" type="line"/>
      <point x="250" y="440" type="line"/>
      <point x="250" y="520" type="line"/>
      <point x="410" y="520" type="line"/>
      <point x="410" y="700" type="line"/>
      <point x="30" y="700" type="line"/>
    </contour>
  </outline>
</glyph>
<glyph name="F" format="2">
  <advance width="420"/>
  <unicode hex="0046"/>
  <anchor x="210" y="0" name="bottom"/>
  <anchor x="210" y="700" name="top"/>
  <outline>
    <contour>
      <point x="30" y="0" type="line"/>
      <point x="250" y="0" type="line"/>
      <point x="250" y="190" type="line"/>
      <point x="380" y="190" type="line"/>
      <point x="380" y="380" type="line"/>
      <point x="250" y="380" type="line"/>
      <point x="250" y="500" type="line"/>
      <point x="400" y="500" type="line"/>
      <point x="400" y="700" type="line"/>
      <point x="30" y="700" type="line"/>
    </contour>
  </outline>
</glyph>
<glyph name="G" format="2">
  <advance width="520"/>
  <unicode hex="0047"/>
  <anchor x="310" y="0" name="bottom"/>
  <anchor x="310" y="700" name="top"/>
  <outline>
    <contour>
      <point x="25" y="140" type="line"/>
      <point x="165" y="0" type="line"/>
      <point x="495" y="0" type="line"/>
      <point x="495" y="435" type="line"/>
      <point x="275" y="435" type="line"/>
      <point x="275" y="265" type="line"/>
      <point x="305" y="265" type="line"/>
      <point x="305" y="200" type="line"/>
      <point x="245" y="200" type="line"/>
      <point x="245" y="500" type="line"/>
      <point x="485" y="500" type="line"/>
      <point x="485" y="700" type="line"/>
      <point x="165" y="700" type="line"/>
      <point x="25" y="560" type="line"/>
    </contour>
  </outline>
</glyph>
<glyph name="H" format="2">
  <advance width="560"/>
  <unicode hex="0048"/>
  <anchor x="280" y="700" name="top"/>
  <anchor x="280" y="0" name="bottom"/>
  <outline>
    <contour>
      <point x="30" y="0" type="line"/>
      <point x="250" y="0" type="line"/>
      <point x="250" y="260" type="line"/>
      <point x="310" y="260" type="line"/>
      <point x="310" y="0" type="line"/>
      <point x="530" y="0" type="line"/>
      <point x="530" y="700" type="line"/>
      <point x="310" y="700" type="line"/>
      <point x="310" y="460" type="line"/>
      <point x="250" y="460" type="line"/>
      <point x="250" y="700" type="line"/>
      <point x="30" y="700" type="line"/>
    </contour>
  </outline>
</glyph>
<glyph name="I" format="2">
  <advance width="350"/>
  <unicode hex="0049"/>
  <anchor x="175" y="0" name="bottom"/>
  <anchor x="175" y="701" name="top"/>
  <outline>
    <contour>
      <point x="15" y="-4" type="line"/>
      <point x="175" y="4" type="line"/>
      <point x="335" y="-4" type="line"/>
      <point x="335" y="161" type="line"/>
      <point x="285" y="166" type="line"/>
      <point x="285" y="534" type="line"/>
      <point x="335" y="539" type="line"/>
      <point x="335" y="704" type="line"/>
      <point x="175" y="696" type="line"/>
      <point x="15" y="704" type="line"/>
      <point x="15" y="539" type="line"/>
      <point x="65" y="534" type="line"/>
      <point x="65" y="166" type="line"/>
      <point x="15" y="161" type="line"/>
    </contour>
  </outline>
</glyph>
<glyph name="J" format="2">
  <advance width="530"/>
  <unicode hex="004A"/>
  <anchor x="265" y="0" name="bottom"/>
  <anchor x="290" y="700" name="top"/>
  <outline>
    <contour>
      <point x="15" y="140" type="line"/>
      <point x="155" y="0" type="line"/>
      <point x="365" y="0" type="line"/>
      <point x="505" y="140" type="line"/>
      <point x="505" y="700" type="line"/>
      <point x="55" y="700" type="line"/>
      <point x="55" y="510" type="line"/>
      <point x="285" y="510" type="line"/>
      <point x="285" y="190" type="line"/>
      <point x="235" y="190" type="line"/>
      <point x="235" y="350" type="line"/>
      <point x="15" y="350" type="line"/>
    </contour>
  </outline>
</glyph>
<glyph name="K" format="2">
  <advance width="580"/>
  <unicode hex="004B"/>
  <anchor x="290" y="0" name="bottom"/>
  <anchor x="290" y="700" name="top"/>
  <outline>
    <contour>
      <point x="30" y="0" type="line"/>
      <point x="250" y="0" type="line"/>
      <point x="250" y="264" type="line"/>
      <point x="277" y="264" type="line"/>
      <point x="338" y="0" type="line"/>
      <point x="580" y="0" type="line"/>
      <point x="460" y="370" type="line"/>
      <point x="565" y="700" type="line"/>
      <point x="326" y="700" type="line"/>
      <point x="272" y="446" type="line"/>
      <point x="250" y="446" type="line"/>
      <point x="250" y="700" type="line"/>
      <point x="30" y="700" type="line"/>
    </contour>
  </outline>
</glyph>
<glyph name="L" format="2">
  <advance width="510"/>
  <unicode hex="004C"/>
  <anchor x="150" y="700" name="top"/>
  <anchor x="265" y="0" name="bottom"/>
  <outline>
    <contour>
      <point x="30" y="0" type="line"/>
      <point x="490" y="0" type="line"/>
      <point x="490" y="280" type="line"/>
      <point x="300" y="280" type="line"/>
      <point x="300" y="180" type="line"/>
      <point x="250" y="180" type="line"/>
      <point x="250" y="700" type="line"/>
      <point x="30" y="700" type="line"/>
    </contour>
  </outline>
</glyph>
<glyph name="M" format="2">
  <advance width="640"/>
  <unicode hex="004D"/>
  <anchor x="320" y="700" name="top"/>
  <anchor x="320" y="0" name="bottom"/>
  <outline>
    <contour>
      <point x="30" y="0" type="line"/>
      <point x="240" y="0" type="line"/>
      <point x="240" y="350" type="line"/>
      <point x="300" y="170" type="line"/>
      <point x="340" y="170" type="line"/>
      <point x="400" y="350" type="line"/>
      <point x="400" y="0" type="line"/>
      <point x="610" y="0" type="line"/>
      <point x="610" y="700" type="line"/>
      <point x="400" y="700" type="line"/>
      <point x="320" y="460" type="line"/>
      <point x="240" y="700" type="line"/>
      <point x="30" y="700" type="line"/>
    </contour>
  </outline>
</glyph>
<glyph name="N" format="2">
  <advance width="560"/>
  <unicode hex="004E"/>
  <anchor x="280" y="700" name="top"/>
  <anchor x="280" y="0" name="bottom"/>
  <outline>
    <contour>
      <point x="30" y="0" type="line"/>
      <point x="230" y="0" type="line"/>
      <point x="230" y="315" type="line"/>
      <point x="360" y="0" type="line"/>
      <point x="530" y="0" type="line"/>
      <point x="530" y="700" type="line"/>
      <point x="330" y="700" type="line"/>
      <point x="330" y="385" type="line"/>
      <point x="200" y="700" type="line"/>
      <point x="30" y="700" type="line"/>
    </contour>
  </outline>
</glyph>
<glyph name="O" format="2">
  <advance width="550"/>
  <unicode hex="004F"/>
  <anchor x="275" y="0" name="bottom"/>
  <anchor x="275" y="700" name="top"/>
  <outline>
    <contour>
      <point x="25" y="140" type="line"/>
      <point x="165" y="0" type="line"/>
      <point x="385" y="0" type="line"/>
      <point x="525" y="140" type="line"/>
      <point x="525" y="560" type="line"/>
      <point x="385" y="700" type="line"/>
      <point x="165" y="700" type="line"/>
      <point x="25" y="560" type="line"/>
    </contour>
    <contour>
      <point x="245" y="500" type="line"/>
      <point x="305" y="500" type="line"/>
      <point x="305" y="200" type="line"/>
      <point x="245" y="200" type="line"/>
    </contour>
  </outline>
</glyph>
<glyph name="P" format="2">
  <advance width="545"/>
  <unicode hex="0050"/>
  <anchor x="270" y="700" name="top"/>
  <anchor x="190" y="0" name="bottom"/>
  <outline>
    <contour>
      <point x="250" y="300" type="line"/>
      <point x="250" y="530" type="line"/>
      <point x="310" y="530" type="line"/>
      <point x="310" y="300" type="line"/>
    </contour>
    <contour>
      <point x="530" y="560" type="line"/>
      <point x="390" y="700" type="line"/>
      <point x="30" y="700" type="line"/>
      <point x="30" y="0" type="line"/>
      <point x="250" y="0" type="line"/>
      <point x="250" y="130" type="line"/>
      <point x="390" y="130" type="line"/>
      <point x="530" y="270" type="line"/>
    </contour>
  </outline>
</glyph>
<glyph name="Q" format="2">
  <advance width="550"/>
  <unicode hex="0051"/>
  <anchor x="275" y="0" name="bottom"/>
  <anchor x="275" y="700" name="top"/>
  <outline>
    <contour>
      <point x="25" y="140" type="line"/>
      <point x="165" y="0" type="line"/>
      <point x="525" y="-100" type="line"/>
      <point x="525" y="108" type="line"/>
      <point x="245" y="185" type="line"/>
      <point x="245" y="500" type="line"/>
      <point x="305" y="500" type="line"/>
      <point x="305" y="60" type="line"/>
      <point x="525" y="187" type="line"/>
      <point x="525" y="560" type="line"/>
      <point x="385" y="700" type="line"/>
      <point x="165" y="700" type="line"/>
      <point x="25" y="560" type="line"/>
    </contour>
  </outline>
</glyph>
<glyph name="R" format="2">
  <advance width="560"/>
  <unicode hex="0052"/>
  <anchor x="275" y="0" name="bottom"/>
  <anchor x="255" y="700" name="top"/>
  <outline>
    <contour>
      <point x="250" y="340" type="line"/>
      <point x="250" y="530" type="line"/>
      <point x="310" y="530" type="line"/>
      <point x="310" y="340" type="line"/>
    </contour>
    <contour>
      <point x="530" y="560" type="line"/>
      <point x="390" y="700" type="line"/>
      <point x="30" y="700" type="line"/>
      <point x="30" y="0" type="line"/>
      <point x="250" y="0" type="line"/>
      <point x="250" y="170" type="line"/>
      <point x="289" y="170" type="line"/>
      <point x="302" y="0" type="line"/>
      <point x="560" y="0" type="line"/>
      <point x="460" y="238" type="line"/>
      <point x="530" y="308" type="line"/>
    </contour>
  </outline>
</glyph>
<glyph name="S" format="2">
  <advance width="520"/>
  <unicode hex="0053"/>
  <anchor x="260" y="0" name="bottom"/>
  <anchor x="260" y="700" name="top"/>
  <outline>
    <contour>
      <point x="35" y="0" type="line"/>
      <point x="355" y="0" type="line"/>
      <point x="495" y="140" type="line"/>
      <point x="495" y="417" type="line"/>
      <point x="245" y="450" type="line"/>
      <point x="245" y="510" type="line"/>
      <point x="485" y="510" type="line"/>
      <point x="485" y="700" type="line"/>
      <point x="165" y="700" type="line"/>
      <point x="25" y="560" type="line"/>
      <point x="25" y="293" type="line"/>
      <point x="275" y="260" type="line"/>
      <point x="275" y="190" type="line"/>
      <point x="35" y="190" type="line"/>
    </contour>
  </outline>
</glyph>
<glyph name="T" format="2">
  <advance width="450"/>
  <unicode hex="0054"/>
  <anchor x="225" y="700" name="top"/>
  <anchor x="225" y="0" name="bottom"/>
  <outline>
    <contour>
      <point x="105" y="0" type="line"/>
      <point x="335" y="0" type="line"/>
      <point x="335" y="500" type="line"/>
      <point x="440" y="500" type="line"/>
      <point x="440" y="700" type="line"/>
      <point x="10" y="700" type="line"/>
      <point x="10" y="500" type="line"/>
      <point x="105" y="500" type="line"/>
    </contour>
  </outline>
</glyph>
<glyph name="U" format="2">
  <advance width="560"/>
  <unicode hex="0055"/>
  <anchor x="280" y="700" name="top"/>
  <anchor x="280" y="0" name="bottom"/>
  <anchor x="300" y="0" name="ogonek"/>
  <outline>
    <contour>
      <point x="30" y="140" type="line"/>
      <point x="170" y="0" type="line"/>
      <point x="390" y="0" type="line"/>
      <point x="530" y="140" type="line"/>
      <point x="530" y="700" type="line"/>
      <point x="310" y="700" type="line"/>
      <point x="310" y="200" type="line"/>
      <point x="250" y="200" type="line"/>
      <point x="250" y="700" type="line"/>
      <point x="30" y="700" type="line"/>
    </contour>
  </outline>
</glyph>
<glyph name="V" format="2">
  <advance width="580"/>
  <unicode hex="0056"/>
  <anchor x="290" y="0" name="bottom"/>
  <anchor x="290" y="700" name="top"/>
  <outline>
    <contour>
      <point x="112" y="0" type="line"/>
      <point x="468" y="0" type="line"/>
      <point x="575" y="700" type="line"/>
      <point x="345" y="700" type="line"/>
      <point x="297" y="190" type="line"/>
      <point x="283" y="190" type="line"/>
      <point x="235" y="700" type="line"/>
      <point x="5" y="700" type="line"/>
    </contour>
  </outline>
</glyph>
<glyph name="W" format="2">
  <advance width="740"/>
  <unicode hex="0057"/>
  <anchor x="370" y="700" name="top"/>
  <anchor x="370" y="0" name="bottom"/>
  <outline>
    <contour>
      <point x="67" y="0" type="line"/>
      <point x="343" y="0" type="line"/>
      <point x="370" y="257" type="line"/>
      <point x="397" y="0" type="line"/>
      <point x="673" y="0" type="line"/>
      <point x="730" y="700" type="line"/>
      <point x="495" y="700" type="line"/>
      <point x="485" y="240" type="line"/>
      <point x="475" y="240" type="line"/>
      <point x="432" y="590" type="line"/>
      <point x="308" y="590" type="line"/>
      <point x="265" y="240" type="line"/>
      <point x="255" y="240" type="line"/>
      <point x="245" y="700" type="line"/>
      <point x="10" y="700" type="line"/>
    </contour>
  </outline>
</glyph>
<glyph name="X" format="2">
  <advance width="600"/>
  <unicode hex="0058"/>
  <anchor x="300" y="0" name="bottom"/>
  <anchor x="300" y="700" name="top"/>
  <outline>
    <contour>
      <point x="0" y="0" type="line"/>
      <point x="238" y="0" type="line"/>
      <point x="290" y="260" type="line"/>
      <point x="310" y="260" type="line"/>
      <point x="362" y="0" type="line"/>
      <point x="600" y="0" type="line"/>
      <point x="480" y="370" type="line"/>
      <point x="585" y="700" type="line"/>
      <point x="350" y="700" type="line"/>
      <point x="305" y="460" type="line"/>
      <point x="295" y="460" type="line"/>
      <point x="250" y="700" type="line"/>
      <point x="15" y="700" type="line"/>
      <point x="120" y="370" type="line"/>
    </contour>
  </outline>
</glyph>
<glyph name="Y" format="2">
  <advance width="560"/>
  <unicode hex="0059"/>
  <anchor x="280" y="0" name="bottom"/>
  <anchor x="280" y="700" name="top"/>
  <outline>
    <contour>
      <point x="170" y="0" type="line"/>
      <point x="390" y="0" type="line"/>
      <point x="390" y="210" type="line"/>
      <point x="453" y="210" type="line"/>
      <point x="555" y="700" type="line"/>
      <point x="320" y="700" type="line"/>
      <point x="285" y="380" type="line"/>
      <point x="275" y="380" type="line"/>
      <point x="240" y="700" type="line"/>
      <point x="5" y="700" type="line"/>
      <point x="107" y="210" type="line"/>
      <point x="170" y="210" type="line"/>
    </contour>
  </outline>
</glyph>
<glyph name="bracketleft" format="2">
  <advance width="340"/>
  <unicode hex="005B"/>
  <outline>
    <contour>
      <point x="30" y="-140" type="line"/>
      <point x="320" y="-140" type="line"/>
      <point x="320" y="25" type="line"/>
      <point x="240" y="25" type="line"/>
      <point x="240" y="585" type="line"/>
      <point x="320" y="585" type="line"/>
      <point x="320" y="750" type="line"/>
      <point x="30" y="750" type="line"/>
    </contour>
  </outline>
</glyph>
<glyph name="asciicircum" format="2">
  <advance width="500"/>
  <unicode hex="005E"/>
  <outline>
    <contour>
      <point x="13" y="350" type="line"/>
      <point x="205" y="350" type="line"/>
      <point x="250" y="570" type="line"/>
      <point x="295" y="350" type="line"/>
      <point x="487" y="350" type="line"/>
      <point x="367" y="700" type="line"/>
      <point x="133" y="700" type="line"/>
    </contour>
  </outline>
</glyph>
<glyph name="underscore" format="2">
  <advance width="400"/>
  <unicode hex="005F"/>
  <outline>
    <contour>
      <point x="40" y="-200" type="line"/>
      <point x="360" y="-200" type="line"/>
      <point x="360" y="0" type="line"/>
      <point x="40" y="0" type="line"/>
    </contour>
  </outline>
</glyph>
<glyph name="a" format="2">
  <advance width="520"/>
  <unicode hex="0061"/>
  <anchor x="240" y="560" name="top"/>
  <anchor x="240" y="0" name="bottom"/>
  <anchor x="390" y="0" name="ogonek"/>
  <outline>
    <contour>
      <point x="20" y="120" type="line"/>
      <point x="140" y="0" type="line"/>
      <point x="490" y="0" type="line"/>
      <point x="490" y="420" type="line"/>
      <point x="350" y="560" type="line"/>
      <point x="30" y="560" type="line"/>
      <point x="30" y="380" type="line"/>
      <point x="280" y="380" type="line"/>
      <point x="280" y="330" type="line"/>
      <point x="20" y="320" type="line"/>
    </contour>
    <contour>
      <point x="230" y="220" type="line"/>
      <point x="280" y="240" type="line"/>
      <point x="280" y="170" type="line"/>
      <point x="230" y="170" type="line"/>
    </contour>
  </outline>
</glyph>
<glyph name="b" format="2">
  <advance width="560"/>
  <unicode hex="0062"/>
  <anchor x="250" y="0" name="bottom"/>
  <anchor x="250" y="700" name="top"/>
  <outline>
    <contour>
      <point x="30" y="0" type="line"/>
      <point x="390" y="0" type="line"/>
      <point x="530" y="140" type="line"/>
      <point x="530" y="420" type="line"/>
      <point x="390" y="560" type="line"/>
      <point x="250" y="560" type="line"/>
      <point x="250" y="700" type="line"/>
      <point x="30" y="700" type="line"/>
    </contour>
    <contour>
      <point x="250" y="180" type="line"/>
      <point x="250" y="380" type="line"/>
      <point x="310" y="380" type="line"/>
      <point x="310" y="180" type="line"/>
    </contour>
  </outline>
</glyph>
<glyph name="c" format="2">
  <advance width="440"/>
  <unicode hex="0063"/>
  <anchor x="260" y="560" name="top"/>
  <anchor x="260" y="0" name="bottom"/>
  <outline>
    <contour>
      <point x="30" y="130" type="line"/>
      <point x="160" y="0" type="line"/>
      <point x="420" y="0" type="line"/>
      <point x="420" y="200" type="line"/>
      <point x="250" y="200" type="line"/>
      <point x="250" y="360" type="line"/>
      <point x="420" y="360" type="line"/>
      <point x="420" y="560" type="line"/>
      <point x="160" y="560" type="line"/>
      <point x="30" y="430" type="line"/>
    </contour>
  </outline>
</glyph>
<glyph name="d" format="2">
  <advance width="560"/>
  <unicode hex="0064"/>
  <anchor x="310" y="0" name="bottom"/>
  <anchor x="310" y="700" name="top"/>
  <outline>
    <contour>
      <point x="530" y="700" type="line"/>
      <point x="310" y="700" type="line"/>
      <point x="310" y="560" type="line"/>
      <point x="170" y="560" type="line"/>
      <point x="30" y="420" type="line"/>
      <point x="30" y="140" type="line"/>
      <point x="170" y="0" type="line"/>
      <point x="530" y="0" type="line"/>
    </contour>
    <contour>
      <point x="250" y="180" type="line"/>
      <point x="250" y="380" type="line"/>
      <point x="310" y="380" type="line"/>
      <point x="310" y="180" type="line"/>
    </contour>
  </outline>
</glyph>
<glyph name="f" format="2">
  <advance width="390"/>
  <unicode hex="0066"/>
  <anchor x="210" y="0" name="bottom"/>
  <anchor x="210" y="700" name="top"/>
  <outline>
    <contour>
      <point x="30" y="0" type="line"/>
      <point x="250" y="0" type="line"/>
      <point x="250" y="250" type="line"/>
      <point x="370" y="250" type="line"/>
      <point x="370" y="430" type="line"/>
      <point x="250" y="430" type="line"/>
      <point x="250" y="510" type="line"/>
      <point x="370" y="510" type="line"/>
      <point x="370" y="700" type="line"/>
      <point x="160" y="700" type="line"/>
      <point x="30" y="570" type="line"/>
    </contour>
  </outline>
</glyph>
<glyph name="g" format="2">
  <advance width="560"/>
  <unicode hex="0067"/>
  <anchor x="270" y="-160" name="bottom"/>
  <anchor x="300" y="560" name="top"/>
  <outline>
    <contour>
      <point x="60" y="-160" type="line"/>
      <point x="366" y="-160" type="line"/>
      <point x="530" y="4" type="line"/>
      <point x="530" y="560" type="line"/>
      <point x="160" y="560" type="line"/>
      <point x="30" y="430" type="line"/>
      <point x="30" y="190" type="line"/>
      <point x="160" y="60" type="line"/>
      <point x="310" y="60" type="line"/>
      <point x="310" y="20" type="line"/>
      <point x="60" y="20" type="line"/>
    </contour>
    <contour>
      <point x="250" y="380" type="line"/>
      <point x="310" y="380" type="line"/>
      <point x="310" y="230" type="line"/>
      <point x="250" y="230" type="line"/>
    </contour>
  </outline>
</glyph>
<glyph name="h" format="2">
  <advance width="560"/>
  <unicode hex="0068"/>
  <anchor x="300" y="0" name="bottom"/>
  <anchor x="250" y="700" name="top"/>
  <outline>
    <contour>
      <point x="30" y="0" type="line"/>
      <point x="250" y="0" type="line"/>
      <point x="250" y="380" type="line"/>
      <point x="310" y="380" type="line"/>
      <point x="310" y="0" type="line"/>
      <point x="530" y="0" type="line"/>
      <point x="530" y="420" type="line"/>
      <point x="390" y="560" type="line"/>
      <point x="250" y="560" type="line"/>
      <point x="250" y="700" type="line"/>
      <point x="30" y="700" type="line"/>
    </contour>
  </outline>
</glyph>
<glyph name="i" format="2">
  <advance width="280"/>
  <unicode hex="0069"/>
  <anchor x="140" y="730" name="top"/>
  <anchor x="140" y="0" name="bottom"/>
  <outline>
    <contour>
      <point x="30" y="0" type="line"/>
      <point x="250" y="0" type="line"/>
      <point x="250" y="560" type="line"/>
      <point x="30" y="560" type="line"/>
    </contour>
    <contour>
      <point x="30" y="600" type="line"/>
      <point x="250" y="600" type="line"/>
      <point x="250" y="730" type="line"/>
      <point x="30" y="730" type="line"/>
    </contour>
  </outline>
</glyph>
<glyph name="j" format="2">
  <advance width="280"/>
  <unicode hex="006A"/>
  <anchor x="140" y="730" name="top"/>
  <outline>
    <contour>
      <point x="30" y="-160" type="line"/>
      <point x="250" y="-160" type="line"/>
      <point x="250" y="560" type="line"/>
      <point x="30" y="560" type="line"/>
    </contour>
    <contour>
      <point x="30" y="600" type="line"/>
      <point x="250" y="600" type="line"/>
      <point x="250" y="730" type="line"/>
      <point x="30" y="730" type="line"/>
    </contour>
  </outline>
</glyph>
<glyph name="k" format="2">
  <advance width="570"/>
  <unicode hex="006B"/>
  <anchor x="285" y="0" name="bottom"/>
  <anchor x="250" y="700" name="top"/>
  <outline>
    <contour>
      <point x="30" y="0" type="line"/>
      <point x="250" y="0" type="line"/>
      <point x="250" y="201" type="line"/>
      <point x="284" y="201" type="line"/>
      <point x="329" y="0" type="line"/>
      <point x="560" y="0" type="line"/>
      <point x="463" y="301" type="line"/>
      <point x="550" y="560" type="line"/>
      <point x="322" y="560" type="line"/>
      <point x="281" y="381" type="line"/>
      <point x="250" y="381" type="line"/>
      <point x="250" y="700" type="line"/>
      <point x="30" y="700" type="line"/>
    </contour>
  </outline>
</glyph>
<glyph name="l" format="2">
  <advance width="280"/>
  <unicode hex="006C"/>
  <anchor x="140" y="0" name="bottom"/>
  <anchor x="140" y="700" name="top"/>
  <outline>
    <contour>
      <point x="30" y="0" type="line"/>
      <point x="250" y="0" type="line"/>
      <point x="250" y="700" type="line"/>
      <point x="30" y="700" type="line"/>
    </contour>
  </outline>
</glyph>
<glyph name="m" format="2">
  <advance width="815"/>
  <unicode hex="006D"/>
  <anchor x="407.5" y="560" name="top"/>
  <anchor x="407.5" y="0" name="bottom"/>
  <outline>
    <contour>
      <point x="30" y="560" type="line"/>
      <point x="30" y="0" type="line"/>
      <point x="245" y="0" type="line"/>
      <point x="245" y="390" type="line"/>
      <point x="305" y="390" type="line"/>
      <point x="305" y="0" type="line"/>
      <point x="510" y="0" type="line"/>
      <point x="510" y="390" type="line"/>
      <point x="570" y="390" type="line"/>
      <point x="570" y="0" type="line"/>
      <point x="785" y="0" type="line"/>
      <point x="785" y="420" type="line"/>
      <point x="645" y="560" type="line"/>
    </contour>
  </outline>
</glyph>
<glyph name="n" format="2">
  <advance width="560"/>
  <unicode hex="006E"/>
  <anchor x="280" y="0" name="bottom"/>
  <anchor x="280" y="560" name="top"/>
  <outline>
    <contour>
      <point x="30" y="0" type="line"/>
      <point x="250" y="0" type="line"/>
      <point x="250" y="370" type="line"/>
      <point x="310" y="370" type="line"/>
      <point x="310" y="0" type="line"/>
      <point x="530" y="0" type="line"/>
      <point x="530" y="420" type="line"/>
      <point x="390" y="560" type="line"/>
      <point x="30" y="560" type="line"/>
    </contour>
  </outline>
</glyph>
<glyph name="q" format="2">
  <advance width="560"/>
  <unicode hex="0071"/>
  <anchor x="310" y="-140" name="bottom"/>
  <anchor x="290" y="560" name="top"/>
  <outline>
    <contour>
      <point x="530" y="560" type="line"/>
      <point x="170" y="560" type="line"/>
      <point x="30" y="420" type="line"/>
      <point x="30" y="140" type="line"/>
      <point x="170" y="0" type="line"/>
      <point x="310" y="0" type="line"/>
      <point x="310" y="-140" type="line"/>
      <point x="530" y="-140" type="line"/>
    </contour>
    <contour>
      <point x="310" y="380" type="line"/>
      <point x="310" y="180" type="line"/>
      <point x="250" y="180" type="line"/>
      <point x="250" y="380" type="line"/>
    </contour>
  </outline>
</glyph>
<glyph name="r" format="2">
  <advance width="390"/>
  <unicode hex="0072"/>
  <anchor x="150" y="0" name="bottom"/>
  <anchor x="210" y="560" name="top"/>
  <outline>
    <contour>
      <point x="30" y="0" type="line"/>
      <point x="250" y="0" type="line"/>
      <point x="250" y="360" type="line"/>
      <point x="375" y="360" type="line"/>
      <point x="375" y="560" type="line"/>
      <point x="170" y="560" type="line"/>
      <point x="30" y="420" type="line"/>
    </contour>
  </outline>
</glyph>
<glyph name="s" format="2">
  <advance width="510"/>
  <unicode hex="0073"/>
  <anchor x="275" y="560" name="top"/>
  <anchor x="235" y="0" name="bottom"/>
  <outline>
    <contour>
      <point x="30" y="0" type="line"/>
      <point x="360" y="0" type="line"/>
      <point x="480" y="120" type="line"/>
      <point x="480" y="330" type="line"/>
      <point x="250" y="330" type="line"/>
      <point x="250" y="390" type="line"/>
      <point x="480" y="390" type="line"/>
      <point x="480" y="560" type="line"/>
      <point x="150" y="560" type="line"/>
      <point x="30" y="440" type="line"/>
      <point x="30" y="230" type="line"/>
      <point x="260" y="230" type="line"/>
      <point x="260" y="170" type="line"/>
      <point x="30" y="170" type="line"/>
    </contour>
  </outline>
</glyph>
<glyph name="t" format="2">
  <advance width="400"/>
  <unicode hex="0074"/>
  <anchor x="220" y="0" name="bottom"/>
  <anchor x="230" y="700" name="top"/>
  <outline>
    <contour>
      <point x="30" y="650" type="line"/>
      <point x="30" y="140" type="line"/>
      <point x="170" y="0" type="line"/>
      <point x="380" y="0" type="line"/>
      <point x="380" y="180" type="line"/>
      <point x="250" y="180" type="line"/>
      <point x="250" y="360" type="line"/>
      <point x="380" y="360" type="line"/>
      <point x="380" y="540" type="line"/>
      <point x="250" y="540" type="line"/>
      <point x="250" y="700" type="line"/>
    </contour>
  </outline>
</glyph>
<glyph name="u" format="2">
  <advance width="560"/>
  <unicode hex="0075"/>
  <anchor x="280" y="0" name="bottom"/>
  <anchor x="440" y="0" name="ogonek"/>
  <anchor x="280" y="560" name="top"/>
  <outline>
    <contour>
      <point x="530" y="560" type="line"/>
      <point x="310" y="560" type="line"/>
      <point x="310" y="190" type="line"/>
      <point x="250" y="190" type="line"/>
      <point x="250" y="560" type="line"/>
      <point x="30" y="560" type="line"/>
      <point x="30" y="140" type="line"/>
      <point x="170" y="0" type="line"/>
      <point x="530" y="0" type="line"/>
    </contour>
  </outline>
</glyph>
<glyph name="v" format="2">
  <advance width="540"/>
  <unicode hex="0076"/>
  <anchor x="270" y="0" name="bottom"/>
  <anchor x="270" y="560" name="top"/>
  <outline>
    <contour>
      <point x="96" y="0" type="line"/>
      <point x="444" y="0" type="line"/>
      <point x="535" y="560" type="line"/>
      <point x="318" y="560" type="line"/>
      <point x="280" y="185" type="line"/>
      <point x="264" y="185" type="line"/>
      <point x="226" y="560" type="line"/>
      <point x="5" y="560" type="line"/>
    </contour>
  </outline>
</glyph>
<glyph name="w" format="2">
  <advance width="750"/>
  <unicode hex="0077"/>
  <anchor x="375" y="0" name="bottom"/>
  <anchor x="375" y="560" name="top"/>
  <outline>
    <contour>
      <point x="74" y="0" type="line"/>
      <point x="340" y="0" type="line"/>
      <point x="375" y="283" type="line"/>
      <point x="410" y="0" type="line"/>
      <point x="676" y="0" type="line"/>
      <point x="745" y="560" type="line"/>
      <point x="530" y="560" type="line"/>
      <point x="505" y="215" type="line"/>
      <point x="495" y="215" type="line"/>
      <point x="453" y="500" type="line"/>
      <point x="297" y="500" type="line"/>
      <point x="255" y="215" type="line"/>
      <point x="245" y="215" type="line"/>
      <point x="220" y="560" type="line"/>
      <point x="5" y="560" type="line"/>
    </contour>
  </outline>
</glyph>
<glyph name="x" format="2">
  <advance width="560"/>
  <unicode hex="0078"/>
  <anchor x="280" y="0" name="bottom"/>
  <anchor x="280" y="560" name="top"/>
  <outline>
    <contour>
      <point x="5" y="0" type="line"/>
      <point x="243" y="0" type="line"/>
      <point x="264" y="191" type="line"/>
      <point x="296" y="191" type="line"/>
      <point x="317" y="0" type="line"/>
      <point x="555" y="0" type="line"/>
      <point x="465" y="291" type="line"/>
      <point x="549" y="560" type="line"/>
      <point x="314" y="560" type="line"/>
      <point x="291" y="371" type="line"/>
      <point x="269" y="371" type="line"/>
      <point x="246" y="560" type="line"/>
      <point x="11" y="560" type="line"/>
      <point x="95" y="291" type="line"/>
    </contour>
  </outline>
</glyph>
<glyph name="y" format="2">
  <advance width="540"/>
  <unicode hex="0079"/>
  <anchor x="270" y="560" name="top"/>
  <anchor x="186" y="-160" name="bottom"/>
  <outline>
    <contour>
      <point x="36" y="-140" type="line"/>
      <point x="417" y="-140" type="line"/>
      <point x="535" y="560" type="line"/>
      <point x="318" y="560" type="line"/>
      <point x="283" y="250" type="line"/>
      <point x="254" y="250" type="line"/>
      <point x="224" y="560" type="line"/>
      <point x="5" y="560" type="line"/>
      <point x="86" y="80" type="line"/>
      <point x="264" y="80" type="line"/>
      <point x="259" y="40" type="line"/>
      <point x="36" y="40" type="line"/>
    </contour>
  </outline>
</glyph>
<glyph name="z" format="2">
  <advance width="435"/>
  <unicode hex="007A"/>
  <anchor x="217.5" y="0" name="bottom"/>
  <anchor x="217.5" y="560" name="top"/>
  <outline>
    <contour>
      <point x="20" y="0" type="line"/>
      <point x="415" y="0" type="line"/>
      <point x="415" y="180" type="line"/>
      <point x="260" y="180" type="line"/>
      <point x="410" y="400" type="line"/>
      <point x="410" y="560" type="line"/>
      <point x="25" y="560" type="line"/>
      <point x="25" y="380" type="line"/>
      <point x="170" y="380" type="line"/>
      <point x="20" y="160" type="line"/>
    </contour>
  </outline>
</glyph>
<glyph name="braceleft" format="2">
  <advance width="390"/>
  <unicode hex="007B"/>
  <outline>
    <contour>
      <point x="80" y="10" type="line"/>
      <point x="230" y="-140" type="line"/>
      <point x="370" y="-140" type="line"/>
      <point x="370" y="35" type="line"/>
      <point x="300" y="35" type="line"/>
      <point x="300" y="225" type="line"/>
      <point x="220" y="305" type="line"/>
      <point x="300" y="385" type="line"/>
      <point x="300" y="575" type="line"/>
      <point x="370" y="575" type="line"/>
      <point x="370" y="750" type="line"/>
      <point x="230" y="750" type="line"/>
      <point x="80" y="600" type="line"/>
      <point x="80" y="390" type="line"/>
      <point x="20" y="390" type="line"/>
      <point x="20" y="220" type="line"/>
      <point x="80" y="220" type="line"/>
    </contour>
  </outline>
</glyph>
<glyph name="asciitilde" format="2">
  <advance width="460"/>
  <unicode hex="007E"/>
  <outline>
    <contour>
      <point x="40" y="192" type="line"/>
      <point x="146" y="270" type="line"/>
      <point x="330" y="180" type="line"/>
      <point x="440" y="273" type="line"/>
      <point x="420" y="468" type="line"/>
      <point x="314" y="390" type="line"/>
      <point x="130" y="480" type="line"/>
      <point x="20" y="387" type="line"/>
    </contour>
  </outline>
</glyph>
<glyph name="cent" format="2">
  <advance width="440"/>
  <unicode hex="00A2"/>
  <outline>
    <contour>
      <point x="30" y="200" type="line"/>
      <point x="160" y="70" type="line"/>
      <point x="200" y="70" type="line"/>
      <point x="200" y="-40" type="line"/>
      <point x="350" y="-40" type="line"/>
      <point x="350" y="70" type="line"/>
      <point x="420" y="70" type="line"/>
      <point x="420" y="270" type="line"/>
      <point x="250" y="270" type="line"/>
      <point x="250" y="430" type="line"/>
      <point x="420" y="430" type="line"/>
      <point x="420" y="630" type="line"/>
      <point x="350" y="630" type="line"/>
      <point x="350" y="740" type="line"/>
      <point x="200" y="740" type="line"/>
      <point x="200" y="630" type="line"/>
      <point x="160" y="630" type="line"/>
      <point x="30" y="500" type="line"/>
    </contour>
  </outline>
</glyph>
<glyph name="sterling" format="2">
  <advance width="550"/>
  <unicode hex="00A3"/>
  <outline>
    <contour>
      <point x="430" y="250" type="line"/>
      <point x="430" y="420" type="line"/>
      <point x="310" y="420" type="line"/>
      <point x="310" y="530" type="line"/>
      <point x="356" y="530" type="line"/>
      <point x="356" y="470" type="line"/>
      <point x="520" y="470" type="line"/>
      <point x="520" y="700" type="line"/>
      <point x="180" y="700" type="line"/>
      <point x="100" y="620" type="line"/>
      <point x="100" y="420" type="line"/>
      <point x="40" y="420" type="line"/>
      <point x="40" y="250" type="line"/>
      <point x="100" y="250" type="line"/>
      <point x="100" y="180" type="line"/>
      <point x="10" y="180" type="line"/>
      <point x="10" y="0" type="line"/>
      <point x="540" y="0" type="line"/>
      <point x="540" y="180" type="line"/>
      <point x="310" y="180" type="line"/>
      <point x="310" y="250" type="line"/>
    </contour>
  </outline>
</glyph>
<glyph name="currency" format="2">
  <advance width="630"/>
  <unicode hex="00A4"/>
  <outline>
    <contour>
      <point x="105" y="270" type="line"/>
      <point x="151" y="224" type="line"/>
      <point x="16" y="0" type="line"/>
      <point x="241" y="0" type="line"/>
      <point x="294" y="160" type="line"/>
      <point x="336" y="160" type="line"/>
      <point x="389" y="0" type="line"/>
      <point x="614" y="0" type="line"/>
      <point x="479" y="224" type="line"/>
      <point x="525" y="270" type="line"/>
      <point x="525" y="430" type="line"/>
      <point x="479" y="476" type="line"/>
      <point x="614" y="700" type="line"/>
      <point x="389" y="700" type="line"/>
      <point x="336" y="540" type="line"/>
      <point x="294" y="540" type="line"/>
      <point x="241" y="700" type="line"/>
      <point x="16" y="700" type="line"/>
      <point x="151" y="476" type="line"/>
      <point x="105" y="430" type="line"/>
    </contour>
    <contour>
      <point x="285" y="300" type="line"/>
      <point x="285" y="400" type="line"/>
      <point x="345" y="400" type="line"/>
      <point x="345" y="300" type="line"/>
    </contour>
  </outline>
</glyph>
<glyph name="yen" format="2">
  <advance width="560"/>
  <unicode hex="00A5"/>
  <outline>
    <contour>
      <point x="170" y="0" type="line"/>
      <point x="390" y="0" type="line"/>
      <point x="390" y="90" type="line"/>
      <point x="530" y="90" type="line"/>
      <point x="530" y="210" type="line"/>
      <point x="390" y="210" type="line"/>
      <point x="390" y="260" type="line"/>
      <point x="530" y="260" type="line"/>
      <point x="530" y="380" type="line"/>
      <point x="461" y="380" type="line"/>
      <point x="555" y="700" type="line"/>
      <point x="320" y="700" type="line"/>
      <point x="285" y="380" type="line"/>
      <point x="275" y="380" type="line"/>
      <point x="240" y="700" type="line"/>
      <point x="5" y="700" type="line"/>
      <point x="99" y="380" type="line"/>
      <point x="30" y="380" type="line"/>
      <point x="30" y="260" type="line"/>
      <point x="170" y="260" type="line"/>
      <point x="170" y="210" type="line"/>
      <point x="30" y="210" type="line"/>
      <point x="30" y="90" type="line"/>
      <point x="170" y="90" type="line"/>
    </contour>
  </outline>
</glyph>
<glyph name="section" format="2">
  <advance width="570"/>
  <unicode hex="00A7"/>
  <outline>
    <contour>
      <point x="55" y="-100" type="line"/>
      <point x="403" y="-100" type="line"/>
      <point x="530" y="27" type="line"/>
      <point x="530" y="380" type="line"/>
      <point x="440" y="470" type="line"/>
      <point x="250" y="470" type="line"/>
      <point x="250" y="540" type="line"/>
      <point x="510" y="540" type="line"/>
      <point x="510" y="700" type="line"/>
      <point x="170" y="700" type="line"/>
      <point x="40" y="570" type="line"/>
      <point x="40" y="220" type="line"/>
      <point x="130" y="130" type="line"/>
      <point x="320" y="130" type="line"/>
      <point x="320" y="60" type="line"/>
      <point x="55" y="60" type="line"/>
    </contour>
    <contour>
      <point x="250" y="250" type="line"/>
      <point x="250" y="350" type="line"/>
      <point x="320" y="350" type="line"/>
      <point x="320" y="250" type="line"/>
    </contour>
  </outline>
</glyph>
<glyph name="dieresis" format="2">
  <advance width="410"/>
  <unicode hex="00A8"/>
  <outline>
    <contour>
      <point x="40" y="600" type="line"/>
      <point x="180" y="600" type="line"/>
      <point x="180" y="730" type="line"/>
      <point x="40" y="730" type="line"/>
    </contour>
    <contour>
      <point x="230" y="600" type="line"/>
      <point x="370" y="600" type="line"/>
      <point x="370" y="730" type="line"/>
      <point x="230" y="730" type="line"/>
    </contour>
  </outline>
</glyph>
<glyph name="ordfeminine" format="2">
  <advance width="460"/>
  <unicode hex="00AA"/>
  <outline>
    <contour>
      <point x="20" y="350" type="line"/>
      <point x="120" y="250" type="line"/>
      <point x="430" y="250" type="line"/>
      <point x="430" y="600" type="line"/>
      <point x="330" y="700" type="line"/>
      <point x="40" y="700" type="line"/>
      <point x="40" y="560" type="line"/>
      <point x="250" y="560" type="line"/>
      <point x="250" y="520" type="line"/>
      <point x="20" y="510" type="line"/>
    </contour>
    <contour>
      <point x="200" y="430" type="line"/>
      <point x="250" y="450" type="line"/>
      <point x="250" y="380" type="line"/>
      <point x="200" y="380" type="line"/>
    </contour>
  </outline>
</glyph>
<glyph name="guillemotleft" format="2">
  <advance width="620"/>
  <unicode hex="00AB"/>
  <outline>
    <contour>
      <point x="10" y="275" type="line"/>
      <point x="120" y="0" type="line"/>
      <point x="340" y="0" type="line"/>
      <point x="241" y="280" type="line"/>
      <point x="340" y="560" type="line"/>
      <point x="120" y="560" type="line"/>
      <point x="10" y="285" type="line"/>
    </contour>
    <contour>
      <point x="280" y="275" type="line"/>
      <point x="390" y="0" type="line"/>
      <point x="610" y="0" type="line"/>
      <point x="511" y="280" type="line"/>
      <point x="610" y="560" type="line"/>
      <point x="390" y="560" type="line"/>
      <point x="280" y="285" type="line"/>
    </contour>
  </outline>
</glyph>
<glyph name="logicalnot" format="2">
  <advance width="600"/>
  <unicode hex="00AC"/>
  <outline>
    <contour>
      <point x="40" y="220" type="line"/>
      <point x="360" y="220" type="line"/>
      <point x="360" y="50" type="line"/>
      <point x="560" y="50" type="line"/>
      <point x="560" y="420" type="line"/>
      <point x="40" y="420" type="line"/>
    </contour>
  </outline>
</glyph>
<glyph name="degree" format="2">
  <advance width="306"/>
  <unicode hex="00B0"/>
  <outline>
    <contour>
      <point x="10" y="501" type="line"/>
      <point x="96" y="420" type="line"/>
      <point x="210" y="420" type="line"/>
      <point x="296" y="501" type="line"/>
      <point x="296" y="619" type="line"/>
      <point x="210" y="700" type="line"/>
      <point x="96" y="700" type="line"/>
      <point x="10" y="619" type="line"/>
    </contour>
    <contour>
      <point x="114" y="520" type="line"/>
      <point x="114" y="600" type="line"/>
      <point x="192" y="600" type="line"/>
      <point x="192" y="520" type="line"/>
    </contour>
  </outline>
</glyph>
<glyph name="plusminus" format="2">
  <advance width="600"/>
  <unicode hex="00B1"/>
  <outline>
    <contour>
      <point x="40" y="335" type="line"/>
      <point x="200" y="335" type="line"/>
      <point x="200" y="190" type="line"/>
      <point x="400" y="190" type="line"/>
      <point x="400" y="335" type="line"/>
      <point x="560" y="335" type="line"/>
      <point x="560" y="505" type="line"/>
      <point x="400" y="505" type="line"/>
      <point x="400" y="650" type="line"/>
      <point x="200" y="650" type="line"/>
      <point x="200" y="505" type="line"/>
      <point x="40" y="505" type="line"/>
    </contour>
    <contour>
      <point x="40" y="0" type="line"/>
      <point x="560" y="0" type="line"/>
      <point x="560" y="170" type="line"/>
      <point x="40" y="170" type="line"/>
    </contour>
  </outline>
</glyph>
<glyph name="twosuperior" format="2">
  <advance width="420"/>
  <unicode hex="00B2"/>
  <outline>
    <contour>
      <point x="390" y="414" type="line"/>
      <point x="210" y="414" type="line"/>
      <point x="210" y="437" type="line"/>
      <point x="390" y="466" type="line"/>
      <point x="390" y="614" type="line"/>
      <point x="304" y="700" type="line"/>
      <point x="30" y="700" type="line"/>
      <point x="30" y="586" type="line"/>
      <point x="210" y="586" type="line"/>
      <point x="210" y="551" type="line"/>
      <point x="30" y="523" type="line"/>
      <point x="30" y="300" type="line"/>
      <point x="390" y="300" type="line"/>
    </contour>
  </outline>
</glyph>
<glyph name="threesuperior" format="2">
  <advance width="410"/>
  <unicode hex="00B3"/>
  <outline>
    <contour>
      <point x="314" y="300" type="line"/>
      <point x="390" y="376" type="line"/>
      <point x="390" y="463" type="line"/>
      <point x="321" y="509" type="line"/>
      <point x="376" y="545" type="line"/>
      <point x="376" y="624" type="line"/>
      <point x="300" y="700" type="line"/>
      <point x="27" y="700" type="line"/>
      <point x="27" y="586" type="line"/>
      <point x="176" y="586" type="line"/>
      <point x="176" y="551" type="line"/>
      <point x="63" y="551" type="line"/>
      <point x="63" y="454" type="line"/>
      <point x="190" y="454" type="line"/>
      <point x="190" y="414" type="line"/>
      <point x="20" y="414" type="line"/>
      <point x="20" y="300" type="line"/>
    </contour>
  </outline>
</glyph>
<glyph name="uni00B5" format="2">
  <advance width="600"/>
  <unicode hex="00B5"/>
  <outline>
    <contour>
      <point x="570" y="560" type="line"/>
      <point x="350" y="560" type="line"/>
      <point x="350" y="190" type="line"/>
      <point x="250" y="190" type="line"/>
      <point x="250" y="560" type="line"/>
      <point x="30" y="560" type="line"/>
      <point x="30" y="-160" type="line"/>
      <point x="250" y="-160" type="line"/>
      <point x="250" y="0" type="line"/>
      <point x="570" y="0" type="line"/>
    </contour>
  </outline>
</glyph>
<glyph name="paragraph" format="2">
  <advance width="640"/>
  <unicode hex="00B6"/>
  <outline>
    <contour>
      <point x="610" y="-140" type="line"/>
      <point x="610" y="700" type="line"/>
      <point x="150" y="700" type="line"/>
      <point x="20" y="570" type="line"/>
      <point x="20" y="270" type="line"/>
      <point x="140" y="150" type="line"/>
      <point x="240" y="150" type="line"/>
      <point x="240" y="-140" type="line"/>
      <point x="400" y="-140" type="line"/>
      <point x="400" y="530" type="line"/>
      <point x="450" y="530" type="line"/>
      <point x="450" y="-140" type="line"/>
    </contour>
  </outline>
</glyph>
<glyph name="cedilla" format="2">
  <advance width="310"/>
  <unicode hex="00B8"/>
  <outline>
    <contour>
      <point x="40" y="-200" type="line"/>
      <point x="190" y="-200" type="line"/>
      <point x="270" y="-50" type="line"/>
      <point x="80" y="-50" type="line"/>
    </contour>
  </outline>
</glyph>
<glyph name="ordmasculine" format="2">
  <advance width="480"/>
  <unicode hex="00BA"/>
  <outline>
    <contour>
      <point x="30" y="360" type="line"/>
      <point x="140" y="250" type="line"/>
      <point x="340" y="250" type="line"/>
      <point x="450" y="360" type="line"/>
      <point x="450" y="590" type="line"/>
      <point x="340" y="700" type="line"/>
      <point x="140" y="700" type="line"/>
      <point x="30" y="590" type="line"/>
    </contour>
    <contour>
      <point x="210" y="400" type="line"/>
      <point x="210" y="550" type="line"/>
      <point x="270" y="550" type="line"/>
      <point x="270" y="400" type="line"/>
    </contour>
  </outline>
</glyph>
<glyph name="AE" format="2">
  <advance width="715"/>
  <unicode hex="00C6"/>
  <anchor x="357.5" y="0" name="bottom"/>
  <anchor x="420" y="700" name="top"/>
  <outline>
    <contour>
      <point x="5" y="0" type="line"/>
      <point x="225" y="0" type="line"/>
      <point x="243" y="110" type="line"/>
      <point x="325" y="110" type="line"/>
      <point x="325" y="0" type="line"/>
      <point x="695" y="0" type="line"/>
      <point x="695" y="180" type="line"/>
      <point x="535" y="180" type="line"/>
      <point x="535" y="270" type="line"/>
      <point x="665" y="270" type="line"/>
      <point x="665" y="440" type="line"/>
      <point x="535" y="440" type="line"/>
      <point x="535" y="520" type="line"/>
      <point x="685" y="520" type="line"/>
      <point x="685" y="700" type="line"/>
      <point x="154" y="700" type="line"/>
    </contour>
    <contour>
      <point x="268" y="270" type="line"/>
      <point x="311" y="540" type="line"/>
      <point x="325" y="540" type="line"/>
      <point x="325" y="270" type="line"/>
    </contour>
  </outline>
</glyph>
<glyph name="Eth" format="2">
  <advance width="575"/>
  <unicode hex="00D0"/>
  <outline>
    <component base="D" xOffset="20"/>
    <contour>
      <point x="10" y="280" type="line"/>
      <point x="300" y="280" type="line"/>
      <point x="300" y="420" type="line"/>
      <point x="10" y="420" type="line"/>
    </contour>
  </outline>
</glyph>
<glyph name="Oslash" format="2">
  <advance width="550"/>
  <unicode hex="00D8"/>
  <anchor x="275" y="0" name="bottom"/>
  <anchor x="275" y="700" name="top"/>
  <outline>
    <component base="O"/>
    <contour>
      <point x="25" y="0" type="line"/>
      <point x="95" y="0" type="line"/>
      <point x="540" y="700" type="line"/>
      <point x="470" y="700" type="line"/>
    </contour>
  </outline>
</glyph>
<glyph name="Thorn" format="2">
  <advance width="550"/>
  <unicode hex="00DE"/>
  <outline>
    <contour>
      <point x="30" y="0" type="line"/>
      <point x="250" y="0" type="line"/>
      <point x="250" y="90" type="line"/>
      <point x="380" y="90" type="line"/>
      <point x="530" y="240" type="line"/>
      <point x="530" y="470" type="line"/>
      <point x="380" y="620" type="line"/>
      <point x="250" y="620" type="line"/>
      <point x="250" y="700" type="line"/>
      <point x="30" y="700" type="line"/>
    </contour>
    <contour>
      <point x="250" y="260" type="line"/>
      <point x="250" y="450" type="line"/>
      <point x="310" y="450" type="line"/>
      <point x="310" y="260" type="line"/>
    </contour>
  </outline>
</glyph>
<glyph name="germandbls" format="2">
  <advance width="620"/>
  <unicode hex="00DF"/>
  <outline>
    <contour>
      <point x="580" y="550" type="line"/>
      <point x="430" y="700" type="line"/>
      <point x="180" y="700" type="line"/>
      <point x="30" y="550" type="line"/>
      <point x="30" y="0" type="line"/>
      <point x="250" y="0" type="line"/>
      <point x="250" y="530" type="line"/>
      <point x="365" y="530" type="line"/>
      <point x="365" y="425" type="line"/>
      <point x="300" y="425" type="line"/>
      <point x="300" y="285" type="line"/>
      <point x="380" y="285" type="line"/>
      <point x="380" y="170" type="line"/>
      <point x="300" y="170" type="line"/>
      <point x="300" y="0" type="line"/>
      <point x="470" y="0" type="line"/>
      <point x="600" y="130" type="line"/>
      <point x="600" y="286" type="line"/>
      <point x="503" y="366" type="line"/>
      <point x="580" y="429" type="line"/>
    </contour>
  </outline>
</glyph>
<glyph name="ae" format="2">
  <advance width="770"/>
  <unicode hex="00E6"/>
  <anchor x="385" y="0" name="bottom"/>
  <anchor x="385" y="560" name="top"/>
  <outline>
    <contour>
      <point x="20" y="120" type="line"/>
      <point x="140" y="0" type="line"/>
      <point x="720" y="0" type="line"/>
      <point x="720" y="180" type="line"/>
      <point x="500" y="180" type="line"/>
      <point x="500" y="240" type="line"/>
      <point x="740" y="240" type="line"/>
      <point x="740" y="560" type="line"/>
      <point x="450" y="560" type="line"/>
      <point x="380" y="490" type="line"/>
      <point x="310" y="560" type="line"/>
      <point x="30" y="560" type="line"/>
      <point x="30" y="380" type="line"/>
      <point x="280" y="380" type="line"/>
      <point x="280" y="330" type="line"/>
      <point x="20" y="320" type="line"/>
    </contour>
    <contour>
      <point x="500" y="330" type="line"/>
      <point x="500" y="400" type="line"/>
      <point x="560" y="400" type="line"/>
      <point x="560" y="340" type="line"/>
    </contour>
    <contour>
      <point x="230" y="220" type="line"/>
      <point x="280" y="240" type="line"/>
      <point x="280" y="170" type="line"/>
      <point x="230" y="170" type="line"/>
    </contour>
  </outline>
</glyph>
<glyph name="eth" format="2">
  <advance width="560"/>
  <unicode hex="00F0"/>
  <outline>
    <contour>
      <point x="160" y="0" type="line"/>
      <point x="30" y="130" type="line"/>
      <point x="30" y="402" type="line"/>
      <point x="295" y="480" type="line"/>
      <point x="100" y="700" type="line"/>
      <point x="320" y="700" type="line"/>
      <point x="530" y="452" type="line"/>
      <point x="530" y="130" type="line"/>
      <point x="400" y="0" type="line"/>
    </contour>
    <contour>
      <point x="310" y="374" type="line"/>
      <point x="250" y="348" type="line"/>
      <point x="250" y="180" type="line"/>
      <point x="310" y="180" type="line"/>
    </contour>
    <contour>
      <point x="80" y="479" type="line"/>
      <point x="80" y="582" type="line"/>
      <point x="500" y="700" type="line"/>
      <point x="500" y="597" type="line"/>
    </contour>
  </outline>
</glyph>
<glyph name="divide" format="2">
  <advance width="600"/>
  <unicode hex="00F7"/>
  <outline>
    <component base="minus"/>
    <contour>
      <point x="200" y="30" type="line"/>
      <point x="400" y="30" type="line"/>
      <point x="400" y="200" type="line"/>
      <point x="200" y="200" type="line"/>
    </contour>
    <contour>
      <point x="200" y="440" type="line"/>
      <point x="400" y="440" type="line"/>
      <point x="400" y="610" type="line"/>
      <point x="200" y="610" type="line"/>
    </contour>
  </outline>
</glyph>
<glyph name="oslash" format="2">
  <advance width="600"/>
  <unicode hex="00F8"/>
  <anchor x="300" y="0" name="bottom"/>
  <anchor x="300" y="560" name="top"/>
  <outline>
    <component base="o" xOffset="20"/>
    <contour>
      <point x="40" y="0" type="line"/>
      <point x="115" y="0" type="line"/>
      <point x="560" y="560" type="line"/>
      <point x="485" y="560" type="line"/>
    </contour>
  </outline>
</glyph>
<glyph name="thorn" format="2">
  <advance width="560"/>
  <unicode hex="00FE"/>
  <anchor x="250" y="-140" name="bottom"/>
  <anchor x="250" y="700" name="top"/>
  <outline>
    <contour>
      <point x="30" y="-140" type="line"/>
      <point x="250" y="-140" type="line"/>
      <point x="250" y="0" type="line"/>
      <point x="380" y="0" type="line"/>
      <point x="530" y="150" type="line"/>
      <point x="530" y="410" type="line"/>
      <point x="380" y="560" type="line"/>
      <point x="250" y="560" type="line"/>
      <point x="250" y="700" type="line"/>
      <point x="30" y="700" type="line"/>
    </contour>
    <contour>
      <point x="250" y="180" type="line"/>
      <point x="250" y="380" type="line"/>
      <point x="310" y="380" type="line"/>
      <point x="310" y="180" type="line"/>
    </contour>
  </outline>
</glyph>
<glyph name="Dcroat" format="2">
  <advance width="575"/>
  <unicode hex="0110"/>
  <outline>
    <contour>
      <point x="270" y="190" type="line"/>
      <point x="270" y="510" type="line"/>
      <point x="330" y="510" type="line"/>
      <point x="330" y="190" type="line"/>
    </contour>
    <contour>
      <point x="50" y="0" type="line"/>
      <point x="410" y="0" type="line"/>
      <point x="550" y="140" type="line"/>
      <point x="550" y="560" type="line"/>
      <point x="410" y="700" type="line"/>
      <point x="50" y="700" type="line"/>
    </contour>
    <contour>
      <point x="10" y="280" type="line"/>
      <point x="300" y="280" type="line"/>
      <point x="300" y="420" type="line"/>
      <point x="10" y="420" type="line"/>
    </contour>
  </outline>
</glyph>
<glyph name="dcroat" format="2">
  <advance width="560"/>
  <unicode hex="0111"/>
  <anchor x="310" y="0" name="bottom"/>
  <anchor x="310" y="700" name="top"/>
  <outline>
    <contour>
      <point x="530" y="700" type="line"/>
      <point x="310" y="700" type="line"/>
      <point x="310" y="510" type="line"/>
      <point x="170" y="510" type="line"/>
      <point x="30" y="370" type="line"/>
      <point x="30" y="140" type="line"/>
      <point x="170" y="0" type="line"/>
      <point x="530" y="0" type="line"/>
    </contour>
    <contour>
      <point x="250" y="180" type="line"/>
      <point x="250" y="330" type="line"/>
      <point x="310" y="330" type="line"/>
      <point x="310" y="180" type="line"/>
    </contour>
    <contour>
      <point x="110" y="564" type="line"/>
      <point x="550" y="564" type="line"/>
      <point x="550" y="640" type="line"/>
      <point x="110" y="640" type="line"/>
    </contour>
  </outline>
</glyph>
<glyph name="Hbar" format="2">
  <advance width="560"/>
  <unicode hex="0126"/>
  <anchor x="280" y="0" name="bottom"/>
  <anchor x="280" y="700" name="top"/>
  <outline>
    <component base="H"/>
    <contour>
      <point x="5" y="544" type="line"/>
      <point x="555" y="544" type="line"/>
      <point x="555" y="620" type="line"/>
      <point x="5" y="620" type="line"/>
    </contour>
  </outline>
</glyph>
<glyph name="hbar" format="2">
  <advance width="560"/>
  <unicode hex="0127"/>
  <anchor x="250" y="700" name="top"/>
  <anchor x="300" y="0" name="bottom"/>
  <outline>
    <contour>
      <point x="30" y="0" type="line"/>
      <point x="250" y="0" type="line"/>
      <point x="250" y="330" type="line"/>
      <point x="310" y="330" type="line"/>
      <point x="310" y="0" type="line"/>
      <point x="530" y="0" type="line"/>
      <point x="530" y="370" type="line"/>
      <point x="390" y="510" type="line"/>
      <point x="250" y="510" type="line"/>
      <point x="250" y="700" type="line"/>
      <point x="30" y="700" type="line"/>
    </contour>
    <contour>
      <point x="35" y="564" type="line"/>
      <point x="445" y="564" type="line"/>
      <point x="445" y="640" type="line"/>
      <point x="35" y="640" type="line"/>
    </contour>
  </outline>
</glyph>
<glyph name="kgreenlandic" format="2">
  <advance width="570"/>
  <unicode hex="0138"/>
  <anchor x="278" y="560" name="top"/>
  <anchor x="300" y="0" name="bottom"/>
  <outline>
    <contour>
      <point x="30" y="0" type="line"/>
      <point x="250" y="0" type="line"/>
      <point x="250" y="201" type="line"/>
      <point x="284" y="201" type="line"/>
      <point x="329" y="0" type="line"/>
      <point x="560" y="0" type="line"/>
      <point x="463" y="301" type="line"/>
      <point x="552" y="560" type="line"/>
      <point x="323" y="560" type="line"/>
      <point x="279" y="381" type="line"/>
      <point x="250" y="381" type="line"/>
      <point x="250" y="560" type="line"/>
      <point x="30" y="560" type="line"/>
    </contour>
  </outline>
</glyph>
<glyph name="Lslash" format="2">
  <advance width="510"/>
  <unicode hex="0141"/>
  <anchor x="265" y="0" name="bottom"/>
  <anchor x="153" y="700" name="top"/>
  <outline>
    <component base="L"/>
    <contour>
      <point x="125" y="250" type="line"/>
      <point x="425" y="410" type="line"/>
      <point x="425" y="580" type="line"/>
      <point x="125" y="420" type="line"/>
    </contour>
  </outline>
</glyph>
<glyph name="Eng" format="2">
  <advance width="560"/>
  <unicode hex="014A"/>
  <anchor x="280" y="700" name="top"/>
  <anchor x="280" y="-160" name="bottom"/>
  <outline>
    <contour>
      <point x="30" y="0" type="line"/>
      <point x="230" y="0" type="line"/>
      <point x="230" y="315" type="line"/>
      <point x="360" y="0" type="line"/>
      <point x="360" y="-10" type="line"/>
      <point x="270" y="-10" type="line"/>
      <point x="270" y="-160" type="line"/>
      <point x="406" y="-160" type="line"/>
      <point x="530" y="-36" type="line"/>
      <point x="530" y="700" type="line"/>
      <point x="330" y="700" type="line"/>
      <point x="330" y="385" type="line"/>
      <point x="200" y="700" type="line"/>
      <point x="30" y="700" type="line"/>
    </contour>
  </outline>
</glyph>
<glyph name="eng" format="2">
  <advance width="560"/>
  <unicode hex="014B"/>
  <anchor x="280" y="560" name="top"/>
  <anchor x="280" y="-160" name="bottom"/>
  <outline>
    <contour>
      <point x="30" y="0" type="line"/>
      <point x="250" y="0" type="line"/>
      <point x="250" y="370" type="line"/>
      <point x="310" y="370" type="line"/>
      <point x="310" y="-10" type="line"/>
      <point x="270" y="-10" type="line"/>
      <point x="270" y="-160" type="line"/>
      <point x="406" y="-160" type="line"/>
      <point x="530" y="-36" type="line"/>
      <point x="530" y="420" type="line"/>
      <point x="390" y="560" type="line"/>
      <point x="30" y="560" type="line"/>
    </contour>
  </outline>
</glyph>
<glyph name="OE" format="2">
  <advance width="715"/>
  <unicode hex="0152"/>
  <anchor x="357.5" y="0" name="bottom"/>
  <anchor x="357.5" y="700" name="top"/>
  <outline>
    <contour>
      <point x="25" y="140" type="line"/>
      <point x="165" y="0" type="line"/>
      <point x="695" y="0" type="line"/>
      <point x="695" y="180" type="line"/>
      <point x="525" y="180" type="line"/>
      <point x="525" y="270" type="line"/>
      <point x="665" y="270" type="line"/>
      <point x="665" y="440" type="line"/>
      <point x="525" y="440" type="line"/>
      <point x="525" y="520" type="line"/>
      <point x="685" y="520" type="line"/>
      <point x="685" y="700" type="line"/>
      <point x="165" y="700" type="line"/>
      <point x="25" y="560" type="line"/>
    </contour>
    <contour>
      <point x="245" y="500" type="line"/>
      <point x="305" y="500" type="line"/>
      <point x="305" y="200" type="line"/>
      <point x="245" y="200" type="line"/>
    </contour>
  </outline>
</glyph>
<glyph name="oe" format="2">
  <advance width="800"/>
  <unicode hex="0153"/>
  <anchor x="400" y="0" name="bottom"/>
  <anchor x="400" y="560" name="top"/>
  <outline>
    <contour>
      <point x="30" y="130" type="line"/>
      <point x="160" y="0" type="line"/>
      <point x="400" y="0" type="line"/>
      <point x="420" y="20" type="line"/>
      <point x="440" y="0" type="line"/>
      <point x="750" y="0" type="line"/>
      <point x="750" y="180" type="line"/>
      <point x="530" y="180" type="line"/>
      <point x="530" y="240" type="line"/>
      <point x="770" y="240" type="line"/>
      <point x="770" y="560" type="line"/>
      <point x="470" y="560" type="line"/>
      <point x="420" y="510" type="line"/>
      <point x="370" y="560" type="line"/>
      <point x="160" y="560" type="line"/>
      <point x="30" y="430" type="line"/>
    </contour>
    <contour>
      <point x="250" y="170" type="line"/>
      <point x="250" y="390" type="line"/>
      <point x="310" y="390" type="line"/>
      <point x="310" y="170" type="line"/>
    </contour>
    <contour>
      <point x="530" y="330" type="line"/>
      <point x="530" y="400" type="line"/>
      <point x="590" y="400" type="line"/>
      <point x="590" y="340" type="line"/>
    </contour>
  </outline>
</glyph>
<glyph name="tcaron" format="2">
  <advance width="400"/>
  <unicode hex="0165"/>
  <anchor x="220" y="0" name="bottom"/>
  <anchor x="230" y="700" name="top"/>
  <outline>
    <component base="t"/>
    <contour>
      <point x="314" y="580" type="line"/>
      <point x="380" y="580" type="line"/>
      <point x="380" y="770" type="line"/>
      <point x="314" y="770" type="line"/>
    </contour>
  </outline>
</glyph>
<glyph name="Tbar" format="2">
  <advance width="450"/>
  <unicode hex="0166"/>
  <anchor x="225" y="0" name="bottom"/>
  <anchor x="225" y="700" name="top"/>
  <outline>
    <component base="T"/>
    <contour>
      <point x="40" y="264" type="line"/>
      <point x="410" y="264" type="line"/>
      <point x="410" y="340" type="line"/>
      <point x="40" y="340" type="line"/>
    </contour>
  </outline>
</glyph>
<glyph name="tbar" format="2">
  <advance width="400"/>
  <unicode hex="0167"/>
  <anchor x="220" y="0" name="bottom"/>
  <anchor x="230" y="700" name="top"/>
  <outline>
    <contour>
      <point x="30" y="650" type="line"/>
      <point x="30" y="140" type="line"/>
      <point x="170" y="0" type="line"/>
      <point x="380" y="0" type="line"/>
      <point x="380" y="180" type="line"/>
      <point x="250" y="180" type="line"/>
      <point x="250" y="370" type="line"/>
      <point x="380" y="370" type="line"/>
      <point x="380" y="540" type="line"/>
      <point x="250" y="540" type="line"/>
      <point x="250" y="700" type="line"/>
    </contour>
    <contour>
      <point x="5" y="240" type="line"/>
      <point x="380" y="240" type="line"/>
      <point x="380" y="316" type="line"/>
      <point x="5" y="316" type="line"/>
    </contour>
  </outline>
</glyph>
<glyph name="longs" format="2">
  <advance width="390"/>
  <unicode hex="017F"/>
  <anchor x="210" y="700" name="top"/>
  <anchor x="210" y="0" name="bottom"/>
  <outline>
    <contour>
      <point x="30" y="0" type="line"/>
      <point x="250" y="0" type="line"/>
      <point x="250" y="510" type="line"/>
      <point x="370" y="510" type="line"/>
      <point x="370" y="700" type="line"/>
      <point x="160" y="700" type="line"/>
      <point x="30" y="570" type="line"/>
    </contour>
  </outline>
</glyph>
<glyph name="uni0181" format="2">
  <advance width="755"/>
  <unicode hex="0181"/>
  <anchor x="455" y="0" name="bottom"/>
  <anchor x="455" y="700" name="top"/>
  <outline>
    <contour>
      <point x="180" y="530" type="line"/>
      <point x="215" y="530" type="line"/>
      <point x="215" y="0" type="line"/>
      <point x="605" y="0" type="line"/>
      <point x="735" y="130" type="line"/>
      <point x="735" y="296" type="line"/>
      <point x="648" y="364" type="line"/>
      <point x="715" y="430" type="line"/>
      <point x="715" y="570" type="line"/>
      <point x="585" y="700" type="line"/>
      <point x="130" y="700" type="line"/>
      <point x="10" y="580" type="line"/>
      <point x="10" y="420" type="line"/>
      <point x="180" y="420" type="line"/>
    </contour>
    <contour>
      <point x="435" y="425" type="line"/>
      <point x="435" y="530" type="line"/>
      <point x="500" y="530" type="line"/>
      <point x="500" y="425" type="line"/>
    </contour>
    <contour>
      <point x="435" y="170" type="line"/>
      <point x="435" y="285" type="line"/>
      <point x="515" y="285" type="line"/>
      <point x="515" y="170" type="line"/>
    </contour>
  </outline>
</glyph>
<glyph name="uni0189" format="2">
  <advance width="575"/>
  <unicode hex="0189"/>
  <outline>
    <contour>
      <point x="270" y="190" type="line"/>
      <point x="270" y="510" type="line"/>
      <point x="330" y="510" type="line"/>
      <point x="330" y="190" type="line"/>
    </contour>
    <contour>
      <point x="50" y="0" type="line"/>
      <point x="410" y="0" type="line"/>
      <point x="550" y="140" type="line"/>
      <point x="550" y="560" type="line"/>
      <point x="410" y="700" type="line"/>
      <point x="50" y="700" type="line"/>
    </contour>
    <contour>
      <point x="10" y="280" type="line"/>
      <point x="300" y="280" type="line"/>
      <point x="300" y="420" type="line"/>
      <point x="10" y="420" type="line"/>
    </contour>
  </outline>
</glyph>
<glyph name="uni018A" format="2">
  <advance width="740"/>
  <unicode hex="018A"/>
  <anchor x="435" y="0" name="bottom"/>
  <anchor x="435" y="700" name="top"/>
  <outline>
    <contour>
      <point x="180" y="530" type="line"/>
      <point x="215" y="530" type="line"/>
      <point x="215" y="0" type="line"/>
      <point x="575" y="0" type="line"/>
      <point x="715" y="140" type="line"/>
      <point x="715" y="560" type="line"/>
      <point x="575" y="700" type="line"/>
      <point x="130" y="700" type="line"/>
      <point x="10" y="580" type="line"/>
      <point x="10" y="420" type="line"/>
      <point x="180" y="420" type="line"/>
    </contour>
    <contour>
      <point x="435" y="190" type="line"/>
      <point x="435" y="510" type="line"/>
      <point x="495" y="510" type="line"/>
      <point x="495" y="190" type="line"/>
    </contour>
  </outline>
</glyph>
<glyph name="uni018F" format="2">
  <advance width="540"/>
  <unicode hex="018F"/>
  <anchor x="260" y="700" name="top"/>
  <anchor x="270" y="0" name="bottom"/>
  <outline>
    <contour>
      <point x="515" y="570" type="line"/>
      <point x="385" y="700" type="line"/>
      <point x="35" y="700" type="line"/>
      <point x="35" y="520" type="line"/>
      <point x="295" y="520" type="line"/>
      <point x="295" y="440" type="line"/>
      <point x="25" y="440" type="line"/>
      <point x="25" y="130" type="line"/>
      <point x="155" y="0" type="line"/>
      <point x="385" y="0" type="line"/>
      <point x="515" y="130" type="line"/>
    </contour>
    <contour>
      <point x="295" y="310" type="line"/>
      <point x="295" y="180" type="line"/>
      <point x="235" y="180" type="line"/>
      <point x="235" y="300" type="line"/>
    </contour>
  </outline>
</glyph>
<glyph name="uni0191" format="2">
  <advance width="420"/>
  <unicode hex="0191"/>
  <outline>
    <contour>
      <point x="0" y="0" type="line"/>
      <point x="140" y="0" type="line"/>
      <point x="250" y="110" type="line"/>
      <point x="250" y="210" type="line"/>
      <point x="380" y="210" type="line"/>
      <point x="380" y="400" type="line"/>
      <point x="250" y="400" type="line"/>
      <point x="250" y="500" type="line"/>
      <point x="400" y="500" type="line"/>
      <point x="400" y="700" type="line"/>
      <point x="30" y="700" type="line"/>
      <point x="30" y="190" type="line"/>
      <point x="0" y="190" type="line"/>
    </contour>
  </outline>
</glyph>
<glyph name="uni0192" format="2">
  <advance width="390"/>
  <unicode hex="0192"/>
  <outline>
    <contour>
      <point x="-10" y="-140" type="line"/>
      <point x="120" y="-140" type="line"/>
      <point x="250" y="-10" type="line"/>
      <point x="250" y="240" type="line"/>
      <point x="370" y="240" type="line"/>
      <point x="370" y="420" type="line"/>
      <point x="250" y="420" type="line"/>
      <point x="250" y="510" type="line"/>
      <point x="370" y="510" type="line"/>
      <point x="370" y="700" type="line"/>
      <point x="160" y="700" type="line"/>
      <point x="30" y="570" type="line"/>
      <point x="30" y="50" type="line"/>
      <point x="-10" y="50" type="line"/>
    </contour>
  </outline>
</glyph>
<glyph name="uni0193" format="2">
  <advance width="520"/>
  <unicode hex="0193"/>
  <outline>
    <contour>
      <point x="165" y="0" type="line"/>
      <point x="495" y="0" type="line"/>
      <point x="495" y="435" type="line"/>
      <point x="275" y="435" type="line"/>
      <point x="275" y="265" type="line"/>
      <point x="305" y="265" type="line"/>
      <point x="305" y="200" type="line"/>
      <point x="245" y="200" type="line"/>
      <point x="245" y="500" type="line"/>
      <point x="485" y="500" type="line"/>
      <point x="485" y="670" type="line"/>
      <point x="530" y="670" type="line"/>
      <point x="530" y="860" type="line"/>
      <point x="385" y="860" type="line"/>
      <point x="295" y="770" type="line"/>
      <point x="295" y="700" type="line"/>
      <point x="165" y="700" type="line"/>
      <point x="25" y="560" type="line"/>
      <point x="25" y="140" type="line"/>
    </contour>
  </outline>
</glyph>
<glyph name="uni0194" format="2">
  <advance width="550"/>
  <unicode hex="0194"/>
  <anchor x="275" y="700" name="top"/>
  <anchor x="275" y="0" name="bottom"/>
  <outline>
    <contour>
      <point x="165" y="0" type="line"/>
      <point x="385" y="0" type="line"/>
      <point x="515" y="130" type="line"/>
      <point x="515" y="285" type="line"/>
      <point x="440" y="406" type="line"/>
      <point x="550" y="700" type="line"/>
      <point x="303" y="700" type="line"/>
      <point x="281" y="455" type="line"/>
      <point x="269" y="455" type="line"/>
      <point x="247" y="700" type="line"/>
      <point x="0" y="700" type="line"/>
      <point x="110" y="406" type="line"/>
      <point x="35" y="285" type="line"/>
      <point x="35" y="130" type="line"/>
    </contour>
    <contour>
      <point x="245" y="180" type="line"/>
      <point x="245" y="257" type="line"/>
      <point x="275" y="313" type="line"/>
      <point x="305" y="257" type="line"/>
      <point x="305" y="180" type="line"/>
    </contour>
  </outline>
</glyph>
<glyph name="uni0197" format="2">
  <advance width="350"/>
  <unicode hex="0197"/>
  <anchor x="175" y="0" name="bottom"/>
  <anchor x="175" y="700" name="top"/>
  <outline>
    <contour>
      <point x="15" y="-4" type="line"/>
      <point x="175" y="4" type="line"/>
      <point x="335" y="-4" type="line"/>
      <point x="335" y="161" type="line"/>
      <point x="285" y="166" type="line"/>
      <point x="285" y="534" type="line"/>
      <point x="335" y="539" type="line"/>
      <point x="335" y="704" type="line"/>
      <point x="175" y="696" type="line"/>
      <point x="15" y="704" type="line"/>
      <point x="15" y="539" type="line"/>
      <point x="65" y="534" type="line"/>
      <point x="65" y="166" type="line"/>
      <point x="15" y="161" type="line"/>
    </contour>
    <contour>
      <point x="25" y="295" type="line"/>
      <point x="325" y="295" type="line"/>
      <point x="325" y="405" type="line"/>
      <point x="25" y="405" type="line"/>
    </contour>
  </outline>
</glyph>
<glyph name="uni0198" format="2">
  <advance width="580"/>
  <unicode hex="0198"/>
  <outline>
    <contour>
      <point x="30" y="0" type="line"/>
      <point x="250" y="0" type="line"/>
      <point x="250" y="260" type="line"/>
      <point x="270" y="260" type="line"/>
      <point x="332" y="0" type="line"/>
      <point x="580" y="0" type="line"/>
      <point x="460" y="370" type="line"/>
      <point x="565" y="700" type="line"/>
      <point x="330" y="700" type="line"/>
      <point x="275" y="450" type="line"/>
      <point x="250" y="450" type="line"/>
      <point x="250" y="540" type="line"/>
      <point x="275" y="540" type="line"/>
      <point x="275" y="700" type="line"/>
      <point x="130" y="700" type="line"/>
      <point x="30" y="600" type="line"/>
    </contour>
  </outline>
</glyph>
<glyph name="uni0199" format="2">
  <advance width="570"/>
  <unicode hex="0199"/>
  <outline>
    <contour>
      <point x="30" y="0" type="line"/>
      <point x="250" y="0" type="line"/>
      <point x="250" y="201" type="line"/>
      <point x="284" y="201" type="line"/>
      <point x="329" y="0" type="line"/>
      <point x="560" y="0" type="line"/>
      <point x="463" y="301" type="line"/>
      <point x="552" y="560" type="line"/>
      <point x="323" y="560" type="line"/>
      <point x="279" y="381" type="line"/>
      <point x="250" y="381" type="line"/>
      <point x="250" y="540" type="line"/>
      <point x="300" y="540" type="line"/>
      <point x="300" y="700" type="line"/>
      <point x="160" y="700" type="line"/>
      <point x="30" y="570" type="line"/>
    </contour>
  </outline>
</glyph>
<glyph name="uni019D" format="2">
  <advance width="560"/>
  <unicode hex="019D"/>
  <outline>
    <contour>
      <point x="0" y="0" type="line"/>
      <point x="140" y="0" type="line"/>
      <point x="230" y="90" type="line"/>
      <point x="230" y="315" type="line"/>
      <point x="360" y="0" type="line"/>
      <point x="530" y="0" type="line"/>
      <point x="530" y="700" type="line"/>
      <point x="330" y="700" type="line"/>
      <point x="330" y="385" type="line"/>
      <point x="200" y="700" type="line"/>
      <point x="30" y="700" type="line"/>
      <point x="30" y="190" type="line"/>
      <point x="0" y="190" type="line"/>
    </contour>
  </outline>
</glyph>
<glyph name="Ohorn" format="2">
  <advance width="570"/>
  <unicode hex="01A0"/>
  <anchor x="275" y="0" name="bottom"/>
  <anchor x="265" y="700" name="top"/>
  <outline>
    <contour>
      <point x="25" y="140" type="line"/>
      <point x="165" y="0" type="line"/>
      <point x="385" y="0" type="line"/>
      <point x="525" y="140" type="line"/>
      <point x="525" y="580" type="line"/>
      <point x="585" y="640" type="line"/>
      <point x="585" y="780" type="line"/>
      <point x="435" y="780" type="line"/>
      <point x="435" y="700" type="line"/>
      <point x="165" y="700" type="line"/>
      <point x="25" y="560" type="line"/>
    </contour>
    <contour>
      <point x="245" y="500" type="line"/>
      <point x="305" y="500" type="line"/>
      <point x="305" y="200" type="line"/>
      <point x="245" y="200" type="line"/>
    </contour>
  </outline>
</glyph>
<glyph name="Uhorn" format="2">
  <advance width="560"/>
  <unicode hex="01AF"/>
  <anchor x="280" y="700" name="top"/>
  <anchor x="280" y="0" name="bottom"/>
  <outline>
    <contour>
      <point x="30" y="140" type="line"/>
      <point x="170" y="0" type="line"/>
      <point x="390" y="0" type="line"/>
      <point x="530" y="140" type="line"/>
      <point x="530" y="575" type="line"/>
      <point x="595" y="640" type="line"/>
      <point x="595" y="780" type="line"/>
      <point x="445" y="780" type="line"/>
      <point x="445" y="700" type="line"/>
      <point x="310" y="700" type="line"/>
      <point x="310" y="200" type="line"/>
      <point x="250" y="200" type="line"/>
      <point x="250" y="700" type="line"/>
      <point x="30" y="700" type="line"/>
    </contour>
  </outline>
</glyph>
<glyph name="uhorn" format="2">
  <advance width="570"/>
  <unicode hex="01B0"/>
  <anchor x="285" y="560" name="top"/>
  <anchor x="285" y="0" name="bottom"/>
  <anchor x="440" y="0" name="ogonek"/>
  <outline>
    <contour>
      <point x="30" y="140" type="line"/>
      <point x="170" y="0" type="line"/>
      <point x="530" y="0" type="line"/>
      <point x="530" y="430" type="line"/>
      <point x="600" y="500" type="line"/>
      <point x="600" y="640" type="line"/>
      <point x="460" y="640" type="line"/>
      <point x="460" y="560" type="line"/>
      <point x="310" y="560" type="line"/>
      <point x="310" y="190" type="line"/>
      <point x="250" y="190" type="line"/>
      <point x="250" y="560" type="line"/>
      <point x="30" y="560" type="line"/>
    </contour>
  </outline>
</glyph>
<glyph name="uni01B2" format="2">
  <advance width="560"/>
  <unicode hex="01B2"/>
  <anchor x="280" y="700" name="top"/>
  <anchor x="280" y="0" name="bottom"/>
  <outline>
    <contour>
      <point x="170" y="0" type="line"/>
      <point x="390" y="0" type="line"/>
      <point x="530" y="140" type="line"/>
      <point x="530" y="600" type="line"/>
      <point x="430" y="700" type="line"/>
      <point x="270" y="700" type="line"/>
      <point x="270" y="510" type="line"/>
      <point x="310" y="510" type="line"/>
      <point x="310" y="200" type="line"/>
      <point x="250" y="200" type="line"/>
      <point x="250" y="700" type="line"/>
      <point x="30" y="700" type="line"/>
      <point x="30" y="140" type="line"/>
    </contour>
  </outline>
</glyph>
<glyph name="uni01B3" format="2">
  <advance width="570"/>
  <unicode hex="01B3"/>
  <outline>
    <contour>
      <point x="170" y="0" type="line"/>
      <point x="390" y="0" type="line"/>
      <point x="390" y="210" type="line"/>
      <point x="453" y="210" type="line"/>
      <point x="514" y="510" type="line"/>
      <point x="559" y="510" type="line"/>
      <point x="559" y="700" type="line"/>
      <point x="380" y="700" type="line"/>
      <point x="320" y="640" type="line"/>
      <point x="285" y="380" type="line"/>
      <point x="275" y="380" type="line"/>
      <point x="240" y="700" type="line"/>
      <point x="5" y="700" type="line"/>
      <point x="107" y="210" type="line"/>
      <point x="170" y="210" type="line"/>
    </contour>
  </outline>
</glyph>
<glyph name="uni01B4" format="2">
  <advance width="540"/>
  <unicode hex="01B4"/>
  <outline>
    <contour>
      <point x="36" y="-140" type="line"/>
      <point x="417" y="-140" type="line"/>
      <point x="520" y="540" type="line"/>
      <point x="550" y="540" type="line"/>
      <point x="550" y="700" type="line"/>
      <point x="395" y="700" type="line"/>
      <point x="325" y="630" type="line"/>
      <point x="283" y="250" type="line"/>
      <point x="254" y="250" type="line"/>
      <point x="224" y="560" type="line"/>
      <point x="5" y="560" type="line"/>
      <point x="86" y="80" type="line"/>
      <point x="264" y="80" type="line"/>
      <point x="259" y="40" type="line"/>
      <point x="36" y="40" type="line"/>
    </contour>
  </outline>
</glyph>
<glyph name="uni01B7" format="2">
  <advance width="510"/>
  <unicode hex="01B7"/>
  <outline>
    <contour>
      <point x="350" y="0" type="line"/>
      <point x="490" y="140" type="line"/>
      <point x="490" y="330" type="line"/>
      <point x="400" y="420" type="line"/>
      <point x="295" y="420" type="line"/>
      <point x="460" y="560" type="line"/>
      <point x="460" y="700" type="line"/>
      <point x="20" y="700" type="line"/>
      <point x="20" y="520" type="line"/>
      <point x="210" y="520" type="line"/>
      <point x="80" y="410" type="line"/>
      <point x="80" y="270" type="line"/>
      <point x="265" y="270" type="line"/>
      <point x="265" y="180" type="line"/>
      <point x="20" y="180" type="line"/>
      <point x="20" y="0" type="line"/>
    </contour>
  </outline>
</glyph>
<glyph name="uni01C4" format="2">
  <advance width="1040"/>
  <unicode hex="01C4"/>
  <anchor x="798" y="-0" name="bottom"/>
  <anchor x="798" y="700" name="top"/>
  <outline>
    <contour>
      <point x="250" y="190" type="line"/>
      <point x="250" y="510" type="line"/>
      <point x="310" y="510" type="line"/>
      <point x="310" y="190" type="line"/>
    </contour>
    <contour>
      <point x="30" y="0" type="line"/>
      <point x="390" y="0" type="line"/>
      <point x="530" y="140" type="line"/>
      <point x="530" y="560" type="line"/>
      <point x="390" y="700" type="line"/>
      <point x="30" y="700" type="line"/>
    </contour>
    <contour>
      <point x="575" y="0" type="line"/>
      <point x="1020" y="0" type="line"/>
      <point x="1020" y="180" type="line"/>
      <point x="820" y="180" type="line"/>
      <point x="1015" y="540" type="line"/>
      <point x="1015" y="700" type="line"/>
      <point x="580" y="700" type="line"/>
      <point x="580" y="520" type="line"/>
      <point x="770" y="520" type="line"/>
      <point x="575" y="160" type="line"/>
    </contour>
    <contour>
      <point x="948" y="910" type="line"/>
      <point x="798" y="850" type="line"/>
      <point x="648" y="910" type="line"/>
      <point x="648" y="790" type="line"/>
      <point x="798" y="730" type="line"/>
      <point x="948" y="790" type="line"/>
    </contour>
  </outline>
</glyph>
<glyph name="uni01C6" format="2">
  <advance width="995"/>
  <unicode hex="01C6"/>
  <anchor x="778" y="0" name="bottom"/>
  <anchor x="778" y="560" name="top"/>
  <outline>
    <component base="d"/>
    <contour>
      <point x="580" y="0" type="line"/>
      <point x="975" y="0" type="line"/>
      <point x="975" y="180" type="line"/>
      <point x="820" y="180" type="line"/>
      <point x="970" y="400" type="line"/>
      <point x="970" y="560" type="line"/>
      <point x="585" y="560" type="line"/>
      <point x="585" y="380" type="line"/>
      <point x="730" y="380" type="line"/>
      <point x="580" y="160" type="line"/>
    </contour>
    <contour>
      <point x="928" y="770" type="line"/>
      <point x="778" y="710" type="line"/>
      <point x="628" y="770" type="line"/>
      <point x="628" y="650" type="line"/>
      <point x="778" y="590" type="line"/>
      <point x="928" y="650" type="line"/>
    </contour>
  </outline>
</glyph>
<glyph name="uni01E4" format="2">
  <advance width="520"/>
  <unicode hex="01E4"/>
  <anchor x="310" y="700" name="top"/>
  <anchor x="310" y="0" name="bottom"/>
  <outline>
    <contour>
      <point x="25" y="140" type="line"/>
      <point x="165" y="0" type="line"/>
      <point x="495" y="0" type="line"/>
      <point x="495" y="435" type="line"/>
      <point x="270" y="435" type="line"/>
      <point x="270" y="325" type="line"/>
      <point x="305" y="325" type="line"/>
      <point x="305" y="180" type="line"/>
      <point x="245" y="180" type="line"/>
      <point x="245" y="500" type="line"/>
      <point x="485" y="500" type="line"/>
      <point x="485" y="700" type="line"/>
      <point x="165" y="700" type="line"/>
      <point x="25" y="560" type="line"/>
    </contour>
    <contour>
      <point x="270" y="214" type="line"/>
      <point x="515" y="214" type="line"/>
      <point x="515" y="290" type="line"/>
      <point x="270" y="290" type="line"/>
    </contour>
  </outline>
</glyph>
<glyph name="uni01E5" format="2">
  <advance width="560"/>
  <unicode hex="01E5"/>
  <anchor x="270" y="-160" name="bottom"/>
  <anchor x="300" y="560" name="top"/>
  <outline>
    <contour>
      <point x="60" y="-140" type="line"/>
      <point x="366" y="-140" type="line"/>
      <point x="530" y="24" type="line"/>
      <point x="530" y="560" type="line"/>
      <point x="160" y="560" type="line"/>
      <point x="30" y="430" type="line"/>
      <point x="30" y="216" type="line"/>
      <point x="90" y="156" type="line"/>
      <point x="310" y="156" type="line"/>
      <point x="310" y="30" type="line"/>
      <point x="60" y="30" type="line"/>
    </contour>
    <contour>
      <point x="250" y="380" type="line"/>
      <point x="310" y="380" type="line"/>
      <point x="310" y="270" type="line"/>
      <point x="250" y="270" type="line"/>
    </contour>
    <contour>
      <point x="90" y="60" type="line"/>
      <point x="555" y="60" type="line"/>
      <point x="555" y="126" type="line"/>
      <point x="90" y="126" type="line"/>
    </contour>
  </outline>
</glyph>
<glyph name="uni0237" format="2">
  <advance width="280"/>
  <unicode hex="0237"/>
  <anchor x="140" y="-140" name="bottom"/>
  <anchor x="140" y="560" name="top"/>
  <outline>
    <contour>
      <point x="30" y="-140" type="line"/>
      <point x="250" y="-140" type="line"/>
      <point x="250" y="560" type="line"/>
      <point x="30" y="560" type="line"/>
    </contour>
  </outline>
</glyph>
<glyph name="uni0244" format="2">
  <advance width="560"/>
  <unicode hex="0244"/>
  <anchor x="280" y="700" name="top"/>
  <anchor x="280" y="0" name="bottom"/>
  <outline>
    <component base="U"/>
    <contour>
      <point x="5" y="345" type="line"/>
      <point x="555" y="345" type="line"/>
      <point x="555" y="455" type="line"/>
      <point x="5" y="455" type="line"/>
    </contour>
  </outline>
</glyph>
<glyph name="uni0253" format="2">
  <advance width="560"/>
  <unicode hex="0253"/>
  <outline>
    <contour>
      <point x="250" y="180" type="line"/>
      <point x="250" y="350" type="line"/>
      <point x="310" y="350" type="line"/>
      <point x="310" y="180" type="line"/>
    </contour>
    <contour>
      <point x="30" y="0" type="line"/>
      <point x="390" y="0" type="line"/>
      <point x="530" y="140" type="line"/>
      <point x="530" y="360" type="line"/>
      <point x="390" y="500" type="line"/>
      <point x="250" y="500" type="line"/>
      <point x="250" y="540" type="line"/>
      <point x="300" y="540" type="line"/>
      <point x="300" y="700" type="line"/>
      <point x="160" y="700" type="line"/>
      <point x="30" y="570" type="line"/>
    </contour>
  </outline>
</glyph>
<glyph name="uni0256" format="2">
  <advance width="560"/>
  <unicode hex="0256"/>
  <outline>
    <contour>
      <point x="530" y="50" type="line"/>
      <point x="530" y="700" type="line"/>
      <point x="310" y="700" type="line"/>
      <point x="310" y="560" type="line"/>
      <point x="170" y="560" type="line"/>
      <point x="30" y="420" type="line"/>
      <point x="30" y="140" type="line"/>
      <point x="170" y="0" type="line"/>
      <point x="310" y="0" type="line"/>
      <point x="310" y="-50" type="line"/>
      <point x="400" y="-140" type="line"/>
      <point x="570" y="-140" type="line"/>
      <point x="570" y="50" type="line"/>
    </contour>
    <contour>
      <point x="250" y="380" type="line"/>
      <point x="310" y="380" type="line"/>
      <point x="310" y="180" type="line"/>
      <point x="250" y="180" type="line"/>
    </contour>
  </outline>
</glyph>
<glyph name="uni0257" format="2">
  <advance width="560"/>
  <unicode hex="0257"/>
  <outline>
    <contour>
      <point x="250" y="180" type="line"/>
      <point x="250" y="380" type="line"/>
      <point x="310" y="380" type="line"/>
      <point x="310" y="180" type="line"/>
    </contour>
    <contour>
      <point x="170" y="0" type="line"/>
      <point x="530" y="0" type="line"/>
      <point x="530" y="540" type="line"/>
      <point x="570" y="540" type="line"/>
      <point x="570" y="700" type="line"/>
      <point x="390" y="700" type="line"/>
      <point x="310" y="620" type="line"/>
      <point x="310" y="560" type="line"/>
      <point x="170" y="560" type="line"/>
      <point x="30" y="420" type="line"/>
      <point x="30" y="140" type="line"/>
    </contour>
  </outline>
</glyph>
<glyph name="uni0259" format="2">
  <advance width="520"/>
  <unicode hex="0259"/>
  <anchor x="240" y="560" name="top"/>
  <anchor x="260" y="0" name="bottom"/>
  <outline>
    <contour>
      <point x="490" y="430" type="line"/>
      <point x="360" y="560" type="line"/>
      <point x="40" y="560" type="line"/>
      <point x="40" y="380" type="line"/>
      <point x="270" y="380" type="line"/>
      <point x="270" y="320" type="line"/>
      <point x="30" y="320" type="line"/>
      <point x="30" y="130" type="line"/>
      <point x="160" y="0" type="line"/>
      <point x="360" y="0" type="line"/>
      <point x="490" y="130" type="line"/>
    </contour>
    <contour>
      <point x="270" y="230" type="line"/>
      <point x="270" y="160" type="line"/>
      <point x="210" y="160" type="line"/>
      <point x="210" y="220" type="line"/>
    </contour>
  </outline>
</glyph>
<glyph name="uni0260" format="2">
  <advance width="560"/>
  <unicode hex="0260"/>
  <outline>
    <contour>
      <point x="250" y="250" type="line"/>
      <point x="250" y="380" type="line"/>
      <point x="310" y="380" type="line"/>
      <point x="310" y="250" type="line"/>
    </contour>
    <contour>
      <point x="60" y="-140" type="line"/>
      <point x="356" y="-140" type="line"/>
      <point x="520" y="24" type="line"/>
      <point x="520" y="540" type="line"/>
      <point x="560" y="540" type="line"/>
      <point x="560" y="700" type="line"/>
      <point x="390" y="700" type="line"/>
      <point x="310" y="620" type="line"/>
      <point x="310" y="560" type="line"/>
      <point x="160" y="560" type="line"/>
      <point x="30" y="430" type="line"/>
      <point x="30" y="210" type="line"/>
      <point x="160" y="80" type="line"/>
      <point x="310" y="80" type="line"/>
      <point x="310" y="40" type="line"/>
      <point x="60" y="40" type="line"/>
    </contour>
  </outline>
</glyph>
<glyph name="uni0263" format="2">
  <advance width="550"/>
  <unicode hex="0263"/>
  <anchor x="275" y="-140" name="bottom"/>
  <anchor x="275" y="560" name="top"/>
  <outline>
    <contour>
      <point x="155" y="-140" type="line"/>
      <point x="395" y="-140" type="line"/>
      <point x="505" y="-30" type="line"/>
      <point x="505" y="145" type="line"/>
      <point x="440" y="226" type="line"/>
      <point x="550" y="560" type="line"/>
      <point x="303" y="560" type="line"/>
      <point x="283" y="305" type="line"/>
      <point x="267" y="305" type="line"/>
      <point x="247" y="560" type="line"/>
      <point x="0" y="560" type="line"/>
      <point x="110" y="226" type="line"/>
      <point x="45" y="145" type="line"/>
      <point x="45" y="-30" type="line"/>
    </contour>
    <contour>
      <point x="245" y="30" type="line"/>
      <point x="245" y="117" type="line"/>
      <point x="275" y="163" type="line"/>
      <point x="305" y="117" type="line"/>
      <point x="305" y="30" type="line"/>
    </contour>
  </outline>
</glyph>
<glyph name="uni0268" format="2">
  <advance width="280"/>
  <unicode hex="0268"/>
  <outline>
    <component base="i"/>
    <contour>
      <point x="5" y="240" type="line"/>
      <point x="275" y="240" type="line"/>
      <point x="275" y="350" type="line"/>
      <point x="5" y="350" type="line"/>
    </contour>
  </outline>
</glyph>
<glyph name="uni0272" format="2">
  <advance width="560"/>
  <unicode hex="0272"/>
  <outline>
    <contour>
      <point x="-10" y="-140" type="line"/>
      <point x="120" y="-140" type="line"/>
      <point x="250" y="-10" type="line"/>
      <point x="250" y="370" type="line"/>
      <point x="310" y="370" type="line"/>
      <point x="310" y="0" type="line"/>
      <point x="530" y="0" type="line"/>
      <point x="530" y="420" type="line"/>
      <point x="390" y="560" type="line"/>
      <point x="30" y="560" type="line"/>
      <point x="30" y="50" type="line"/>
      <point x="-10" y="50" type="line"/>
    </contour>
  </outline>
</glyph>
<glyph name="uni0289" format="2">
  <advance width="560"/>
  <unicode hex="0289"/>
  <anchor x="280" y="560" name="top"/>
  <anchor x="280" y="0" name="bottom"/>
  <anchor x="440" y="0" name="ogonek"/>
  <outline>
    <component base="u"/>
    <contour>
      <point x="5" y="290" type="line"/>
      <point x="555" y="290" type="line"/>
      <point x="555" y="400" type="line"/>
      <point x="5" y="400" type="line"/>
    </contour>
  </outline>
</glyph>
<glyph name="uni028B" format="2">
  <advance width="560"/>
  <unicode hex="028B"/>
  <outline>
    <contour>
      <point x="170" y="0" type="line"/>
      <point x="390" y="0" type="line"/>
      <point x="530" y="140" type="line"/>
      <point x="530" y="460" type="line"/>
      <point x="430" y="560" type="line"/>
      <point x="270" y="560" type="line"/>
      <point x="270" y="380" type="line"/>
      <point x="310" y="380" type="line"/>
      <point x="310" y="190" type="line"/>
      <point x="250" y="190" type="line"/>
      <point x="250" y="560" type="line"/>
      <point x="30" y="560" type="line"/>
      <point x="30" y="140" type="line"/>
    </contour>
  </outline>
</glyph>
<glyph name="uni0292" format="2">
  <advance width="500"/>
  <unicode hex="0292"/>
  <outline>
    <contour>
      <point x="345" y="-140" type="line"/>
      <point x="485" y="0" type="line"/>
      <point x="485" y="180" type="line"/>
      <point x="395" y="270" type="line"/>
      <point x="290" y="270" type="line"/>
      <point x="470" y="420" type="line"/>
      <point x="470" y="560" type="line"/>
      <point x="15" y="560" type="line"/>
      <point x="15" y="380" type="line"/>
      <point x="211" y="380" type="line"/>
      <point x="75" y="260" type="line"/>
      <point x="75" y="120" type="line"/>
      <point x="260" y="120" type="line"/>
      <point x="260" y="40" type="line"/>
      <point x="15" y="40" type="line"/>
      <point x="15" y="-140" type="line"/>
    </contour>
  </outline>
</glyph>
<glyph name="uni02BA" format="2">
  <advance width="420"/>
  <unicode hex="02BA"/>
  <outline>
    <contour>
      <point x="30" y="440" type="line"/>
      <point x="160" y="440" type="line"/>
      <point x="200" y="700" type="line"/>
      <point x="30" y="700" type="line"/>
    </contour>
    <contour>
      <point x="230" y="440" type="line"/>
      <point x="360" y="440" type="line"/>
      <point x="400" y="700" type="line"/>
      <point x="230" y="700" type="line"/>
    </contour>
  </outline>
</glyph>
<glyph name="hungarumlaut" format="2">
  <advance width="425"/>
  <unicode hex="02DD"/>
  <outline>
    <contour>
      <point x="40" y="590" type="line"/>
      <point x="140" y="590" type="line"/>
      <point x="220" y="730" type="line"/>
      <point x="80" y="730" type="line"/>
    </contour>
    <contour>
      <point x="185" y="590" type="line"/>
      <point x="285" y="590" type="line"/>
      <point x="385" y="730" type="line"/>
      <point x="245" y="730" type="line"/>
    </contour>
  </outline>
</glyph>
<glyph name="gravecomb" format="2">
  <unicode hex="0300"/>
  <anchor x="0" y="560" name="_top"/>
  <outline>
    <contour>
      <point x="120" y="600" type="line"/>
      <point x="120" y="700" type="line"/>
      <point x="-150" y="730" type="line"/>
      <point x="-150" y="600" type="line"/>
    </contour>
  </outline>
</glyph>
<glyph name="acutecomb" format="2">
  <unicode hex="0301"/>
  <anchor x="0" y="560" name="_top"/>
  <outline>
    <contour>
      <point x="-120" y="600" type="line"/>
      <point x="150" y="600" type="line"/>
      <point x="150" y="730" type="line"/>
      <point x="-120" y="700" type="line"/>
    </contour>
  </outline>
</glyph>
<glyph name="uni0302" format="2">
  <unicode hex="0302"/>
  <anchor x="0" y="560" name="_top"/>
  <outline>
    <contour>
      <point x="-150" y="590" type="line"/>
      <point x="0" y="650" type="line"/>
      <point x="150" y="590" type="line"/>
      <point x="150" y="710" type="line"/>
      <point x="0" y="770" type="line"/>
      <point x="-150" y="710" type="line"/>
    </contour>
  </outline>
</glyph>
<glyph name="tildecomb" format="2">
  <unicode hex="0303"/>
  <anchor x="0" y="560" name="_top"/>
  <anchor x="0" y="730" name="top"/>
  <outline>
    <contour>
      <point x="-140" y="570" type="line"/>
      <point x="-44" y="615" type="line"/>
      <point x="60" y="575" type="line"/>
      <point x="160" y="635" type="line"/>
      <point x="140" y="750" type="line"/>
      <point x="44" y="705" type="line"/>
      <point x="-60" y="745" type="line"/>
      <point x="-160" y="685" type="line"/>
    </contour>
  </outline>
</glyph>
<glyph name="uni0306" format="2">
  <unicode hex="0306"/>
  <anchor x="0" y="560" name="_top"/>
  <outline>
    <contour>
      <point x="30" y="740" type="line"/>
      <point x="30" y="680" type="line"/>
      <point x="-30" y="680" type="line"/>
      <point x="-30" y="740" type="line"/>
      <point x="-180" y="740" type="line"/>
      <point x="-80" y="590" type="line"/>
      <point x="80" y="590" type="line"/>
      <point x="180" y="740" type="line"/>
    </contour>
  </outline>
</glyph>
<glyph name="uni0307" format="2">
  <unicode hex="0307"/>
  <anchor x="0" y="560" name="_top"/>
  <anchor x="0" y="730" name="top"/>
  <outline>
    <contour>
      <point x="-110" y="600" type="line"/>
      <point x="110" y="600" type="line"/>
      <point x="110" y="730" type="line"/>
      <point x="-110" y="730" type="line"/>
    </contour>
  </outline>
</glyph>
<glyph name="uni0308" format="2">
  <unicode hex="0308"/>
  <anchor x="0" y="560" name="_top"/>
  <anchor x="0" y="730" name="top"/>
  <outline>
    <contour>
      <point x="-165" y="600" type="line"/>
      <point x="-25" y="600" type="line"/>
      <point x="-25" y="730" type="line"/>
      <point x="-165" y="730" type="line"/>
    </contour>
    <contour>
      <point x="25" y="600" type="line"/>
      <point x="165" y="600" type="line"/>
      <point x="165" y="730" type="line"/>
      <point x="25" y="730" type="line"/>
    </contour>
  </outline>
</glyph>
<glyph name="hookabovecomb" format="2">
  <unicode hex="0309"/>
  <anchor x="0" y="560" name="_top"/>
  <outline>
    <contour>
      <point x="-100" y="660" type="line"/>
      <point x="-10" y="660" type="line"/>
      <point x="-80" y="590" type="line"/>
      <point x="30" y="590" type="line"/>
      <point x="100" y="660" type="line"/>
      <point x="100" y="730" type="line"/>
      <point x="-100" y="730" type="line"/>
    </contour>
  </outline>
</glyph>
<glyph name="uni030B" format="2">
  <unicode hex="030B"/>
  <anchor x="0" y="560" name="_top"/>
  <outline>
    <contour>
      <point x="-135" y="590" type="line"/>
      <point x="-35" y="590" type="line"/>
      <point x="45" y="730" type="line"/>
      <point x="-95" y="730" type="line"/>
    </contour>
    <contour>
      <point x="10" y="590" type="line"/>
      <point x="110" y="590" type="line"/>
      <point x="210" y="730" type="line"/>
      <point x="70" y="730" type="line"/>
    </contour>
  </outline>
</glyph>
<glyph name="uni030F" format="2">
  <unicode hex="030F"/>
  <anchor x="-0" y="560" name="_top"/>
  <outline>
    <contour>
      <point x="95" y="730" type="line"/>
      <point x="-45" y="730" type="line"/>
      <point x="35" y="590" type="line"/>
      <point x="135" y="590" type="line"/>
    </contour>
    <contour>
      <point x="-70" y="730" type="line"/>
      <point x="-210" y="730" type="line"/>
      <point x="-110" y="590" type="line"/>
      <point x="-10" y="590" type="line"/>
    </contour>
  </outline>
</glyph>
<glyph name="uni0311" format="2">
  <unicode hex="0311"/>
  <anchor x="0" y="560" name="_top"/>
  <outline>
    <contour>
      <point x="-30" y="585" type="line"/>
      <point x="-30" y="645" type="line"/>
      <point x="30" y="645" type="line"/>
      <point x="30" y="585" type="line"/>
      <point x="180" y="585" type="line"/>
      <point x="80" y="735" type="line"/>
      <point x="-80" y="735" type="line"/>
      <point x="-180" y="585" type="line"/>
    </contour>
  </outline>
</glyph>
<glyph name="uni0312" format="2">
  <unicode hex="0312"/>
  <anchor x="0" y="560" name="_top"/>
  <outline>
    <contour>
      <point x="120" y="750" type="line"/>
      <point x="-30" y="750" type="line"/>
      <point x="-110" y="600" type="line"/>
      <point x="80" y="600" type="line"/>
    </contour>
  </outline>
</glyph>
<glyph name="uni031B" format="2">
  <unicode hex="031B"/>
  <outline>
    <contour>
      <point x="-80" y="700" type="line"/>
      <point x="-185" y="700" type="line"/>
      <point x="-185" y="540" type="line"/>
      <point x="-30" y="540" type="line"/>
      <point x="70" y="640" type="line"/>
      <point x="70" y="780" type="line"/>
      <point x="-80" y="780" type="line"/>
    </contour>
  </outline>
</glyph>
<glyph name="uni0326" format="2">
  <unicode hex="0326"/>
  <anchor x="0" y="0" name="_bottom"/>
  <outline>
    <contour>
      <point x="-115" y="-200" type="line"/>
      <point x="35" y="-200" type="line"/>
      <point x="115" y="-50" type="line"/>
      <point x="-75" y="-50" type="line"/>
    </contour>
  </outline>
</glyph>
<glyph name="uni0328" format="2">
  <unicode hex="0328"/>
  <anchor x="0" y="0" name="_bottom"/>
  <anchor x="0" y="0" name="_ogonek"/>
  <outline>
    <contour>
      <point x="95" y="-40" type="line"/>
      <point x="-55" y="-40" type="line"/>
      <point x="-135" y="-200" type="line"/>
      <point x="55" y="-200" type="line"/>
    </contour>
  </outline>
</glyph>
<glyph name="uni0375" format="2">
  <advance width="220"/>
  <unicode hex="0375"/>
  <outline>
    <contour>
      <point x="190" y="100" type="line"/>
      <point x="60" y="100" type="line"/>
      <point x="20" y="-160" type="line"/>
      <point x="190" y="-160" type="line"/>
    </contour>
  </outline>
</glyph>
<glyph name="tonos" format="2">
  <advance width="220"/>
  <unicode hex="0384"/>
  <outline>
    <contour>
      <point x="30" y="440" type="line"/>
      <point x="160" y="440" type="line"/>
      <point x="200" y="700" type="line"/>
      <point x="30" y="700" type="line"/>
    </contour>
  </outline>
</glyph>
<glyph name="Gamma" format="2">
  <advance width="390"/>
  <unicode hex="0393"/>
  <anchor x="195" y="0" name="bottom"/>
  <anchor x="195" y="700" name="top"/>
  <outline>
    <contour>
      <point x="30" y="0" type="line"/>
      <point x="260" y="0" type="line"/>
      <point x="260" y="500" type="line"/>
      <point x="380" y="500" type="line"/>
      <point x="380" y="700" type="line"/>
      <point x="30" y="700" type="line"/>
    </contour>
  </outline>
</glyph>
<glyph name="uni0394" format="2">
  <advance width="600"/>
  <unicode hex="0394"/>
  <outline>
    <contour>
      <point x="483" y="700" type="line"/>
      <point x="117" y="700" type="line"/>
      <point x="5" y="0" type="line"/>
      <point x="250" y="0" type="line"/>
      <point x="295" y="520" type="line"/>
      <point x="305" y="520" type="line"/>
      <point x="350" y="0" type="line"/>
      <point x="595" y="0" type="line"/>
    </contour>
    <contour>
      <point x="40" y="0" type="line"/>
      <point x="360" y="0" type="line"/>
      <point x="360" y="180" type="line"/>
      <point x="40" y="180" type="line"/>
    </contour>
  </outline>
</glyph>
<glyph name="Theta" format="2">
  <advance width="550"/>
  <unicode hex="0398"/>
  <anchor x="275" y="0" name="bottom"/>
  <anchor x="275" y="700" name="top"/>
  <outline>
    <contour>
      <point x="25" y="140" type="line"/>
      <point x="165" y="0" type="line"/>
      <point x="385" y="0" type="line"/>
      <point x="525" y="140" type="line"/>
      <point x="525" y="560" type="line"/>
      <point x="385" y="700" type="line"/>
      <point x="165" y="700" type="line"/>
      <point x="25" y="560" type="line"/>
    </contour>
    <contour>
      <point x="245" y="520" type="line"/>
      <point x="305" y="520" type="line"/>
      <point x="305" y="415" type="line"/>
      <point x="245" y="415" type="line"/>
    </contour>
    <contour>
      <point x="245" y="180" type="line"/>
      <point x="245" y="285" type="line"/>
      <point x="305" y="285" type="line"/>
      <point x="305" y="180" type="line"/>
    </contour>
  </outline>
</glyph>
<glyph name="Xi" format="2">
  <advance width="500"/>
  <unicode hex="039E"/>
  <anchor x="250" y="0" name="bottom"/>
  <anchor x="250" y="700" name="top"/>
  <outline>
    <contour>
      <point x="20" y="0" type="line"/>
      <point x="480" y="0" type="line"/>
      <point x="480" y="180" type="line"/>
      <point x="360" y="180" type="line"/>
      <point x="360" y="270" type="line"/>
      <point x="450" y="270" type="line"/>
      <point x="450" y="440" type="line"/>
      <point x="360" y="440" type="line"/>
      <point x="360" y="520" type="line"/>
      <point x="470" y="520" type="line"/>
      <point x="470" y="700" type="line"/>
      <point x="30" y="700" type="line"/>
      <point x="30" y="520" type="line"/>
      <point x="140" y="520" type="line"/>
      <point x="140" y="440" type="line"/>
      <point x="50" y="440" type="line"/>
      <point x="50" y="270" type="line"/>
      <point x="140" y="270" type="line"/>
      <point x="140" y="180" type="line"/>
      <point x="20" y="180" type="line"/>
    </contour>
  </outline>
</glyph>
<glyph name="Pi" format="2">
  <advance width="560"/>
  <unicode hex="03A0"/>
  <anchor x="280" y="700" name="top"/>
  <anchor x="280" y="0" name="bottom"/>
  <outline>
    <contour>
      <point x="30" y="0" type="line"/>
      <point x="250" y="0" type="line"/>
      <point x="250" y="510" type="line"/>
      <point x="310" y="510" type="line"/>
      <point x="310" y="0" type="line"/>
      <point x="530" y="0" type="line"/>
      <point x="530" y="700" type="line"/>
      <point x="30" y="700" type="line"/>
    </contour>
  </outline>
</glyph>
<glyph name="Phi" format="2">
  <advance width="730"/>
  <unicode hex="03A6"/>
  <anchor x="365" y="700" name="top"/>
  <anchor x="365" y="0" name="bottom"/>
  <outline>
    <contour>
      <point x="25" y="200" type="line"/>
      <point x="175" y="50" type="line"/>
      <point x="555" y="50" type="line"/>
      <point x="705" y="200" type="line"/>
      <point x="705" y="500" type="line"/>
      <point x="555" y="650" type="line"/>
      <point x="175" y="650" type="line"/>
      <point x="25" y="500" type="line"/>
    </contour>
    <contour>
      <point x="225" y="480" type="line"/>
      <point x="505" y="480" type="line"/>
      <point x="505" y="220" type="line"/>
      <point x="225" y="220" type="line"/>
    </contour>
    <contour>
      <point x="455" y="0" type="line"/>
      <point x="455" y="700" type="line"/>
      <point x="275" y="700" type="line"/>
      <point x="275" y="0" type="line"/>
    </contour>
  </outline>
</glyph>
<glyph name="Psi" format="2">
  <advance width="730"/>
  <unicode hex="03A8"/>
  <anchor x="365" y="0" name="bottom"/>
  <anchor x="365" y="700" name="top"/>
  <outline>
    <contour>
      <point x="175" y="160" type="line"/>
      <point x="275" y="160" type="line"/>
      <point x="275" y="0" type="line"/>
      <point x="455" y="0" type="line"/>
      <point x="455" y="160" type="line"/>
      <point x="555" y="160" type="line"/>
      <point x="705" y="310" type="line"/>
      <point x="705" y="700" type="line"/>
      <point x="505" y="700" type="line"/>
      <point x="505" y="330" type="line"/>
      <point x="455" y="330" type="line"/>
      <point x="455" y="700" type="line"/>
      <point x="275" y="700" type="line"/>
      <point x="275" y="330" type="line"/>
      <point x="225" y="330" type="line"/>
      <point x="225" y="700" type="line"/>
      <point x="25" y="700" type="line"/>
      <point x="25" y="310" type="line"/>
    </contour>
  </outline>
</glyph>
<glyph name="upsilondieresistonos" format="2">
  <advance width="560"/>
  <unicode hex="03B0"/>
  <anchor x="280" y="0" name="bottom"/>
  <anchor x="280" y="730" name="top"/>
  <outline>
    <component base="tonoscomb" xOffset="280" yOffset="170"/>
    <contour>
      <point x="530" y="560" type="line"/>
      <point x="310" y="560" type="line"/>
      <point x="310" y="190" type="line"/>
      <point x="250" y="190" type="line"/>
      <point x="250" y="560" type="line"/>
      <point x="30" y="560" type="line"/>
      <point x="30" y="130" type="line"/>
      <point x="160" y="0" type="line"/>
      <point x="400" y="0" type="line"/>
      <point x="530" y="130" type="line"/>
    </contour>
    <contour>
      <point x="115" y="600" type="line"/>
      <point x="255" y="600" type="line"/>
      <point x="255" y="730" type="line"/>
      <point x="115" y="730" type="line"/>
    </contour>
    <contour>
      <point x="305" y="600" type="line"/>
      <point x="445" y="600" type="line"/>
      <point x="445" y="730" type="line"/>
      <point x="305" y="730" type="line"/>
    </contour>
  </outline>
</glyph>
<glyph name="alpha" format="2">
  <advance width="565"/>
  <unicode hex="03B1"/>
  <anchor x="283" y="0" name="bottom"/>
  <anchor x="283" y="560" name="top"/>
  <outline>
    <contour>
      <point x="130" y="0" type="line"/>
      <point x="250" y="0" type="line"/>
      <point x="310" y="110" type="line"/>
      <point x="320" y="0" type="line"/>
      <point x="545" y="0" type="line"/>
      <point x="503" y="280" type="line"/>
      <point x="545" y="560" type="line"/>
      <point x="320" y="560" type="line"/>
      <point x="310" y="450" type="line"/>
      <point x="250" y="560" type="line"/>
      <point x="130" y="560" type="line"/>
      <point x="30" y="460" type="line"/>
      <point x="30" y="100" type="line"/>
    </contour>
    <contour>
      <point x="250" y="165" type="line"/>
      <point x="250" y="395" type="line"/>
      <point x="310" y="395" type="line"/>
      <point x="310" y="165" type="line"/>
    </contour>
  </outline>
</glyph>
<glyph name="beta" format="2">
  <advance width="620"/>
  <unicode hex="03B2"/>
  <outline>
    <contour>
      <point x="580" y="550" type="line"/>
      <point x="430" y="700" type="line"/>
      <point x="180" y="700" type="line"/>
      <point x="30" y="550" type="line"/>
      <point x="30" y="-100" type="line"/>
      <point x="250" y="-100" type="line"/>
      <point x="250" y="530" type="line"/>
      <point x="365" y="530" type="line"/>
      <point x="365" y="425" type="line"/>
      <point x="290" y="425" type="line"/>
      <point x="290" y="285" type="line"/>
      <point x="380" y="285" type="line"/>
      <point x="380" y="170" type="line"/>
      <point x="240" y="170" type="line"/>
      <point x="240" y="0" type="line"/>
      <point x="470" y="0" type="line"/>
      <point x="600" y="130" type="line"/>
      <point x="600" y="286" type="line"/>
      <point x="503" y="366" type="line"/>
      <point x="580" y="429" type="line"/>
    </contour>
  </outline>
</glyph>
<glyph name="gamma" format="2">
  <advance width="540"/>
  <unicode hex="03B3"/>
  <anchor x="270" y="-140" name="bottom"/>
  <anchor x="270" y="560" name="top"/>
  <outline>
    <contour>
      <point x="150" y="-30" type="line"/>
      <point x="150" y="-140" type="line"/>
      <point x="390" y="-140" type="line"/>
      <point x="390" y="-30" type="line"/>
      <point x="535" y="560" type="line"/>
      <point x="318" y="560" type="line"/>
      <point x="280" y="195" type="line"/>
      <point x="264" y="195" type="line"/>
      <point x="226" y="560" type="line"/>
      <point x="5" y="560" type="line"/>
    </contour>
  </outline>
</glyph>
<glyph name="delta" format="2">
  <advance width="560"/>
  <unicode hex="03B4"/>
  <anchor x="280" y="0" name="bottom"/>
  <anchor x="280" y="700" name="top"/>
  <outline>
    <contour>
      <point x="160" y="0" type="line"/>
      <point x="400" y="0" type="line"/>
      <point x="530" y="130" type="line"/>
      <point x="530" y="445" type="line"/>
      <point x="310" y="550" type="line"/>
      <point x="510" y="550" type="line"/>
      <point x="510" y="700" type="line"/>
      <point x="70" y="700" type="line"/>
      <point x="70" y="540" type="line"/>
      <point x="310" y="383" type="line"/>
      <point x="310" y="180" type="line"/>
      <point x="250" y="180" type="line"/>
      <point x="250" y="378" type="line"/>
      <point x="296" y="426" type="line"/>
      <point x="215" y="487" type="line"/>
      <point x="30" y="430" type="line"/>
      <point x="30" y="130" type="line"/>
    </contour>
  </outline>
</glyph>
<glyph name="zeta" format="2">
  <advance width="460"/>
  <unicode hex="03B6"/>
  <anchor x="230" y="-120" name="bottom"/>
  <anchor x="230" y="700" name="top"/>
  <outline>
    <contour>
      <point x="160" y="0" type="line"/>
      <point x="250" y="0" type="line"/>
      <point x="250" y="-120" type="line"/>
      <point x="440" y="-120" type="line"/>
      <point x="440" y="190" type="line"/>
      <point x="250" y="190" type="line"/>
      <point x="250" y="360" type="line"/>
      <point x="430" y="540" type="line"/>
      <point x="430" y="700" type="line"/>
      <point x="30" y="700" type="line"/>
      <point x="30" y="530" type="line"/>
      <point x="235" y="530" type="line"/>
      <point x="30" y="375" type="line"/>
      <point x="30" y="130" type="line"/>
    </contour>
  </outline>
</glyph>
<glyph name="theta" format="2">
  <advance width="510"/>
  <unicode hex="03B8"/>
  <anchor x="255" y="0" name="bottom"/>
  <anchor x="255" y="700" name="top"/>
  <outline>
    <contour>
      <point x="25" y="140" type="line"/>
      <point x="165" y="0" type="line"/>
      <point x="355" y="0" type="line"/>
      <point x="485" y="140" type="line"/>
      <point x="485" y="560" type="line"/>
      <point x="345" y="700" type="line"/>
      <point x="165" y="700" type="line"/>
      <point x="25" y="560" type="line"/>
    </contour>
    <contour>
      <point x="225" y="530" type="line"/>
      <point x="285" y="530" type="line"/>
      <point x="285" y="415" type="line"/>
      <point x="225" y="415" type="line"/>
    </contour>
    <contour>
      <point x="225" y="170" type="line"/>
      <point x="225" y="285" type="line"/>
      <point x="285" y="285" type="line"/>
      <point x="285" y="170" type="line"/>
    </contour>
  </outline>
</glyph>
<glyph name="iota" format="2">
  <advance width="310"/>
  <unicode hex="03B9"/>
  <anchor x="200" y="0" name="bottom"/>
  <anchor x="140" y="560" name="top"/>
  <outline>
    <contour>
      <point x="30" y="560" type="line"/>
      <point x="30" y="110" type="line"/>
      <point x="140" y="0" type="line"/>
      <point x="300" y="0" type="line"/>
      <point x="300" y="190" type="line"/>
      <point x="250" y="190" type="line"/>
      <point x="250" y="560" type="line"/>
    </contour>
  </outline>
</glyph>
<glyph name="lambda" format="2">
  <advance width="540"/>
  <unicode hex="03BB"/>
  <anchor x="270" y="700" name="top"/>
  <anchor x="270" y="0" name="bottom"/>
  <outline>
    <contour>
      <point x="70" y="700" type="line"/>
      <point x="70" y="540" type="line"/>
      <point x="257" y="540" type="line"/>
      <point x="266" y="480" type="line"/>
      <point x="86" y="480" type="line"/>
      <point x="5" y="0" type="line"/>
      <point x="224" y="0" type="line"/>
      <point x="254" y="320" type="line"/>
      <point x="283" y="320" type="line"/>
      <point x="318" y="0" type="line"/>
      <point x="535" y="0" type="line"/>
      <point x="417" y="700" type="line"/>
    </contour>
  </outline>
</glyph>
<glyph name="uni03BC" format="2">
  <advance width="580"/>
  <unicode hex="03BC"/>
  <outline>
    <contour>
      <point x="30" y="-160" type="line"/>
      <point x="240" y="-160" type="line"/>
      <point x="240" y="0" type="line"/>
      <point x="295" y="0" type="line"/>
      <point x="350" y="55" type="line"/>
      <point x="405" y="0" type="line"/>
      <point x="570" y="0" type="line"/>
      <point x="570" y="190" type="line"/>
      <point x="520" y="190" type="line"/>
      <point x="520" y="560" type="line"/>
      <point x="300" y="560" type="line"/>
      <point x="300" y="180" type="line"/>
      <point x="240" y="180" type="line"/>
      <point x="240" y="560" type="line"/>
      <point x="30" y="560" type="line"/>
    </contour>
  </outline>
</glyph>
<glyph name="nu" format="2">
  <advance width="540"/>
  <unicode hex="03BD"/>
  <anchor x="270" y="560" name="top"/>
  <anchor x="270" y="0" name="bottom"/>
  <outline>
    <contour>
      <point x="96" y="0" type="line"/>
      <point x="444" y="0" type="line"/>
      <point x="535" y="560" type="line"/>
      <point x="318" y="560" type="line"/>
      <point x="280" y="185" type="line"/>
      <point x="264" y="185" type="line"/>
      <point x="226" y="560" type="line"/>
      <point x="5" y="560" type="line"/>
    </contour>
  </outline>
</glyph>
<glyph name="xi" format="2">
  <advance width="440"/>
  <unicode hex="03BE"/>
  <outline>
    <contour>
      <point x="110" y="0" type="line"/>
      <point x="230" y="0" type="line"/>
      <point x="230" y="-120" type="line"/>
      <point x="420" y="-120" type="line"/>
      <point x="420" y="180" type="line"/>
      <point x="225" y="180" type="line"/>
      <point x="225" y="265" type="line"/>
      <point x="410" y="265" type="line"/>
      <point x="410" y="445" type="line"/>
      <point x="230" y="445" type="line"/>
      <point x="230" y="520" type="line"/>
      <point x="410" y="520" type="line"/>
      <point x="410" y="700" type="line"/>
      <point x="120" y="700" type="line"/>
      <point x="30" y="610" type="line"/>
      <point x="30" y="422" type="line"/>
      <point x="86" y="371" type="line"/>
      <point x="20" y="310" type="line"/>
      <point x="20" y="90" type="line"/>
    </contour>
  </outline>
</glyph>
<glyph name="omicron" format="2">
  <advance width="560"/>
  <unicode hex="03BF"/>
  <anchor x="280" y="0" name="bottom"/>
  <anchor x="280" y="560" name="top"/>
  <outline>
    <contour>
      <point x="30" y="130" type="line"/>
      <point x="160" y="0" type="line"/>
      <point x="400" y="0" type="line"/>
      <point x="530" y="130" type="line"/>
      <point x="530" y="430" type="line"/>
      <point x="400" y="560" type="line"/>
      <point x="160" y="560" type="line"/>
      <point x="30" y="430" type="line"/>
    </contour>
    <contour>
      <point x="250" y="170" type="line"/>
      <point x="250" y="390" type="line"/>
      <point x="310" y="390" type="line"/>
      <point x="310" y="170" type="line"/>
    </contour>
  </outline>
</glyph>
<glyph name="pi" format="2">
  <advance width="560"/>
  <unicode hex="03C0"/>
  <anchor x="280" y="560" name="top"/>
  <anchor x="280" y="0" name="bottom"/>
  <outline>
    <contour>
      <point x="30" y="0" type="line"/>
      <point x="250" y="0" type="line"/>
      <point x="250" y="370" type="line"/>
      <point x="310" y="370" type="line"/>
      <point x="310" y="0" type="line"/>
      <point x="530" y="0" type="line"/>
      <point x="530" y="560" type="line"/>
      <point x="30" y="560" type="line"/>
    </contour>
  </outline>
</glyph>
<glyph name="rho" format="2">
  <advance width="560"/>
  <unicode hex="03C1"/>
  <anchor x="250" y="-140" name="bottom"/>
  <anchor x="270" y="560" name="top"/>
  <outline>
    <contour>
      <point x="30" y="-140" type="line"/>
      <point x="250" y="-140" type="line"/>
      <point x="250" y="0" type="line"/>
      <point x="390" y="0" type="line"/>
      <point x="530" y="140" type="line"/>
      <point x="530" y="420" type="line"/>
      <point x="390" y="560" type="line"/>
      <point x="170" y="560" type="line"/>
      <point x="30" y="420" type="line"/>
    </contour>
    <contour>
      <point x="310" y="380" type="line"/>
      <point x="310" y="180" type="line"/>
      <point x="250" y="180" type="line"/>
      <point x="250" y="380" type="line"/>
    </contour>
  </outline>
</glyph>
<glyph name="sigma" format="2">
  <advance width="560"/>
  <unicode hex="03C3"/>
  <anchor x="280" y="560" name="top"/>
  <anchor x="280" y="0" name="bottom"/>
  <outline>
    <contour>
      <point x="30" y="130" type="line"/>
      <point x="160" y="0" type="line"/>
      <point x="400" y="0" type="line"/>
      <point x="530" y="130" type="line"/>
      <point x="530" y="320" type="line"/>
      <point x="420" y="390" type="line"/>
      <point x="540" y="390" type="line"/>
      <point x="540" y="560" type="line"/>
      <point x="160" y="560" type="line"/>
      <point x="30" y="430" type="line"/>
    </contour>
    <contour>
      <point x="250" y="170" type="line"/>
      <point x="250" y="390" type="line"/>
      <point x="310" y="390" type="line"/>
      <point x="310" y="170" type="line"/>
    </contour>
  </outline>
</glyph>
<glyph name="tau" format="2">
  <advance width="430"/>
  <unicode hex="03C4"/>
  <anchor x="210" y="0" name="bottom"/>
  <anchor x="220" y="560" name="top"/>
  <outline>
    <contour>
      <point x="90" y="120" type="line"/>
      <point x="210" y="0" type="line"/>
      <point x="410" y="0" type="line"/>
      <point x="410" y="180" type="line"/>
      <point x="310" y="180" type="line"/>
      <point x="310" y="380" type="line"/>
      <point x="410" y="380" type="line"/>
      <point x="410" y="560" type="line"/>
      <point x="55" y="560" type="line"/>
      <point x="20" y="525" type="line"/>
      <point x="20" y="380" type="line"/>
      <point x="90" y="380" type="line"/>
    </contour>
  </outline>
</glyph>
<glyph name="upsilon" format="2">
  <advance width="560"/>
  <unicode hex="03C5"/>
  <anchor x="280" y="0" name="bottom"/>
  <anchor x="280" y="560" name="top"/>
  <outline>
    <contour>
      <point x="530" y="560" type="line"/>
      <point x="310" y="560" type="line"/>
      <point x="310" y="190" type="line"/>
      <point x="250" y="190" type="line"/>
      <point x="250" y="560" type="line"/>
      <point x="30" y="560" type="line"/>
      <point x="30" y="130" type="line"/>
      <point x="160" y="0" type="line"/>
      <point x="400" y="0" type="line"/>
      <point x="530" y="130" type="line"/>
    </contour>
  </outline>
</glyph>
<glyph name="phi" format="2">
  <advance width="730"/>
  <unicode hex="03C6"/>
  <outline>
    <contour>
      <point x="30" y="130" type="line"/>
      <point x="160" y="0" type="line"/>
      <point x="570" y="0" type="line"/>
      <point x="700" y="130" type="line"/>
      <point x="700" y="440" type="line"/>
      <point x="570" y="570" type="line"/>
      <point x="160" y="570" type="line"/>
      <point x="30" y="440" type="line"/>
    </contour>
    <contour>
      <point x="230" y="410" type="line"/>
      <point x="500" y="410" type="line"/>
      <point x="500" y="160" type="line"/>
      <point x="230" y="160" type="line"/>
    </contour>
    <contour>
      <point x="450" y="-140" type="line"/>
      <point x="450" y="700" type="line"/>
      <point x="280" y="700" type="line"/>
      <point x="280" y="-140" type="line"/>
    </contour>
  </outline>
</glyph>
<glyph name="psi" format="2">
  <advance width="740"/>
  <unicode hex="03C8"/>
  <anchor x="370" y="620" name="top"/>
  <anchor x="370" y="-140" name="bottom"/>
  <outline>
    <contour>
      <point x="170" y="0" type="line"/>
      <point x="280" y="0" type="line"/>
      <point x="280" y="-140" type="line"/>
      <point x="460" y="-140" type="line"/>
      <point x="460" y="0" type="line"/>
      <point x="570" y="0" type="line"/>
      <point x="710" y="140" type="line"/>
      <point x="710" y="560" type="line"/>
      <point x="510" y="560" type="line"/>
      <point x="510" y="170" type="line"/>
      <point x="460" y="170" type="line"/>
      <point x="460" y="620" type="line"/>
      <point x="280" y="620" type="line"/>
      <point x="280" y="170" type="line"/>
      <point x="230" y="170" type="line"/>
      <point x="230" y="560" type="line"/>
      <point x="30" y="560" type="line"/>
      <point x="30" y="140" type="line"/>
    </contour>
  </outline>
</glyph>
<glyph name="omega" format="2">
  <advance width="830"/>
  <unicode hex="03C9"/>
  <anchor x="415" y="0" name="bottom"/>
  <anchor x="415" y="560" name="top"/>
  <outline>
    <contour>
      <point x="520" y="520" type="line"/>
      <point x="310" y="520" type="line"/>
      <point x="310" y="190" type="line"/>
      <point x="250" y="190" type="line"/>
      <point x="250" y="560" type="line"/>
      <point x="30" y="560" type="line"/>
      <point x="30" y="130" type="line"/>
      <point x="160" y="0" type="line"/>
      <point x="360" y="0" type="line"/>
      <point x="420" y="60" type="line"/>
      <point x="480" y="0" type="line"/>
      <point x="670" y="0" type="line"/>
      <point x="800" y="130" type="line"/>
      <point x="800" y="560" type="line"/>
      <point x="580" y="560" type="line"/>
      <point x="580" y="190" type="line"/>
      <point x="520" y="190" type="line"/>
    </contour>
  </outline>
</glyph>
<glyph name="phi1" format="2">
  <advance width="730"/>
  <unicode hex="03D5"/>
  <outline>
    <contour>
      <point x="30" y="130" type="line"/>
      <point x="160" y="0" type="line"/>
      <point x="570" y="0" type="line"/>
      <point x="700" y="130" type="line"/>
      <point x="700" y="430" type="line"/>
      <point x="570" y="560" type="line"/>
      <point x="160" y="560" type="line"/>
      <point x="30" y="430" type="line"/>
    </contour>
    <contour>
      <point x="230" y="400" type="line"/>
      <point x="500" y="400" type="line"/>
      <point x="500" y="160" type="line"/>
      <point x="230" y="160" type="line"/>
    </contour>
    <contour>
      <point x="450" y="-140" type="line"/>
      <point x="450" y="700" type="line"/>
      <point x="280" y="700" type="line"/>
      <point x="280" y="-140" type="line"/>
    </contour>
  </outline>
</glyph>
<glyph name="uni0402" format="2">
  <advance width="635"/>
  <unicode hex="0402"/>
  <anchor x="317.5" y="700" name="top"/>
  <anchor x="317.5" y="0" name="bottom"/>
  <outline>
    <contour>
      <point x="95" y="0" type="line"/>
      <point x="325" y="0" type="line"/>
      <point x="325" y="280" type="line"/>
      <point x="395" y="280" type="line"/>
      <point x="395" y="160" type="line"/>
      <point x="355" y="160" type="line"/>
      <point x="355" y="0" type="line"/>
      <point x="505" y="0" type="line"/>
      <point x="605" y="100" type="line"/>
      <point x="605" y="340" type="line"/>
      <point x="505" y="440" type="line"/>
      <point x="325" y="440" type="line"/>
      <point x="325" y="520" type="line"/>
      <point x="520" y="520" type="line"/>
      <point x="520" y="700" type="line"/>
      <point x="10" y="700" type="line"/>
      <point x="10" y="520" type="line"/>
      <point x="95" y="520" type="line"/>
    </contour>
  </outline>
</glyph>
<glyph name="uni0404" format="2">
  <advance width="485"/>
  <unicode hex="0404"/>
  <anchor x="280" y="0" name="bottom"/>
  <anchor x="280" y="700" name="top"/>
  <outline>
    <contour>
      <point x="25" y="140" type="line"/>
      <point x="165" y="0" type="line"/>
      <point x="465" y="0" type="line"/>
      <point x="465" y="185" type="line"/>
      <point x="265" y="185" type="line"/>
      <point x="265" y="515" type="line"/>
      <point x="465" y="515" type="line"/>
      <point x="465" y="700" type="line"/>
      <point x="165" y="700" type="line"/>
      <point x="25" y="560" type="line"/>
    </contour>
    <contour>
      <point x="73" y="265" type="line"/>
      <point x="423" y="265" type="line"/>
      <point x="423" y="435" type="line"/>
      <point x="73" y="435" type="line"/>
    </contour>
  </outline>
</glyph>
<glyph name="uni0409" format="2">
  <advance width="875"/>
  <unicode hex="0409"/>
  <anchor x="437.5" y="0" name="bottom"/>
  <anchor x="437.5" y="700" name="top"/>
  <outline>
    <contour>
      <point x="575" y="700" type="line"/>
      <point x="112" y="700" type="line"/>
      <point x="5" y="0" type="line"/>
      <point x="235" y="0" type="line"/>
      <point x="293" y="510" type="line"/>
      <point x="355" y="510" type="line"/>
      <point x="355" y="0" type="line"/>
      <point x="715" y="0" type="line"/>
      <point x="855" y="140" type="line"/>
      <point x="855" y="430" type="line"/>
      <point x="715" y="570" type="line"/>
      <point x="575" y="570" type="line"/>
    </contour>
    <contour>
      <point x="635" y="400" type="line"/>
      <point x="635" y="170" type="line"/>
      <point x="575" y="170" type="line"/>
      <point x="575" y="400" type="line"/>
    </contour>
  </outline>
</glyph>
<glyph name="uni040A" format="2">
  <advance width="830"/>
  <unicode hex="040A"/>
  <anchor x="415" y="700" name="top"/>
  <anchor x="415" y="0" name="bottom"/>
  <outline>
    <contour>
      <point x="30" y="0" type="line"/>
      <point x="250" y="0" type="line"/>
      <point x="250" y="260" type="line"/>
      <point x="310" y="260" type="line"/>
      <point x="310" y="0" type="line"/>
      <point x="670" y="0" type="line"/>
      <point x="810" y="140" type="line"/>
      <point x="810" y="430" type="line"/>
      <point x="670" y="570" type="line"/>
      <point x="530" y="570" type="line"/>
      <point x="530" y="700" type="line"/>
      <point x="310" y="700" type="line"/>
      <point x="310" y="460" type="line"/>
      <point x="250" y="460" type="line"/>
      <point x="250" y="700" type="line"/>
      <point x="30" y="700" type="line"/>
    </contour>
    <contour>
      <point x="590" y="400" type="line"/>
      <point x="590" y="170" type="line"/>
      <point x="530" y="170" type="line"/>
      <point x="530" y="400" type="line"/>
    </contour>
  </outline>
</glyph>
<glyph name="uni040B" format="2">
  <advance width="635"/>
  <unicode hex="040B"/>
  <anchor x="317.5" y="700" name="top"/>
  <anchor x="317.5" y="0" name="bottom"/>
  <outline>
    <contour>
      <point x="95" y="0" type="line"/>
      <point x="325" y="0" type="line"/>
      <point x="325" y="260" type="line"/>
      <point x="385" y="260" type="line"/>
      <point x="385" y="0" type="line"/>
      <point x="605" y="0" type="line"/>
      <point x="605" y="300" type="line"/>
      <point x="465" y="440" type="line"/>
      <point x="325" y="440" type="line"/>
      <point x="325" y="520" type="line"/>
      <point x="520" y="520" type="line"/>
      <point x="520" y="700" type="line"/>
      <point x="10" y="700" type="line"/>
      <point x="10" y="520" type="line"/>
      <point x="95" y="520" type="line"/>
    </contour>
  </outline>
</glyph>
<glyph name="uni040F" format="2">
  <advance width="560"/>
  <unicode hex="040F"/>
  <anchor x="280" y="700" name="bottom"/>
  <anchor x="280" y="0" name="top"/>
  <outline>
    <contour>
      <point x="530" y="700" type="line"/>
      <point x="310" y="700" type="line"/>
      <point x="310" y="190" type="line"/>
      <point x="250" y="190" type="line"/>
      <point x="250" y="700" type="line"/>
      <point x="30" y="700" type="line"/>
      <point x="30" y="0" type="line"/>
      <point x="200" y="0" type="line"/>
      <point x="200" y="-140" type="line"/>
      <point x="360" y="-140" type="line"/>
      <point x="360" y="0" type="line"/>
      <point x="530" y="0" type="line"/>
    </contour>
  </outline>
</glyph>
<glyph name="uni0411" format="2">
  <advance width="570"/>
  <unicode hex="0411"/>
  <outline>
    <contour>
      <point x="250" y="440" type="line"/>
      <point x="250" y="520" type="line"/>
      <point x="500" y="520" type="line"/>
      <point x="500" y="700" type="line"/>
      <point x="30" y="700" type="line"/>
      <point x="30" y="0" type="line"/>
      <point x="420" y="0" type="line"/>
      <point x="550" y="130" type="line"/>
      <point x="550" y="310" type="line"/>
      <point x="420" y="440" type="line"/>
    </contour>
    <contour>
      <point x="250" y="170" type="line"/>
      <point x="250" y="270" type="line"/>
      <point x="330" y="270" type="line"/>
      <point x="330" y="170" type="line"/>
    </contour>
  </outline>
</glyph>
<glyph name="uni0414" format="2">
  <advance width="660"/>
  <unicode hex="0414"/>
  <outline>
    <contour>
      <point x="15" y="-140" type="line"/>
      <point x="175" y="-140" type="line"/>
      <point x="175" y="0" type="line"/>
      <point x="485" y="0" type="line"/>
      <point x="485" y="-140" type="line"/>
      <point x="645" y="-140" type="line"/>
      <point x="645" y="190" type="line"/>
      <point x="585" y="190" type="line"/>
      <point x="585" y="700" type="line"/>
      <point x="147" y="700" type="line"/>
      <point x="65" y="190" type="line"/>
      <point x="15" y="190" type="line"/>
    </contour>
    <contour>
      <point x="288" y="170" type="line"/>
      <point x="336" y="530" type="line"/>
      <point x="365" y="530" type="line"/>
      <point x="365" y="170" type="line"/>
    </contour>
  </outline>
</glyph>
<glyph name="uni0416" format="2">
  <advance width="880"/>
  <unicode hex="0416"/>
  <anchor x="440" y="0" name="bottom"/>
  <anchor x="440" y="700" name="top"/>
  <outline>
    <contour>
      <point x="550" y="0" type="line"/>
      <point x="550" y="260" type="line"/>
      <point x="570" y="260" type="line"/>
      <point x="632" y="0" type="line"/>
      <point x="880" y="0" type="line"/>
      <point x="760" y="370" type="line"/>
      <point x="865" y="700" type="line"/>
      <point x="620" y="700" type="line"/>
      <point x="565" y="450" type="line"/>
      <point x="550" y="450" type="line"/>
      <point x="550" y="700" type="line"/>
      <point x="330" y="700" type="line"/>
      <point x="330" y="450" type="line"/>
      <point x="315" y="450" type="line"/>
      <point x="260" y="700" type="line"/>
      <point x="15" y="700" type="line"/>
      <point x="120" y="370" type="line"/>
      <point x="0" y="0" type="line"/>
      <point x="248" y="0" type="line"/>
      <point x="310" y="260" type="line"/>
      <point x="330" y="260" type="line"/>
      <point x="330" y="0" type="line"/>
    </contour>
  </outline>
</glyph>
<glyph name="uni0417" format="2">
  <advance width="495"/>
  <unicode hex="0417"/>
  <anchor x="225" y="0" name="bottom"/>
  <anchor x="225" y="700" name="top"/>
  <outline>
    <contour>
      <point x="340" y="0" type="line"/>
      <point x="480" y="140" type="line"/>
      <point x="480" y="296" type="line"/>
      <point x="393" y="366" type="line"/>
      <point x="460" y="419" type="line"/>
      <point x="460" y="560" type="line"/>
      <point x="320" y="700" type="line"/>
      <point x="25" y="700" type="line"/>
      <point x="25" y="520" type="line"/>
      <point x="235" y="520" type="line"/>
      <point x="235" y="440" type="line"/>
      <point x="60" y="440" type="line"/>
      <point x="60" y="270" type="line"/>
      <point x="255" y="270" type="line"/>
      <point x="255" y="180" type="line"/>
      <point x="20" y="180" type="line"/>
      <point x="20" y="0" type="line"/>
    </contour>
  </outline>
</glyph>
<glyph name="uni0418" format="2">
  <advance width="560"/>
  <unicode hex="0418"/>
  <anchor x="280" y="700" name="top"/>
  <anchor x="280" y="0" name="bottom"/>
  <outline>
    <contour>
      <point x="530" y="0" type="line"/>
      <point x="530" y="700" type="line"/>
      <point x="360" y="700" type="line"/>
      <point x="235" y="365" type="line"/>
      <point x="235" y="700" type="line"/>
      <point x="30" y="700" type="line"/>
      <point x="30" y="0" type="line"/>
      <point x="200" y="0" type="line"/>
      <point x="325" y="335" type="line"/>
      <point x="325" y="0" type="line"/>
    </contour>
  </outline>
</glyph>
<glyph name="uni041B" format="2">
  <advance width="605"/>
  <unicode hex="041B"/>
  <anchor x="302.5" y="700" name="top"/>
  <anchor x="302.5" y="0" name="bottom"/>
  <outline>
    <contour>
      <point x="575" y="700" type="line"/>
      <point x="112" y="700" type="line"/>
      <point x="5" y="0" type="line"/>
      <point x="235" y="0" type="line"/>
      <point x="293" y="510" type="line"/>
      <point x="355" y="510" type="line"/>
      <point x="355" y="0" type="line"/>
      <point x="575" y="0" type="line"/>
    </contour>
  </outline>
</glyph>
<glyph name="uni0426" format="2">
  <advance width="610"/>
  <unicode hex="0426"/>
  <anchor x="305" y="700" name="bottom"/>
  <anchor x="305" y="0" name="top"/>
  <outline>
    <contour>
      <point x="530" y="700" type="line"/>
      <point x="310" y="700" type="line"/>
      <point x="310" y="190" type="line"/>
      <point x="250" y="190" type="line"/>
      <point x="250" y="700" type="line"/>
      <point x="30" y="700" type="line"/>
      <point x="30" y="0" type="line"/>
      <point x="440" y="0" type="line"/>
      <point x="440" y="-140" type="line"/>
      <point x="600" y="-140" type="line"/>
      <point x="600" y="190" type="line"/>
      <point x="530" y="190" type="line"/>
    </contour>
  </outline>
</glyph>
<glyph name="uni0427" format="2">
  <advance width="560"/>
  <unicode hex="0427"/>
  <anchor x="310" y="0" name="bottom"/>
  <anchor x="260" y="700" name="top"/>
  <outline>
    <contour>
      <point x="530" y="700" type="line"/>
      <point x="310" y="700" type="line"/>
      <point x="310" y="320" type="line"/>
      <point x="250" y="320" type="line"/>
      <point x="250" y="700" type="line"/>
      <point x="30" y="700" type="line"/>
      <point x="30" y="280" type="line"/>
      <point x="170" y="140" type="line"/>
      <point x="310" y="140" type="line"/>
      <point x="310" y="0" type="line"/>
      <point x="530" y="0" type="line"/>
    </contour>
  </outline>
</glyph>
<glyph name="uni0428" format="2">
  <advance width="840"/>
  <unicode hex="0428"/>
  <outline>
    <contour>
      <point x="530" y="700" type="line"/>
      <point x="310" y="700" type="line"/>
      <point x="310" y="190" type="line"/>
      <point x="250" y="190" type="line"/>
      <point x="250" y="700" type="line"/>
      <point x="30" y="700" type="line"/>
      <point x="30" y="0" type="line"/>
      <point x="810" y="0" type="line"/>
      <point x="810" y="700" type="line"/>
      <point x="590" y="700" type="line"/>
      <point x="590" y="190" type="line"/>
      <point x="530" y="190" type="line"/>
    </contour>
  </outline>
</glyph>
<glyph name="uni042A" format="2">
  <advance width="610"/>
  <unicode hex="042A"/>
  <anchor x="305" y="0" name="bottom"/>
  <anchor x="290" y="700" name="top"/>
  <outline>
    <contour>
      <point x="370" y="400" type="line"/>
      <point x="370" y="170" type="line"/>
      <point x="310" y="170" type="line"/>
      <point x="310" y="400" type="line"/>
    </contour>
    <contour>
      <point x="590" y="430" type="line"/>
      <point x="450" y="570" type="line"/>
      <point x="310" y="570" type="line"/>
      <point x="310" y="700" type="line"/>
      <point x="10" y="700" type="line"/>
      <point x="10" y="510" type="line"/>
      <point x="130" y="510" type="line"/>
      <point x="90" y="470" type="line"/>
      <point x="90" y="0" type="line"/>
      <point x="450" y="0" type="line"/>
      <point x="590" y="140" type="line"/>
    </contour>
  </outline>
</glyph>
<glyph name="uni042B" format="2">
  <advance width="830"/>
  <unicode hex="042B"/>
  <anchor x="415" y="700" name="top"/>
  <anchor x="415" y="0" name="bottom"/>
  <outline>
    <contour>
      <point x="310" y="400" type="line"/>
      <point x="310" y="170" type="line"/>
      <point x="250" y="170" type="line"/>
      <point x="250" y="400" type="line"/>
    </contour>
    <contour>
      <point x="530" y="430" type="line"/>
      <point x="390" y="570" type="line"/>
      <point x="250" y="570" type="line"/>
      <point x="250" y="700" type="line"/>
      <point x="30" y="700" type="line"/>
      <point x="30" y="0" type="line"/>
      <point x="390" y="0" type="line"/>
      <point x="530" y="140" type="line"/>
    </contour>
    <contour>
      <point x="580" y="0" type="line"/>
      <point x="800" y="0" type="line"/>
      <point x="800" y="700" type="line"/>
      <point x="580" y="700" type="line"/>
    </contour>
  </outline>
</glyph>
<glyph name="uni042C" format="2">
  <advance width="550"/>
  <unicode hex="042C"/>
  <anchor x="230" y="700" name="top"/>
  <anchor x="275" y="0" name="bottom"/>
  <outline>
    <contour>
      <point x="310" y="400" type="line"/>
      <point x="310" y="170" type="line"/>
      <point x="250" y="170" type="line"/>
      <point x="250" y="400" type="line"/>
    </contour>
    <contour>
      <point x="530" y="430" type="line"/>
      <point x="390" y="570" type="line"/>
      <point x="250" y="570" type="line"/>
      <point x="250" y="700" type="line"/>
      <point x="30" y="700" type="line"/>
      <point x="30" y="0" type="line"/>
      <point x="390" y="0" type="line"/>
      <point x="530" y="140" type="line"/>
    </contour>
  </outline>
</glyph>
<glyph name="uni042D" format="2">
  <advance width="485"/>
  <unicode hex="042D"/>
  <anchor x="205" y="-0" name="bottom"/>
  <anchor x="205" y="700" name="top"/>
  <outline>
    <contour>
      <point x="460" y="140" type="line"/>
      <point x="320" y="0" type="line"/>
      <point x="20" y="0" type="line"/>
      <point x="20" y="185" type="line"/>
      <point x="220" y="185" type="line"/>
      <point x="220" y="515" type="line"/>
      <point x="20" y="515" type="line"/>
      <point x="20" y="700" type="line"/>
      <point x="320" y="700" type="line"/>
      <point x="460" y="560" type="line"/>
    </contour>
    <contour>
      <point x="412" y="265" type="line"/>
      <point x="62" y="265" type="line"/>
      <point x="62" y="435" type="line"/>
      <point x="412" y="435" type="line"/>
    </contour>
  </outline>
</glyph>
<glyph name="uni042E" format="2">
  <advance width="820"/>
  <unicode hex="042E"/>
  <anchor x="410" y="0" name="bottom"/>
  <anchor x="410" y="700" name="top"/>
  <outline>
    <contour>
      <point x="30" y="0" type="line"/>
      <point x="250" y="0" type="line"/>
      <point x="250" y="250" type="line"/>
      <point x="301" y="250" type="line"/>
      <point x="301" y="140" type="line"/>
      <point x="441" y="0" type="line"/>
      <point x="655" y="0" type="line"/>
      <point x="795" y="140" type="line"/>
      <point x="795" y="560" type="line"/>
      <point x="655" y="700" type="line"/>
      <point x="441" y="700" type="line"/>
      <point x="301" y="560" type="line"/>
      <point x="301" y="450" type="line"/>
      <point x="250" y="450" type="line"/>
      <point x="250" y="700" type="line"/>
      <point x="30" y="700" type="line"/>
    </contour>
    <contour>
      <point x="515" y="500" type="line"/>
      <point x="575" y="500" type="line"/>
      <point x="575" y="200" type="line"/>
      <point x="515" y="200" type="line"/>
    </contour>
  </outline>
</glyph>
<glyph name="uni0432" format="2">
  <advance width="550"/>
  <unicode hex="0432"/>
  <anchor x="275" y="560" name="top"/>
  <anchor x="275" y="0" name="bottom"/>
  <outline>
    <contour>
      <point x="30" y="560" type="line"/>
      <point x="420" y="560" type="line"/>
      <point x="510" y="470" type="line"/>
      <point x="510" y="342" type="line"/>
      <point x="454" y="296" type="line"/>
      <point x="530" y="230" type="line"/>
      <point x="530" y="90" type="line"/>
      <point x="440" y="0" type="line"/>
      <point x="30" y="0" type="line"/>
    </contour>
    <contour>
      <point x="240" y="345" type="line"/>
      <point x="305" y="345" type="line"/>
      <point x="305" y="410" type="line"/>
      <point x="240" y="410" type="line"/>
    </contour>
    <contour>
      <point x="240" y="150" type="line"/>
      <point x="315" y="150" type="line"/>
      <point x="315" y="215" type="line"/>
      <point x="240" y="215" type="line"/>
    </contour>
  </outline>
</glyph>
<glyph name="uni0433" format="2">
  <advance width="390"/>
  <unicode hex="0433"/>
  <anchor x="150" y="0" name="bottom"/>
  <anchor x="210" y="560" name="top"/>
  <outline>
    <contour>
      <point x="30" y="0" type="line"/>
      <point x="250" y="0" type="line"/>
      <point x="250" y="360" type="line"/>
      <point x="375" y="360" type="line"/>
      <point x="375" y="560" type="line"/>
      <point x="30" y="560" type="line"/>
    </contour>
  </outline>
</glyph>
<glyph name="uni0438" format="2">
  <advance width="560"/>
  <unicode hex="0438"/>
  <anchor x="280" y="0" name="bottom"/>
  <anchor x="280" y="560" name="top"/>
  <outline>
    <contour>
      <point x="530" y="0" type="line"/>
      <point x="530" y="560" type="line"/>
      <point x="360" y="560" type="line"/>
      <point x="230" y="285" type="line"/>
      <point x="230" y="560" type="line"/>
      <point x="30" y="560" type="line"/>
      <point x="30" y="0" type="line"/>
      <point x="200" y="0" type="line"/>
      <point x="330" y="275" type="line"/>
      <point x="330" y="0" type="line"/>
    </contour>
  </outline>
</glyph>
<glyph name="uni043B" format="2">
  <advance width="570"/>
  <unicode hex="043B"/>
  <anchor x="285" y="0" name="bottom"/>
  <anchor x="285" y="560" name="top"/>
  <outline>
    <contour>
      <point x="540" y="560" type="line"/>
      <point x="100" y="560" type="line"/>
      <point x="60" y="190" type="line"/>
      <point x="15" y="190" type="line"/>
      <point x="15" y="0" type="line"/>
      <point x="245" y="0" type="line"/>
      <point x="283" y="390" type="line"/>
      <point x="320" y="390" type="line"/>
      <point x="320" y="0" type="line"/>
      <point x="540" y="0" type="line"/>
    </contour>
  </outline>
</glyph>
<glyph name="uni043C" format="2">
  <advance width="628"/>
  <unicode hex="043C"/>
  <anchor x="314" y="560" name="top"/>
  <anchor x="314" y="0" name="bottom"/>
  <outline>
    <contour>
      <point x="30" y="0" type="line"/>
      <point x="220" y="0" type="line"/>
      <point x="220" y="315" type="line"/>
      <point x="274" y="80" type="line"/>
      <point x="354" y="80" type="line"/>
      <point x="408" y="315" type="line"/>
      <point x="408" y="0" type="line"/>
      <point x="598" y="0" type="line"/>
      <point x="598" y="560" type="line"/>
      <point x="364" y="560" type="line"/>
      <point x="314" y="356" type="line"/>
      <point x="264" y="560" type="line"/>
      <point x="30" y="560" type="line"/>
    </contour>
  </outline>
</glyph>
<glyph name="uni043D" format="2">
  <advance width="560"/>
  <unicode hex="043D"/>
  <anchor x="280" y="0" name="bottom"/>
  <anchor x="280" y="560" name="top"/>
  <outline>
    <contour>
      <point x="30" y="0" type="line"/>
      <point x="250" y="0" type="line"/>
      <point x="250" y="188" type="line"/>
      <point x="310" y="188" type="line"/>
      <point x="310" y="0" type="line"/>
      <point x="530" y="0" type="line"/>
      <point x="530" y="560" type="line"/>
      <point x="310" y="560" type="line"/>
      <point x="310" y="376" type="line"/>
      <point x="250" y="376" type="line"/>
      <point x="250" y="560" type="line"/>
      <point x="30" y="560" type="line"/>
    </contour>
  </outline>
</glyph>
<glyph name="uni0442" format="2">
  <advance width="500"/>
  <unicode hex="0442"/>
  <anchor x="250" y="0" name="bottom"/>
  <anchor x="250" y="560" name="top"/>
  <outline>
    <contour>
      <point x="360" y="0" type="line"/>
      <point x="140" y="0" type="line"/>
      <point x="140" y="370" type="line"/>
      <point x="15" y="370" type="line"/>
      <point x="15" y="560" type="line"/>
      <point x="485" y="560" type="line"/>
      <point x="485" y="370" type="line"/>
      <point x="360" y="370" type="line"/>
    </contour>
  </outline>
</glyph>
<glyph name="uni0447" format="2">
  <advance width="560"/>
  <unicode hex="0447"/>
  <anchor x="310" y="0" name="bottom"/>
  <anchor x="280" y="560" name="top"/>
  <outline>
    <contour>
      <point x="530" y="560" type="line"/>
      <point x="310" y="560" type="line"/>
      <point x="310" y="300" type="line"/>
      <point x="250" y="300" type="line"/>
      <point x="250" y="560" type="line"/>
      <point x="30" y="560" type="line"/>
      <point x="30" y="260" type="line"/>
      <point x="170" y="120" type="line"/>
      <point x="310" y="120" type="line"/>
      <point x="310" y="0" type="line"/>
      <point x="530" y="0" type="line"/>
    </contour>
  </outline>
</glyph>
<glyph name="uni0448" format="2">
  <advance width="840"/>
  <unicode hex="0448"/>
  <outline>
    <contour>
      <point x="530" y="560" type="line"/>
      <point x="310" y="560" type="line"/>
      <point x="310" y="190" type="line"/>
      <point x="250" y="190" type="line"/>
      <point x="250" y="560" type="line"/>
      <point x="30" y="560" type="line"/>
      <point x="30" y="0" type="line"/>
      <point x="810" y="0" type="line"/>
      <point x="810" y="560" type="line"/>
      <point x="590" y="560" type="line"/>
      <point x="590" y="190" type="line"/>
      <point x="530" y="190" type="line"/>
    </contour>
  </outline>
</glyph>
<glyph name="uni0449" format="2">
  <advance width="890"/>
  <unicode hex="0449"/>
  <outline>
    <contour>
      <point x="530" y="560" type="line"/>
      <point x="310" y="560" type="line"/>
      <point x="310" y="190" type="line"/>
      <point x="250" y="190" type="line"/>
      <point x="250" y="560" type="line"/>
      <point x="30" y="560" type="line"/>
      <point x="30" y="0" type="line"/>
      <point x="720" y="0" type="line"/>
      <point x="720" y="-140" type="line"/>
      <point x="880" y="-140" type="line"/>
      <point x="880" y="190" type="line"/>
      <point x="810" y="190" type="line"/>
      <point x="810" y="560" type="line"/>
      <point x="590" y="560" type="line"/>
      <point x="590" y="190" type="line"/>
      <point x="530" y="190" type="line"/>
    </contour>
  </outline>
</glyph>
<glyph name="uni044A" format="2">
  <advance width="640"/>
  <unicode hex="044A"/>
  <anchor x="330" y="0" name="bottom"/>
  <anchor x="330" y="560" name="top"/>
  <outline>
    <contour>
      <point x="110" y="0" type="line"/>
      <point x="490" y="0" type="line"/>
      <point x="610" y="120" type="line"/>
      <point x="610" y="320" type="line"/>
      <point x="490" y="440" type="line"/>
      <point x="330" y="440" type="line"/>
      <point x="330" y="560" type="line"/>
      <point x="10" y="560" type="line"/>
      <point x="10" y="380" type="line"/>
      <point x="170" y="380" type="line"/>
      <point x="110" y="320" type="line"/>
    </contour>
    <contour>
      <point x="330" y="160" type="line"/>
      <point x="330" y="280" type="line"/>
      <point x="390" y="280" type="line"/>
      <point x="390" y="160" type="line"/>
    </contour>
  </outline>
</glyph>
<glyph name="uni044B" format="2">
  <advance width="840"/>
  <unicode hex="044B"/>
  <anchor x="420" y="0" name="bottom"/>
  <anchor x="420" y="560" name="top"/>
  <outline>
    <contour>
      <point x="30" y="0" type="line"/>
      <point x="410" y="0" type="line"/>
      <point x="530" y="120" type="line"/>
      <point x="530" y="320" type="line"/>
      <point x="410" y="440" type="line"/>
      <point x="250" y="440" type="line"/>
      <point x="250" y="560" type="line"/>
      <point x="30" y="560" type="line"/>
    </contour>
    <contour>
      <point x="250" y="160" type="line"/>
      <point x="250" y="280" type="line"/>
      <point x="310" y="280" type="line"/>
      <point x="310" y="160" type="line"/>
    </contour>
    <contour>
      <point x="590" y="0" type="line"/>
      <point x="810" y="0" type="line"/>
      <point x="810" y="560" type="line"/>
      <point x="590" y="560" type="line"/>
    </contour>
  </outline>
</glyph>
<glyph name="uni044D" format="2">
  <advance width="490"/>
  <unicode hex="044D"/>
  <anchor x="215" y="-0" name="bottom"/>
  <anchor x="131" y="-0" name="ogonek"/>
  <anchor x="215" y="560" name="top"/>
  <outline>
    <contour>
      <point x="330" y="0" type="line"/>
      <point x="20" y="0" type="line"/>
      <point x="20" y="170" type="line"/>
      <point x="240" y="170" type="line"/>
      <point x="240" y="225" type="line"/>
      <point x="50" y="225" type="line"/>
      <point x="50" y="335" type="line"/>
      <point x="240" y="335" type="line"/>
      <point x="240" y="390" type="line"/>
      <point x="20" y="390" type="line"/>
      <point x="20" y="560" type="line"/>
      <point x="330" y="560" type="line"/>
      <point x="460" y="430" type="line"/>
      <point x="460" y="130" type="line"/>
    </contour>
  </outline>
</glyph>
<glyph name="uni044F" format="2">
  <advance width="550"/>
  <unicode hex="044F"/>
  <anchor x="295" y="560" name="top"/>
  <anchor x="275" y="0" name="bottom"/>
  <outline>
    <contour>
      <point x="250" y="300" type="line"/>
      <point x="250" y="400" type="line"/>
      <point x="300" y="400" type="line"/>
      <point x="300" y="300" type="line"/>
    </contour>
    <contour>
      <point x="30" y="268" type="line"/>
      <point x="85" y="213" type="line"/>
      <point x="0" y="0" type="line"/>
      <point x="242" y="0" type="line"/>
      <point x="266" y="150" type="line"/>
      <point x="300" y="150" type="line"/>
      <point x="300" y="0" type="line"/>
      <point x="520" y="0" type="line"/>
      <point x="520" y="560" type="line"/>
      <point x="140" y="560" type="line"/>
      <point x="30" y="450" type="line"/>
    </contour>
  </outline>
</glyph>
<glyph name="uni0452" format="2">
  <advance width="560"/>
  <unicode hex="0452"/>
  <anchor x="290" y="700" name="top"/>
  <anchor x="280" y="-160" name="bottom"/>
  <outline>
    <contour>
      <point x="30" y="0" type="line"/>
      <point x="250" y="0" type="line"/>
      <point x="250" y="330" type="line"/>
      <point x="310" y="330" type="line"/>
      <point x="310" y="-10" type="line"/>
      <point x="270" y="-10" type="line"/>
      <point x="270" y="-160" type="line"/>
      <point x="406" y="-160" type="line"/>
      <point x="530" y="-36" type="line"/>
      <point x="530" y="370" type="line"/>
      <point x="390" y="510" type="line"/>
      <point x="250" y="510" type="line"/>
      <point x="250" y="564" type="line"/>
      <point x="445" y="564" type="line"/>
      <point x="445" y="640" type="line"/>
      <point x="250" y="640" type="line"/>
      <point x="250" y="700" type="line"/>
      <point x="30" y="700" type="line"/>
    </contour>
  </outline>
</glyph>
<glyph name="uni0459" format="2">
  <advance width="850"/>
  <unicode hex="0459"/>
  <anchor x="425" y="0" name="bottom"/>
  <anchor x="425" y="560" name="top"/>
  <outline>
    <contour>
      <point x="540" y="560" type="line"/>
      <point x="45" y="560" type="line"/>
      <point x="45" y="380" type="line"/>
      <point x="82" y="380" type="line"/>
      <point x="65" y="190" type="line"/>
      <point x="15" y="190" type="line"/>
      <point x="15" y="0" type="line"/>
      <point x="250" y="0" type="line"/>
      <point x="283" y="380" type="line"/>
      <point x="320" y="380" type="line"/>
      <point x="320" y="0" type="line"/>
      <point x="700" y="0" type="line"/>
      <point x="820" y="120" type="line"/>
      <point x="820" y="320" type="line"/>
      <point x="700" y="440" type="line"/>
      <point x="540" y="440" type="line"/>
    </contour>
    <contour>
      <point x="540" y="160" type="line"/>
      <point x="540" y="280" type="line"/>
      <point x="600" y="280" type="line"/>
      <point x="600" y="160" type="line"/>
    </contour>
  </outline>
</glyph>
<glyph name="uni045A" format="2">
  <advance width="830"/>
  <unicode hex="045A"/>
  <anchor x="415" y="0" name="bottom"/>
  <anchor x="415" y="560" name="top"/>
  <outline>
    <contour>
      <point x="310" y="0" type="line"/>
      <point x="690" y="0" type="line"/>
      <point x="810" y="120" type="line"/>
      <point x="810" y="320" type="line"/>
      <point x="690" y="440" type="line"/>
      <point x="530" y="440" type="line"/>
      <point x="530" y="560" type="line"/>
      <point x="310" y="560" type="line"/>
      <point x="310" y="380" type="line"/>
      <point x="250" y="380" type="line"/>
      <point x="250" y="560" type="line"/>
      <point x="30" y="560" type="line"/>
      <point x="30" y="0" type="line"/>
      <point x="250" y="0" type="line"/>
      <point x="250" y="180" type="line"/>
      <point x="310" y="180" type="line"/>
    </contour>
    <contour>
      <point x="530" y="160" type="line"/>
      <point x="530" y="280" type="line"/>
      <point x="590" y="280" type="line"/>
      <point x="590" y="160" type="line"/>
    </contour>
  </outline>
</glyph>
<glyph name="uni0462" format="2">
  <advance width="560"/>
  <unicode hex="0462"/>
  <anchor x="300" y="0" name="bottom"/>
  <anchor x="250" y="700" name="top"/>
  <outline>
    <contour>
      <point x="30" y="0" type="line"/>
      <point x="400" y="0" type="line"/>
      <point x="530" y="130" type="line"/>
      <point x="530" y="370" type="line"/>
      <point x="390" y="510" type="line"/>
      <point x="250" y="510" type="line"/>
      <point x="250" y="564" type="line"/>
      <point x="445" y="564" type="line"/>
      <point x="445" y="640" type="line"/>
      <point x="250" y="640" type="line"/>
      <point x="250" y="700" type="line"/>
      <point x="30" y="700" type="line"/>
    </contour>
    <contour>
      <point x="250" y="170" type="line"/>
      <point x="250" y="340" type="line"/>
      <point x="310" y="340" type="line"/>
      <point x="310" y="170" type="line"/>
    </contour>
  </outline>
</glyph>
<glyph name="uni0463" format="2">
  <advance width="560"/>
  <unicode hex="0463"/>
  <anchor x="250" y="700" name="top"/>
  <anchor x="300" y="0" name="bottom"/>
  <outline>
    <contour>
      <point x="30" y="0" type="line"/>
      <point x="400" y="0" type="line"/>
      <point x="530" y="130" type="line"/>
      <point x="530" y="350" type="line"/>
      <point x="390" y="490" type="line"/>
      <point x="250" y="490" type="line"/>
      <point x="250" y="544" type="line"/>
      <point x="415" y="544" type="line"/>
      <point x="415" y="620" type="line"/>
      <point x="250" y="620" type="line"/>
      <point x="250" y="700" type="line"/>
      <point x="30" y="700" type="line"/>
    </contour>
    <contour>
      <point x="250" y="170" type="line"/>
      <point x="250" y="320" type="line"/>
      <point x="310" y="320" type="line"/>
      <point x="310" y="170" type="line"/>
    </contour>
  </outline>
</glyph>
<glyph name="uni046A" format="2">
  <advance width="880"/>
  <unicode hex="046A"/>
  <anchor x="440" y="700" name="top"/>
  <anchor x="440" y="0" name="bottom"/>
  <outline>
    <contour>
      <point x="550" y="0" type="line"/>
      <point x="550" y="260" type="line"/>
      <point x="570" y="260" type="line"/>
      <point x="632" y="0" type="line"/>
      <point x="880" y="0" type="line"/>
      <point x="760" y="370" type="line"/>
      <point x="865" y="700" type="line"/>
      <point x="15" y="700" type="line"/>
      <point x="120" y="370" type="line"/>
      <point x="0" y="0" type="line"/>
      <point x="248" y="0" type="line"/>
      <point x="310" y="260" type="line"/>
      <point x="330" y="260" type="line"/>
      <point x="330" y="0" type="line"/>
    </contour>
    <contour>
      <point x="315" y="440" type="line"/>
      <point x="293" y="520" type="line"/>
      <point x="587" y="520" type="line"/>
      <point x="565" y="440" type="line"/>
    </contour>
  </outline>
</glyph>
<glyph name="uni046B" format="2">
  <advance width="800"/>
  <unicode hex="046B"/>
  <anchor x="400" y="560" name="top"/>
  <anchor x="400" y="0" name="bottom"/>
  <outline>
    <contour>
      <point x="500" y="0" type="line"/>
      <point x="500" y="160" type="line"/>
      <point x="534" y="160" type="line"/>
      <point x="579" y="0" type="line"/>
      <point x="790" y="0" type="line"/>
      <point x="703" y="260" type="line"/>
      <point x="780" y="560" type="line"/>
      <point x="20" y="560" type="line"/>
      <point x="97" y="260" type="line"/>
      <point x="10" y="0" type="line"/>
      <point x="221" y="0" type="line"/>
      <point x="266" y="160" type="line"/>
      <point x="300" y="160" type="line"/>
      <point x="300" y="0" type="line"/>
    </contour>
    <contour>
      <point x="269" y="330" type="line"/>
      <point x="255" y="390" type="line"/>
      <point x="545" y="390" type="line"/>
      <point x="531" y="330" type="line"/>
    </contour>
  </outline>
</glyph>
<glyph name="uni0474" format="2">
  <advance width="625"/>
  <unicode hex="0474"/>
  <anchor x="312.5" y="700" name="top"/>
  <anchor x="312.5" y="0" name="bottom"/>
  <outline>
    <contour>
      <point x="112" y="0" type="line"/>
      <point x="468" y="0" type="line"/>
      <point x="546" y="510" type="line"/>
      <point x="615" y="510" type="line"/>
      <point x="615" y="700" type="line"/>
      <point x="345" y="700" type="line"/>
      <point x="297" y="190" type="line"/>
      <point x="283" y="190" type="line"/>
      <point x="235" y="700" type="line"/>
      <point x="5" y="700" type="line"/>
    </contour>
  </outline>
</glyph>
<glyph name="uni0475" format="2">
  <advance width="605"/>
  <unicode hex="0475"/>
  <anchor x="302.5" y="0" name="bottom"/>
  <anchor x="302.5" y="560" name="top"/>
  <outline>
    <contour>
      <point x="96" y="0" type="line"/>
      <point x="444" y="0" type="line"/>
      <point x="504" y="370" type="line"/>
      <point x="595" y="370" type="line"/>
      <point x="595" y="560" type="line"/>
      <point x="318" y="560" type="line"/>
      <point x="280" y="185" type="line"/>
      <point x="264" y="185" type="line"/>
      <point x="226" y="560" type="line"/>
      <point x="5" y="560" type="line"/>
    </contour>
  </outline>
</glyph>
<glyph name="uni0491" format="2">
  <advance width="390"/>
  <unicode hex="0491"/>
  <anchor x="150" y="0" name="bottom"/>
  <anchor x="304" y="690" name="top"/>
  <outline>
    <contour>
      <point x="30" y="0" type="line"/>
      <point x="250" y="0" type="line"/>
      <point x="250" y="360" type="line"/>
      <point x="375" y="360" type="line"/>
      <point x="375" y="690" type="line"/>
      <point x="185" y="690" type="line"/>
      <point x="185" y="560" type="line"/>
      <point x="30" y="560" type="line"/>
    </contour>
  </outline>
</glyph>
<glyph name="uni0492" format="2">
  <advance width="390"/>
  <unicode hex="0492"/>
  <anchor x="195" y="0" name="bottom"/>
  <anchor x="195" y="700" name="top"/>
  <outline>
    <component base="Gamma"/>
    <contour>
      <point x="40" y="220" type="line"/>
      <point x="360" y="220" type="line"/>
      <point x="360" y="370" type="line"/>
      <point x="40" y="370" type="line"/>
    </contour>
  </outline>
</glyph>
<glyph name="uni0493" format="2">
  <advance width="390"/>
  <unicode hex="0493"/>
  <outline>
    <component base="uni0433"/>
    <contour>
      <point x="5" y="140" type="line"/>
      <point x="325" y="140" type="line"/>
      <point x="325" y="290" type="line"/>
      <point x="5" y="290" type="line"/>
    </contour>
  </outline>
</glyph>
<glyph name="uni0494" format="2">
  <advance width="560"/>
  <unicode hex="0494"/>
  <anchor x="280" y="700" name="top"/>
  <anchor x="280" y="0" name="bottom"/>
  <outline>
    <contour>
      <point x="30" y="0" type="line"/>
      <point x="260" y="0" type="line"/>
      <point x="260" y="210" type="line"/>
      <point x="330" y="210" type="line"/>
      <point x="330" y="40" type="line"/>
      <point x="280" y="40" type="line"/>
      <point x="280" y="-140" type="line"/>
      <point x="430" y="-140" type="line"/>
      <point x="530" y="-40" type="line"/>
      <point x="530" y="290" type="line"/>
      <point x="430" y="390" type="line"/>
      <point x="260" y="390" type="line"/>
      <point x="260" y="520" type="line"/>
      <point x="520" y="520" type="line"/>
      <point x="520" y="700" type="line"/>
      <point x="30" y="700" type="line"/>
    </contour>
  </outline>
</glyph>
<glyph name="uni0495" format="2">
  <advance width="550"/>
  <unicode hex="0495"/>
  <anchor x="275" y="560" name="top"/>
  <anchor x="275" y="-140" name="bottom"/>
  <outline>
    <contour>
      <point x="30" y="0" type="line"/>
      <point x="260" y="0" type="line"/>
      <point x="260" y="160" type="line"/>
      <point x="320" y="160" type="line"/>
      <point x="320" y="40" type="line"/>
      <point x="280" y="40" type="line"/>
      <point x="280" y="-140" type="line"/>
      <point x="420" y="-140" type="line"/>
      <point x="520" y="-40" type="line"/>
      <point x="520" y="220" type="line"/>
      <point x="420" y="320" type="line"/>
      <point x="260" y="320" type="line"/>
      <point x="260" y="380" type="line"/>
      <point x="510" y="380" type="line"/>
      <point x="510" y="560" type="line"/>
      <point x="30" y="560" type="line"/>
    </contour>
  </outline>
</glyph>
<glyph name="uni0496" format="2">
  <advance width="930"/>
  <unicode hex="0496"/>
  <anchor x="465" y="-0" name="bottom"/>
  <anchor x="465" y="700" name="top"/>
  <outline>
    <contour>
      <point x="550" y="0" type="line"/>
      <point x="550" y="260" type="line"/>
      <point x="570" y="260" type="line"/>
      <point x="632" y="0" type="line"/>
      <point x="760" y="0" type="line"/>
      <point x="760" y="-140" type="line"/>
      <point x="920" y="-140" type="line"/>
      <point x="920" y="190" type="line"/>
      <point x="818" y="190" type="line"/>
      <point x="760" y="370" type="line"/>
      <point x="865" y="700" type="line"/>
      <point x="620" y="700" type="line"/>
      <point x="565" y="450" type="line"/>
      <point x="550" y="450" type="line"/>
      <point x="550" y="700" type="line"/>
      <point x="330" y="700" type="line"/>
      <point x="330" y="450" type="line"/>
      <point x="315" y="450" type="line"/>
      <point x="260" y="700" type="line"/>
      <point x="15" y="700" type="line"/>
      <point x="120" y="370" type="line"/>
      <point x="0" y="0" type="line"/>
      <point x="248" y="0" type="line"/>
      <point x="310" y="260" type="line"/>
      <point x="330" y="260" type="line"/>
      <point x="330" y="0" type="line"/>
    </contour>
  </outline>
</glyph>
<glyph name="uni0497" format="2">
  <advance width="910"/>
  <unicode hex="0497"/>
  <anchor x="455" y="0" name="bottom"/>
  <anchor x="455" y="560" name="top"/>
  <outline>
    <contour>
      <point x="540" y="0" type="line"/>
      <point x="540" y="201" type="line"/>
      <point x="574" y="201" type="line"/>
      <point x="619" y="0" type="line"/>
      <point x="740" y="0" type="line"/>
      <point x="740" y="-140" type="line"/>
      <point x="900" y="-140" type="line"/>
      <point x="900" y="190" type="line"/>
      <point x="789" y="190" type="line"/>
      <point x="753" y="301" type="line"/>
      <point x="840" y="560" type="line"/>
      <point x="612" y="560" type="line"/>
      <point x="571" y="381" type="line"/>
      <point x="540" y="381" type="line"/>
      <point x="540" y="560" type="line"/>
      <point x="320" y="560" type="line"/>
      <point x="320" y="381" type="line"/>
      <point x="289" y="381" type="line"/>
      <point x="248" y="560" type="line"/>
      <point x="20" y="560" type="line"/>
      <point x="107" y="301" type="line"/>
      <point x="10" y="0" type="line"/>
      <point x="241" y="0" type="line"/>
      <point x="286" y="201" type="line"/>
      <point x="320" y="201" type="line"/>
      <point x="320" y="0" type="line"/>
    </contour>
  </outline>
</glyph>
<glyph name="uni0499" format="2">
  <advance width="480"/>
  <unicode hex="0499"/>
  <anchor x="215" y="560" name="top"/>
  <anchor x="215" y="0" name="bottom"/>
  <outline>
    <contour>
      <point x="460" y="90" type="line"/>
      <point x="460" y="230" type="line"/>
      <point x="384" y="296" type="line"/>
      <point x="440" y="342" type="line"/>
      <point x="440" y="470" type="line"/>
      <point x="350" y="560" type="line"/>
      <point x="30" y="560" type="line"/>
      <point x="30" y="390" type="line"/>
      <point x="215" y="390" type="line"/>
      <point x="215" y="345" type="line"/>
      <point x="40" y="345" type="line"/>
      <point x="40" y="215" type="line"/>
      <point x="225" y="215" type="line"/>
      <point x="225" y="170" type="line"/>
      <point x="20" y="170" type="line"/>
      <point x="20" y="0" type="line"/>
      <point x="160" y="0" type="line"/>
      <point x="160" y="-140" type="line"/>
      <point x="320" y="-140" type="line"/>
      <point x="320" y="0" type="line"/>
      <point x="370" y="0" type="line"/>
    </contour>
  </outline>
</glyph>
<glyph name="uni049A" format="2">
  <advance width="630"/>
  <unicode hex="049A"/>
  <anchor x="290" y="700" name="top"/>
  <anchor x="290" y="0" name="bottom"/>
  <outline>
    <contour>
      <point x="30" y="0" type="line"/>
      <point x="250" y="0" type="line"/>
      <point x="250" y="260" type="line"/>
      <point x="270" y="260" type="line"/>
      <point x="332" y="0" type="line"/>
      <point x="460" y="0" type="line"/>
      <point x="460" y="-140" type="line"/>
      <point x="620" y="-140" type="line"/>
      <point x="620" y="190" type="line"/>
      <point x="518" y="190" type="line"/>
      <point x="460" y="370" type="line"/>
      <point x="565" y="700" type="line"/>
      <point x="320" y="700" type="line"/>
      <point x="265" y="450" type="line"/>
      <point x="250" y="450" type="line"/>
      <point x="250" y="700" type="line"/>
      <point x="30" y="700" type="line"/>
    </contour>
  </outline>
</glyph>
<glyph name="uni049C" format="2">
  <advance width="660"/>
  <unicode hex="049C"/>
  <anchor x="290" y="0" name="bottom"/>
  <anchor x="290" y="700" name="top"/>
  <outline>
    <contour>
      <point x="30" y="0" type="line"/>
      <point x="250" y="0" type="line"/>
      <point x="250" y="260" type="line"/>
      <point x="376" y="260" type="line"/>
      <point x="427" y="0" type="line"/>
      <point x="660" y="0" type="line"/>
      <point x="550" y="370" type="line"/>
      <point x="645" y="700" type="line"/>
      <point x="415" y="700" type="line"/>
      <point x="371" y="450" type="line"/>
      <point x="250" y="450" type="line"/>
      <point x="250" y="700" type="line"/>
      <point x="30" y="700" type="line"/>
    </contour>
    <contour>
      <point x="356" y="120" type="line"/>
      <point x="356" y="590" type="line"/>
      <point x="280" y="590" type="line"/>
      <point x="280" y="120" type="line"/>
    </contour>
  </outline>
</glyph>
<glyph name="uni049D" format="2">
  <advance width="640"/>
  <unicode hex="049D"/>
  <anchor x="308" y="560" name="top"/>
  <anchor x="330" y="0" name="bottom"/>
  <outline>
    <contour>
      <point x="30" y="0" type="line"/>
      <point x="250" y="0" type="line"/>
      <point x="250" y="201" type="line"/>
      <point x="370" y="201" type="line"/>
      <point x="405" y="0" type="line"/>
      <point x="630" y="0" type="line"/>
      <point x="545" y="301" type="line"/>
      <point x="619" y="560" type="line"/>
      <point x="399" y="560" type="line"/>
      <point x="365" y="381" type="line"/>
      <point x="250" y="381" type="line"/>
      <point x="250" y="560" type="line"/>
      <point x="30" y="560" type="line"/>
    </contour>
    <contour>
      <point x="349" y="91" type="line"/>
      <point x="349" y="491" type="line"/>
      <point x="277" y="491" type="line"/>
      <point x="277" y="91" type="line"/>
    </contour>
  </outline>
</glyph>
<glyph name="uni04A0" format="2">
  <advance width="645"/>
  <unicode hex="04A0"/>
  <anchor x="355" y="700" name="top"/>
  <anchor x="355" y="0" name="bottom"/>
  <outline>
    <contour>
      <point x="10" y="510" type="line"/>
      <point x="95" y="510" type="line"/>
      <point x="95" y="0" type="line"/>
      <point x="315" y="0" type="line"/>
      <point x="315" y="260" type="line"/>
      <point x="335" y="260" type="line"/>
      <point x="397" y="0" type="line"/>
      <point x="645" y="0" type="line"/>
      <point x="525" y="370" type="line"/>
      <point x="630" y="700" type="line"/>
      <point x="385" y="700" type="line"/>
      <point x="330" y="450" type="line"/>
      <point x="315" y="450" type="line"/>
      <point x="315" y="700" type="line"/>
      <point x="10" y="700" type="line"/>
    </contour>
  </outline>
</glyph>
<glyph name="uni04A1" format="2">
  <advance width="635"/>
  <unicode hex="04A1"/>
  <anchor x="365" y="0" name="bottom"/>
  <anchor x="343" y="560" name="top"/>
  <outline>
    <contour>
      <point x="10" y="370" type="line"/>
      <point x="95" y="370" type="line"/>
      <point x="95" y="0" type="line"/>
      <point x="315" y="0" type="line"/>
      <point x="315" y="201" type="line"/>
      <point x="349" y="201" type="line"/>
      <point x="394" y="0" type="line"/>
      <point x="625" y="0" type="line"/>
      <point x="528" y="301" type="line"/>
      <point x="617" y="560" type="line"/>
      <point x="388" y="560" type="line"/>
      <point x="344" y="381" type="line"/>
      <point x="315" y="381" type="line"/>
      <point x="315" y="560" type="line"/>
      <point x="10" y="560" type="line"/>
    </contour>
  </outline>
</glyph>
<glyph name="uni04A4" format="2">
  <advance width="625"/>
  <unicode hex="04A4"/>
  <anchor x="313" y="0" name="bottom"/>
  <anchor x="313" y="700" name="top"/>
  <outline>
    <contour>
      <point x="30" y="0" type="line"/>
      <point x="250" y="0" type="line"/>
      <point x="250" y="260" type="line"/>
      <point x="310" y="260" type="line"/>
      <point x="310" y="0" type="line"/>
      <point x="530" y="0" type="line"/>
      <point x="530" y="510" type="line"/>
      <point x="615" y="510" type="line"/>
      <point x="615" y="700" type="line"/>
      <point x="310" y="700" type="line"/>
      <point x="310" y="460" type="line"/>
      <point x="250" y="460" type="line"/>
      <point x="250" y="700" type="line"/>
      <point x="30" y="700" type="line"/>
    </contour>
  </outline>
</glyph>
<glyph name="uni04A5" format="2">
  <advance width="625"/>
  <unicode hex="04A5"/>
  <anchor x="313" y="0" name="bottom"/>
  <anchor x="313" y="560" name="top"/>
  <outline>
    <contour>
      <point x="30" y="0" type="line"/>
      <point x="250" y="0" type="line"/>
      <point x="250" y="180" type="line"/>
      <point x="310" y="180" type="line"/>
      <point x="310" y="0" type="line"/>
      <point x="530" y="0" type="line"/>
      <point x="530" y="370" type="line"/>
      <point x="615" y="370" type="line"/>
      <point x="615" y="560" type="line"/>
      <point x="310" y="560" type="line"/>
      <point x="310" y="380" type="line"/>
      <point x="250" y="380" type="line"/>
      <point x="250" y="560" type="line"/>
      <point x="30" y="560" type="line"/>
    </contour>
  </outline>
</glyph>
<glyph name="uni04AA" format="2">
  <advance width="465"/>
  <unicode hex="04AA"/>
  <anchor x="255" y="700" name="top"/>
  <anchor x="255" y="0" name="bottom"/>
  <outline>
    <contour>
      <point x="25" y="140" type="line"/>
      <point x="165" y="0" type="line"/>
      <point x="213" y="0" type="line"/>
      <point x="213" y="-140" type="line"/>
      <point x="373" y="-140" type="line"/>
      <point x="373" y="0" type="line"/>
      <point x="445" y="0" type="line"/>
      <point x="445" y="205" type="line"/>
      <point x="265" y="205" type="line"/>
      <point x="265" y="495" type="line"/>
      <point x="445" y="495" type="line"/>
      <point x="445" y="700" type="line"/>
      <point x="165" y="700" type="line"/>
      <point x="25" y="560" type="line"/>
    </contour>
  </outline>
</glyph>
<glyph name="uni04AB" format="2">
  <advance width="440"/>
  <unicode hex="04AB"/>
  <anchor x="260" y="0" name="bottom"/>
  <anchor x="260" y="560" name="top"/>
  <outline>
    <contour>
      <point x="30" y="130" type="line"/>
      <point x="160" y="0" type="line"/>
      <point x="200" y="0" type="line"/>
      <point x="200" y="-140" type="line"/>
      <point x="360" y="-140" type="line"/>
      <point x="360" y="0" type="line"/>
      <point x="420" y="0" type="line"/>
      <point x="420" y="200" type="line"/>
      <point x="250" y="200" type="line"/>
      <point x="250" y="360" type="line"/>
      <point x="420" y="360" type="line"/>
      <point x="420" y="560" type="line"/>
      <point x="160" y="560" type="line"/>
      <point x="30" y="430" type="line"/>
    </contour>
  </outline>
</glyph>
<glyph name="uni04B0" format="2">
  <advance width="560"/>
  <unicode hex="04B0"/>
  <anchor x="280" y="700" name="top"/>
  <anchor x="280" y="0" name="bottom"/>
  <outline>
    <contour>
      <point x="170" y="0" type="line"/>
      <point x="390" y="0" type="line"/>
      <point x="390" y="170" type="line"/>
      <point x="433" y="170" type="line"/>
      <point x="555" y="700" type="line"/>
      <point x="320" y="700" type="line"/>
      <point x="285" y="350" type="line"/>
      <point x="275" y="350" type="line"/>
      <point x="240" y="700" type="line"/>
      <point x="5" y="700" type="line"/>
      <point x="127" y="170" type="line"/>
      <point x="170" y="170" type="line"/>
    </contour>
    <contour>
      <point x="30" y="170" type="line"/>
      <point x="530" y="170" type="line"/>
      <point x="530" y="350" type="line"/>
      <point x="30" y="350" type="line"/>
    </contour>
  </outline>
</glyph>
<glyph name="uni04B1" format="2">
  <advance width="540"/>
  <unicode hex="04B1"/>
  <anchor x="270" y="560" name="top"/>
  <anchor x="270" y="-140" name="bottom"/>
  <outline>
    <contour>
      <point x="10" y="0" type="line"/>
      <point x="150" y="0" type="line"/>
      <point x="150" y="-140" type="line"/>
      <point x="390" y="-140" type="line"/>
      <point x="390" y="0" type="line"/>
      <point x="530" y="0" type="line"/>
      <point x="530" y="180" type="line"/>
      <point x="442" y="180" type="line"/>
      <point x="535" y="560" type="line"/>
      <point x="318" y="560" type="line"/>
      <point x="280" y="180" type="line"/>
      <point x="264" y="180" type="line"/>
      <point x="226" y="560" type="line"/>
      <point x="5" y="560" type="line"/>
      <point x="98" y="180" type="line"/>
      <point x="10" y="180" type="line"/>
    </contour>
  </outline>
</glyph>
<glyph name="uni04B3" format="2">
  <advance width="610"/>
  <unicode hex="04B3"/>
  <anchor x="305" y="0" name="bottom"/>
  <anchor x="305" y="560" name="top"/>
  <outline>
    <contour>
      <point x="5" y="0" type="line"/>
      <point x="243" y="0" type="line"/>
      <point x="264" y="191" type="line"/>
      <point x="296" y="191" type="line"/>
      <point x="317" y="0" type="line"/>
      <point x="440" y="0" type="line"/>
      <point x="440" y="-140" type="line"/>
      <point x="600" y="-140" type="line"/>
      <point x="600" y="190" type="line"/>
      <point x="496" y="190" type="line"/>
      <point x="465" y="291" type="line"/>
      <point x="549" y="560" type="line"/>
      <point x="314" y="560" type="line"/>
      <point x="291" y="371" type="line"/>
      <point x="269" y="371" type="line"/>
      <point x="246" y="560" type="line"/>
      <point x="11" y="560" type="line"/>
      <point x="95" y="291" type="line"/>
    </contour>
  </outline>
</glyph>
